M48
; DRILL file {KiCad (6.0.0)} date Sun Nov 20 21:00:31 2022
; FORMAT={-:-/ absolute / inch / decimal}
; #@! TF.CreationDate,2022-11-20T21:00:31+02:00
; #@! TF.GenerationSoftware,Kicad,Pcbnew,(6.0.0)
; #@! TF.FileFunction,Plated,1,2,PTH
FMAT,2
INCH
; #@! TA.AperFunction,Plated,PTH,ViaDrill
T1C0.0079
; #@! TA.AperFunction,Plated,PTH,ViaDrill
T2C0.0118
; #@! TA.AperFunction,Plated,PTH,ViaDrill
T3C0.0157
; #@! TA.AperFunction,Plated,PTH,ComponentDrill
T4C0.0197
; #@! TA.AperFunction,Plated,PTH,ComponentDrill
T5C0.0217
; #@! TA.AperFunction,Plated,PTH,ComponentDrill
T6C0.0295
; #@! TA.AperFunction,Plated,PTH,ComponentDrill
T7C0.0315
; #@! TA.AperFunction,Plated,PTH,ComponentDrill
T8C0.0354
; #@! TA.AperFunction,Plated,PTH,ComponentDrill
T9C0.0390
; #@! TA.AperFunction,Plated,PTH,ComponentDrill
T10C0.0394
; #@! TA.AperFunction,Plated,PTH,ComponentDrill
T11C0.0512
%
G90
G05
T1
X2.9947Y-2.1423
X3.2137Y-2.1923
X3.3307Y-2.7043
X3.3327Y-2.4943
X3.3627Y-2.5683
X3.3677Y-2.6093
X3.3677Y-2.6733
X3.4617Y-3.0343
X3.4827Y-2.6093
X3.4847Y-2.7983
X3.4857Y-2.5793
X3.7Y-2.735
X3.7Y-2.768
X3.9317Y-2.9353
X3.968Y-2.35
X4.0447Y-3.0753
X4.151Y-2.35
X4.1807Y-2.8113
X4.2557Y-3.0233
X4.3657Y-2.4673
X4.3877Y-2.3883
X4.4117Y-2.3313
X4.6417Y-3.1453
X4.731Y-2.452
X4.731Y-2.588
X4.7927Y-3.3023
X4.8575Y-2.5194
T2
X4.1787Y-3.1303
X4.2897Y-3.1783
T3
X2.5887Y-2.904
X3.3327Y-2.2783
X3.4007Y-2.1553
X3.6087Y-2.7833
X3.6094Y-2.9266
X3.6097Y-2.4513
X3.6097Y-2.5973
X3.8867Y-2.2803
X3.9717Y-2.1553
X3.9767Y-2.7663
X4.4197Y-3.2433
X4.4207Y-3.0243
X4.5167Y-3.0243
X4.5167Y-3.2433
X4.7517Y-2.5193
X4.858Y-2.605
X5.0197Y-3.0563
X5.1357Y-3.0563
T6
X2.8961Y-1.9902
X2.8961Y-2.069
X2.8961Y-2.1477
X2.8961Y-2.2265
T7
X3.284Y-2.0103
X3.284Y-2.0891
X3.3627Y-2.0103
X3.3627Y-2.0891
X3.4414Y-2.0103
X3.4414Y-2.0891
T8
X5.2985Y-2.9313
X5.2987Y-3.2313
X5.3985Y-2.9313
X5.3987Y-3.2313
T9
X2.6747Y-2.5183
X2.6747Y-2.6955
T10
X3.1118Y-2.2583
X3.1118Y-2.3583
X3.1118Y-2.4583
X3.1118Y-2.5583
X3.1118Y-2.6583
X3.1118Y-2.7583
X3.1118Y-2.8583
X3.1118Y-2.9583
X5.3121Y-1.9934
X5.3121Y-2.2493
X5.4893Y-1.9934
X5.4893Y-2.2493
T11
X2.7727Y-2.4689
X2.7727Y-2.7449
T4
G00X5.5183Y-2.4706
M15
G01X5.4927Y-2.4706
M16
G05
G00X5.5183Y-2.7461
M15
G01X5.4927Y-2.7461
M16
G05
T5
G00X5.3992Y-2.504
M15
G01X5.3992Y-2.5158
M16
G05
G00X5.3992Y-2.7009
M15
G01X5.3992Y-2.7127
M16
G05
T0
M30
