M48
; DRILL file {KiCad (6.0.0)} date Mon Oct 17 15:32:00 2022
; FORMAT={-:-/ absolute / metric / decimal}
; #@! TF.CreationDate,2022-10-17T15:32:00+03:00
; #@! TF.GenerationSoftware,Kicad,Pcbnew,(6.0.0)
; #@! TF.FileFunction,Plated,1,2,PTH
FMAT,2
METRIC
; #@! TA.AperFunction,Plated,PTH,ViaDrill
T1C0.200
; #@! TA.AperFunction,Plated,PTH,ViaDrill
T2C0.300
; #@! TA.AperFunction,Plated,PTH,ViaDrill
T3C0.400
; #@! TA.AperFunction,Plated,PTH,ComponentDrill
T4C0.500
; #@! TA.AperFunction,Plated,PTH,ComponentDrill
T5C0.550
; #@! TA.AperFunction,Plated,PTH,ComponentDrill
T6C0.750
; #@! TA.AperFunction,Plated,PTH,ComponentDrill
T7C0.800
; #@! TA.AperFunction,Plated,PTH,ComponentDrill
T8C0.900
; #@! TA.AperFunction,Plated,PTH,ComponentDrill
T9C0.990
; #@! TA.AperFunction,Plated,PTH,ComponentDrill
T10C1.000
; #@! TA.AperFunction,Plated,PTH,ComponentDrill
T11C1.300
%
G90
G05
T1
X76.065Y-54.416
X81.628Y-55.686
X84.6Y-68.69
X84.65Y-63.356
X85.412Y-65.236
X85.539Y-66.277
X85.539Y-67.903
X87.927Y-77.072
X88.46Y-66.277
X88.511Y-71.078
X88.537Y-65.515
X93.98Y-69.469
X93.98Y-70.307
X99.865Y-74.558
X100.787Y-59.69
X102.735Y-78.114
X105.435Y-59.69
X106.19Y-71.408
X108.095Y-76.793
X110.889Y-62.671
X111.447Y-60.664
X112.057Y-59.216
X117.899Y-79.892
X120.167Y-62.281
X120.167Y-65.735
X121.734Y-83.88
X123.38Y-63.993
T2
X106.139Y-79.511
X108.958Y-80.73
T3
X65.753Y-73.762
X84.65Y-57.869
X86.378Y-54.746
X91.661Y-70.697
X91.68Y-74.336
X91.686Y-62.264
X91.686Y-65.973
X98.722Y-57.921
X100.881Y-54.746
X101.008Y-70.265
X112.26Y-82.381
X112.286Y-76.818
X114.724Y-76.818
X114.724Y-82.381
X120.693Y-63.991
X123.393Y-66.167
X127.5Y-77.631
X130.447Y-77.631
T6
X73.562Y-50.552
X73.562Y-52.552
X73.562Y-54.552
X73.562Y-56.552
T7
X83.412Y-51.063
X83.412Y-53.063
X85.412Y-51.063
X85.412Y-53.063
X87.412Y-51.063
X87.412Y-53.063
T8
X134.582Y-74.456
X134.587Y-82.076
X137.122Y-74.456
X137.127Y-82.076
T9
X67.937Y-63.966
X67.937Y-68.466
T10
X79.039Y-57.362
X79.039Y-59.902
X79.039Y-62.442
X79.039Y-64.982
X79.039Y-67.522
X79.039Y-70.062
X79.039Y-72.602
X79.039Y-75.142
X134.928Y-50.632
X134.928Y-57.132
X139.428Y-50.632
X139.428Y-57.132
T11
X70.427Y-62.711
X70.427Y-69.721
T4
X140.164Y-62.752G85X139.514Y-62.752
G05
X140.164Y-69.752G85X139.514Y-69.752
G05
T5
X137.139Y-63.602G85X137.139Y-63.902
G05
X137.139Y-68.602G85X137.139Y-68.902
G05
T0
M30
