%FSLAX45Y45*%
G04 Gerber Fmt 4.5, Leading zero omitted, Abs format (unit mm)*
G04 Created by KiCad (PCBNEW (6.0.0)) date 2022-10-17 15:32:17*
%MOMM*%
%LPD*%
G01*
G04 APERTURE LIST*
%TA.AperFunction,Profile*%
%ADD10C,0.100000*%
%TD*%
%ADD11C,0.200000*%
%ADD12C,0.320000*%
G04 APERTURE END LIST*
D10*
X6443200Y-8550520D02*
X14129240Y-8550520D01*
X14129240Y-8550520D02*
X14129240Y-4666860D01*
X14129240Y-4666860D02*
X6443200Y-4666860D01*
X6443200Y-4666860D02*
X6443200Y-8550520D01*
D11*
D12*
X7693880Y-7915180D02*
X8013880Y-8235180D01*
X8013880Y-7915180D02*
X7693880Y-8235180D01*
X7703080Y-5017380D02*
X8023080Y-5337380D01*
X8023080Y-5017380D02*
X7703080Y-5337380D01*
X12893880Y-5015180D02*
X13213880Y-5335180D01*
X13213880Y-5015180D02*
X12893880Y-5335180D01*
X12893880Y-7915180D02*
X13213880Y-8235180D01*
X13213880Y-7915180D02*
X12893880Y-8235180D01*
D11*
X6695819Y-8865996D02*
X6695819Y-8665996D01*
X6743438Y-8665996D01*
X6772009Y-8675520D01*
X6791057Y-8694568D01*
X6800581Y-8713615D01*
X6810105Y-8751710D01*
X6810105Y-8780282D01*
X6800581Y-8818377D01*
X6791057Y-8837425D01*
X6772009Y-8856472D01*
X6743438Y-8865996D01*
X6695819Y-8865996D01*
X6895819Y-8865996D02*
X6895819Y-8732663D01*
X6895819Y-8770758D02*
X6905343Y-8751710D01*
X6914867Y-8742187D01*
X6933914Y-8732663D01*
X6952962Y-8732663D01*
X7019628Y-8865996D02*
X7019628Y-8732663D01*
X7019628Y-8665996D02*
X7010105Y-8675520D01*
X7019628Y-8685044D01*
X7029152Y-8675520D01*
X7019628Y-8665996D01*
X7019628Y-8685044D01*
X7143438Y-8865996D02*
X7124390Y-8856472D01*
X7114867Y-8837425D01*
X7114867Y-8665996D01*
X7248200Y-8865996D02*
X7229152Y-8856472D01*
X7219628Y-8837425D01*
X7219628Y-8665996D01*
X7476771Y-8865996D02*
X7476771Y-8665996D01*
X7543438Y-8808853D01*
X7610105Y-8665996D01*
X7610105Y-8865996D01*
X7791057Y-8865996D02*
X7791057Y-8761234D01*
X7781533Y-8742187D01*
X7762486Y-8732663D01*
X7724390Y-8732663D01*
X7705343Y-8742187D01*
X7791057Y-8856472D02*
X7772009Y-8865996D01*
X7724390Y-8865996D01*
X7705343Y-8856472D01*
X7695819Y-8837425D01*
X7695819Y-8818377D01*
X7705343Y-8799330D01*
X7724390Y-8789806D01*
X7772009Y-8789806D01*
X7791057Y-8780282D01*
X7886295Y-8732663D02*
X7886295Y-8932663D01*
X7886295Y-8742187D02*
X7905343Y-8732663D01*
X7943438Y-8732663D01*
X7962486Y-8742187D01*
X7972009Y-8751710D01*
X7981533Y-8770758D01*
X7981533Y-8827901D01*
X7972009Y-8846949D01*
X7962486Y-8856472D01*
X7943438Y-8865996D01*
X7905343Y-8865996D01*
X7886295Y-8856472D01*
X8067248Y-8846949D02*
X8076771Y-8856472D01*
X8067248Y-8865996D01*
X8057724Y-8856472D01*
X8067248Y-8846949D01*
X8067248Y-8865996D01*
X8067248Y-8742187D02*
X8076771Y-8751710D01*
X8067248Y-8761234D01*
X8057724Y-8751710D01*
X8067248Y-8742187D01*
X8067248Y-8761234D01*
X6238200Y-9095520D02*
X6438200Y-9295520D01*
X6438200Y-9095520D02*
X6238200Y-9295520D01*
X6676771Y-9085996D02*
X6800581Y-9085996D01*
X6733914Y-9162187D01*
X6762486Y-9162187D01*
X6781533Y-9171710D01*
X6791057Y-9181234D01*
X6800581Y-9200282D01*
X6800581Y-9247901D01*
X6791057Y-9266949D01*
X6781533Y-9276472D01*
X6762486Y-9285996D01*
X6705343Y-9285996D01*
X6686295Y-9276472D01*
X6676771Y-9266949D01*
X6886295Y-9266949D02*
X6895819Y-9276472D01*
X6886295Y-9285996D01*
X6876771Y-9276472D01*
X6886295Y-9266949D01*
X6886295Y-9285996D01*
X6972009Y-9105044D02*
X6981533Y-9095520D01*
X7000581Y-9085996D01*
X7048200Y-9085996D01*
X7067248Y-9095520D01*
X7076771Y-9105044D01*
X7086295Y-9124091D01*
X7086295Y-9143139D01*
X7076771Y-9171710D01*
X6962486Y-9285996D01*
X7086295Y-9285996D01*
X7210105Y-9085996D02*
X7229152Y-9085996D01*
X7248200Y-9095520D01*
X7257724Y-9105044D01*
X7267248Y-9124091D01*
X7276771Y-9162187D01*
X7276771Y-9209806D01*
X7267248Y-9247901D01*
X7257724Y-9266949D01*
X7248200Y-9276472D01*
X7229152Y-9285996D01*
X7210105Y-9285996D01*
X7191057Y-9276472D01*
X7181533Y-9266949D01*
X7172009Y-9247901D01*
X7162486Y-9209806D01*
X7162486Y-9162187D01*
X7172009Y-9124091D01*
X7181533Y-9105044D01*
X7191057Y-9095520D01*
X7210105Y-9085996D01*
X7400581Y-9085996D02*
X7419628Y-9085996D01*
X7438676Y-9095520D01*
X7448200Y-9105044D01*
X7457724Y-9124091D01*
X7467248Y-9162187D01*
X7467248Y-9209806D01*
X7457724Y-9247901D01*
X7448200Y-9266949D01*
X7438676Y-9276472D01*
X7419628Y-9285996D01*
X7400581Y-9285996D01*
X7381533Y-9276472D01*
X7372009Y-9266949D01*
X7362486Y-9247901D01*
X7352962Y-9209806D01*
X7352962Y-9162187D01*
X7362486Y-9124091D01*
X7372009Y-9105044D01*
X7381533Y-9095520D01*
X7400581Y-9085996D01*
X7552962Y-9285996D02*
X7552962Y-9152663D01*
X7552962Y-9171710D02*
X7562486Y-9162187D01*
X7581533Y-9152663D01*
X7610105Y-9152663D01*
X7629152Y-9162187D01*
X7638676Y-9181234D01*
X7638676Y-9285996D01*
X7638676Y-9181234D02*
X7648200Y-9162187D01*
X7667248Y-9152663D01*
X7695819Y-9152663D01*
X7714867Y-9162187D01*
X7724390Y-9181234D01*
X7724390Y-9285996D01*
X7819628Y-9285996D02*
X7819628Y-9152663D01*
X7819628Y-9171710D02*
X7829152Y-9162187D01*
X7848200Y-9152663D01*
X7876771Y-9152663D01*
X7895819Y-9162187D01*
X7905343Y-9181234D01*
X7905343Y-9285996D01*
X7905343Y-9181234D02*
X7914867Y-9162187D01*
X7933914Y-9152663D01*
X7962486Y-9152663D01*
X7981533Y-9162187D01*
X7991057Y-9181234D01*
X7991057Y-9285996D01*
X8381533Y-9076472D02*
X8210105Y-9333615D01*
X8638676Y-9085996D02*
X8657724Y-9085996D01*
X8676771Y-9095520D01*
X8686295Y-9105044D01*
X8695819Y-9124091D01*
X8705343Y-9162187D01*
X8705343Y-9209806D01*
X8695819Y-9247901D01*
X8686295Y-9266949D01*
X8676771Y-9276472D01*
X8657724Y-9285996D01*
X8638676Y-9285996D01*
X8619629Y-9276472D01*
X8610105Y-9266949D01*
X8600581Y-9247901D01*
X8591057Y-9209806D01*
X8591057Y-9162187D01*
X8600581Y-9124091D01*
X8610105Y-9105044D01*
X8619629Y-9095520D01*
X8638676Y-9085996D01*
X8791057Y-9266949D02*
X8800581Y-9276472D01*
X8791057Y-9285996D01*
X8781533Y-9276472D01*
X8791057Y-9266949D01*
X8791057Y-9285996D01*
X8991057Y-9285996D02*
X8876771Y-9285996D01*
X8933914Y-9285996D02*
X8933914Y-9085996D01*
X8914867Y-9114568D01*
X8895819Y-9133615D01*
X8876771Y-9143139D01*
X9067248Y-9105044D02*
X9076771Y-9095520D01*
X9095819Y-9085996D01*
X9143438Y-9085996D01*
X9162486Y-9095520D01*
X9172010Y-9105044D01*
X9181533Y-9124091D01*
X9181533Y-9143139D01*
X9172010Y-9171710D01*
X9057724Y-9285996D01*
X9181533Y-9285996D01*
X9352962Y-9085996D02*
X9314867Y-9085996D01*
X9295819Y-9095520D01*
X9286295Y-9105044D01*
X9267248Y-9133615D01*
X9257724Y-9171710D01*
X9257724Y-9247901D01*
X9267248Y-9266949D01*
X9276771Y-9276472D01*
X9295819Y-9285996D01*
X9333914Y-9285996D01*
X9352962Y-9276472D01*
X9362486Y-9266949D01*
X9372010Y-9247901D01*
X9372010Y-9200282D01*
X9362486Y-9181234D01*
X9352962Y-9171710D01*
X9333914Y-9162187D01*
X9295819Y-9162187D01*
X9276771Y-9171710D01*
X9267248Y-9181234D01*
X9257724Y-9200282D01*
X9495819Y-9085996D02*
X9514867Y-9085996D01*
X9533914Y-9095520D01*
X9543438Y-9105044D01*
X9552962Y-9124091D01*
X9562486Y-9162187D01*
X9562486Y-9209806D01*
X9552962Y-9247901D01*
X9543438Y-9266949D01*
X9533914Y-9276472D01*
X9514867Y-9285996D01*
X9495819Y-9285996D01*
X9476771Y-9276472D01*
X9467248Y-9266949D01*
X9457724Y-9247901D01*
X9448200Y-9209806D01*
X9448200Y-9162187D01*
X9457724Y-9124091D01*
X9467248Y-9105044D01*
X9476771Y-9095520D01*
X9495819Y-9085996D01*
X9638676Y-9085996D02*
X9638676Y-9124091D01*
X9714867Y-9085996D02*
X9714867Y-9124091D01*
X10010105Y-9362187D02*
X10000581Y-9352663D01*
X9981533Y-9324091D01*
X9972010Y-9305044D01*
X9962486Y-9276472D01*
X9952962Y-9228853D01*
X9952962Y-9190758D01*
X9962486Y-9143139D01*
X9972010Y-9114568D01*
X9981533Y-9095520D01*
X10000581Y-9066949D01*
X10010105Y-9057425D01*
X10172010Y-9152663D02*
X10172010Y-9285996D01*
X10124390Y-9076472D02*
X10076771Y-9219330D01*
X10200581Y-9219330D01*
X10429152Y-9285996D02*
X10429152Y-9085996D01*
X10514867Y-9285996D02*
X10514867Y-9181234D01*
X10505343Y-9162187D01*
X10486295Y-9152663D01*
X10457724Y-9152663D01*
X10438676Y-9162187D01*
X10429152Y-9171710D01*
X10638676Y-9285996D02*
X10619629Y-9276472D01*
X10610105Y-9266949D01*
X10600581Y-9247901D01*
X10600581Y-9190758D01*
X10610105Y-9171710D01*
X10619629Y-9162187D01*
X10638676Y-9152663D01*
X10667248Y-9152663D01*
X10686295Y-9162187D01*
X10695819Y-9171710D01*
X10705343Y-9190758D01*
X10705343Y-9247901D01*
X10695819Y-9266949D01*
X10686295Y-9276472D01*
X10667248Y-9285996D01*
X10638676Y-9285996D01*
X10819629Y-9285996D02*
X10800581Y-9276472D01*
X10791057Y-9257425D01*
X10791057Y-9085996D01*
X10972010Y-9276472D02*
X10952962Y-9285996D01*
X10914867Y-9285996D01*
X10895819Y-9276472D01*
X10886295Y-9257425D01*
X10886295Y-9181234D01*
X10895819Y-9162187D01*
X10914867Y-9152663D01*
X10952962Y-9152663D01*
X10972010Y-9162187D01*
X10981533Y-9181234D01*
X10981533Y-9200282D01*
X10886295Y-9219330D01*
X11057724Y-9276472D02*
X11076771Y-9285996D01*
X11114867Y-9285996D01*
X11133914Y-9276472D01*
X11143438Y-9257425D01*
X11143438Y-9247901D01*
X11133914Y-9228853D01*
X11114867Y-9219330D01*
X11086295Y-9219330D01*
X11067248Y-9209806D01*
X11057724Y-9190758D01*
X11057724Y-9181234D01*
X11067248Y-9162187D01*
X11086295Y-9152663D01*
X11114867Y-9152663D01*
X11133914Y-9162187D01*
X11210105Y-9362187D02*
X11219628Y-9352663D01*
X11238676Y-9324091D01*
X11248200Y-9305044D01*
X11257724Y-9276472D01*
X11267248Y-9228853D01*
X11267248Y-9190758D01*
X11257724Y-9143139D01*
X11248200Y-9114568D01*
X11238676Y-9095520D01*
X11219628Y-9066949D01*
X11210105Y-9057425D01*
X11572009Y-9362187D02*
X11562486Y-9352663D01*
X11543438Y-9324091D01*
X11533914Y-9305044D01*
X11524390Y-9276472D01*
X11514867Y-9228853D01*
X11514867Y-9190758D01*
X11524390Y-9143139D01*
X11533914Y-9114568D01*
X11543438Y-9095520D01*
X11562486Y-9066949D01*
X11572009Y-9057425D01*
X11648200Y-9152663D02*
X11648200Y-9285996D01*
X11648200Y-9171710D02*
X11657724Y-9162187D01*
X11676771Y-9152663D01*
X11705343Y-9152663D01*
X11724390Y-9162187D01*
X11733914Y-9181234D01*
X11733914Y-9285996D01*
X11857724Y-9285996D02*
X11838676Y-9276472D01*
X11829152Y-9266949D01*
X11819628Y-9247901D01*
X11819628Y-9190758D01*
X11829152Y-9171710D01*
X11838676Y-9162187D01*
X11857724Y-9152663D01*
X11886295Y-9152663D01*
X11905343Y-9162187D01*
X11914867Y-9171710D01*
X11924390Y-9190758D01*
X11924390Y-9247901D01*
X11914867Y-9266949D01*
X11905343Y-9276472D01*
X11886295Y-9285996D01*
X11857724Y-9285996D01*
X11981533Y-9152663D02*
X12057724Y-9152663D01*
X12010105Y-9085996D02*
X12010105Y-9257425D01*
X12019628Y-9276472D01*
X12038676Y-9285996D01*
X12057724Y-9285996D01*
X12276771Y-9152663D02*
X12276771Y-9352663D01*
X12276771Y-9162187D02*
X12295819Y-9152663D01*
X12333914Y-9152663D01*
X12352962Y-9162187D01*
X12362486Y-9171710D01*
X12372009Y-9190758D01*
X12372009Y-9247901D01*
X12362486Y-9266949D01*
X12352962Y-9276472D01*
X12333914Y-9285996D01*
X12295819Y-9285996D01*
X12276771Y-9276472D01*
X12486295Y-9285996D02*
X12467248Y-9276472D01*
X12457724Y-9257425D01*
X12457724Y-9085996D01*
X12648200Y-9285996D02*
X12648200Y-9181234D01*
X12638676Y-9162187D01*
X12619628Y-9152663D01*
X12581533Y-9152663D01*
X12562486Y-9162187D01*
X12648200Y-9276472D02*
X12629152Y-9285996D01*
X12581533Y-9285996D01*
X12562486Y-9276472D01*
X12552962Y-9257425D01*
X12552962Y-9238377D01*
X12562486Y-9219330D01*
X12581533Y-9209806D01*
X12629152Y-9209806D01*
X12648200Y-9200282D01*
X12714867Y-9152663D02*
X12791057Y-9152663D01*
X12743438Y-9085996D02*
X12743438Y-9257425D01*
X12752962Y-9276472D01*
X12772009Y-9285996D01*
X12791057Y-9285996D01*
X12933914Y-9276472D02*
X12914867Y-9285996D01*
X12876771Y-9285996D01*
X12857724Y-9276472D01*
X12848200Y-9257425D01*
X12848200Y-9181234D01*
X12857724Y-9162187D01*
X12876771Y-9152663D01*
X12914867Y-9152663D01*
X12933914Y-9162187D01*
X12943438Y-9181234D01*
X12943438Y-9200282D01*
X12848200Y-9219330D01*
X13114867Y-9285996D02*
X13114867Y-9085996D01*
X13114867Y-9276472D02*
X13095819Y-9285996D01*
X13057724Y-9285996D01*
X13038676Y-9276472D01*
X13029152Y-9266949D01*
X13019628Y-9247901D01*
X13019628Y-9190758D01*
X13029152Y-9171710D01*
X13038676Y-9162187D01*
X13057724Y-9152663D01*
X13095819Y-9152663D01*
X13114867Y-9162187D01*
X13191057Y-9362187D02*
X13200581Y-9352663D01*
X13219628Y-9324091D01*
X13229152Y-9305044D01*
X13238676Y-9276472D01*
X13248200Y-9228853D01*
X13248200Y-9190758D01*
X13238676Y-9143139D01*
X13229152Y-9114568D01*
X13219628Y-9095520D01*
X13200581Y-9066949D01*
X13191057Y-9057425D01*
M02*
