G04 #@! TF.GenerationSoftware,KiCad,Pcbnew,(6.0.0)*
G04 #@! TF.CreationDate,2022-10-17T15:31:20+03:00*
G04 #@! TF.ProjectId,djiFriend,646a6946-7269-4656-9e64-2e6b69636164,rev?*
G04 #@! TF.SameCoordinates,Original*
G04 #@! TF.FileFunction,Soldermask,Top*
G04 #@! TF.FilePolarity,Negative*
%FSLAX46Y46*%
G04 Gerber Fmt 4.6, Leading zero omitted, Abs format (unit mm)*
G04 Created by KiCad (PCBNEW (6.0.0)) date 2022-10-17 15:31:20*
%MOMM*%
%LPD*%
G01*
G04 APERTURE LIST*
G04 Aperture macros list*
%AMRoundRect*
0 Rectangle with rounded corners*
0 $1 Rounding radius*
0 $2 $3 $4 $5 $6 $7 $8 $9 X,Y pos of 4 corners*
0 Add a 4 corners polygon primitive as box body*
4,1,4,$2,$3,$4,$5,$6,$7,$8,$9,$2,$3,0*
0 Add four circle primitives for the rounded corners*
1,1,$1+$1,$2,$3*
1,1,$1+$1,$4,$5*
1,1,$1+$1,$6,$7*
1,1,$1+$1,$8,$9*
0 Add four rect primitives between the rounded corners*
20,1,$1+$1,$2,$3,$4,$5,0*
20,1,$1+$1,$4,$5,$6,$7,0*
20,1,$1+$1,$6,$7,$8,$9,0*
20,1,$1+$1,$8,$9,$2,$3,0*%
G04 Aperture macros list end*
%ADD10C,1.700000*%
%ADD11C,1.540000*%
%ADD12C,1.950000*%
%ADD13C,1.500000*%
%ADD14C,3.200000*%
%ADD15R,1.700000X1.700000*%
%ADD16R,1.800000X1.800000*%
%ADD17C,1.800000*%
%ADD18RoundRect,0.250000X-0.625000X0.350000X-0.625000X-0.350000X0.625000X-0.350000X0.625000X0.350000X0*%
%ADD19O,1.750000X1.200000*%
%ADD20R,1.350000X1.350000*%
%ADD21O,1.350000X1.350000*%
%ADD22O,0.950000X1.250000*%
%ADD23O,1.550000X0.890000*%
G04 APERTURE END LIST*
D10*
X134927600Y-57132200D03*
X134927600Y-50632200D03*
X139427600Y-57132200D03*
X139427600Y-50632200D03*
D11*
X67937200Y-63966000D03*
X67937200Y-68466000D03*
D12*
X70427200Y-69721000D03*
X70427200Y-62711000D03*
D13*
X95529400Y-68249800D03*
X95529400Y-71526400D03*
D14*
X78630800Y-51773800D03*
X130538800Y-51751800D03*
X78538800Y-80751800D03*
X130538800Y-80751800D03*
D15*
X79038800Y-57361800D03*
D10*
X79038800Y-59901800D03*
X79038800Y-62441800D03*
X79038800Y-64981800D03*
X79038800Y-67521800D03*
X79038800Y-70061800D03*
X79038800Y-72601800D03*
X79038800Y-75141800D03*
D16*
X134581800Y-74456200D03*
D17*
X137121800Y-74456200D03*
D16*
X134586800Y-82076200D03*
D17*
X137126800Y-82076200D03*
D18*
X73562200Y-50552000D03*
D19*
X73562200Y-52552000D03*
X73562200Y-54552000D03*
X73562200Y-56552000D03*
D20*
X83412400Y-51062800D03*
D21*
X83412400Y-53062800D03*
X85412400Y-51062800D03*
X85412400Y-53062800D03*
X87412400Y-51062800D03*
X87412400Y-53062800D03*
D22*
X137138800Y-63752000D03*
D23*
X139838800Y-62752000D03*
D22*
X137138800Y-68752000D03*
D23*
X139838800Y-69752000D03*
G36*
X127069121Y-61894402D02*
G01*
X127115614Y-61948058D01*
X127127000Y-62000400D01*
X127127000Y-66041000D01*
X127106998Y-66109121D01*
X127053342Y-66155614D01*
X127001000Y-66167000D01*
X119861600Y-66167000D01*
X119793479Y-66146998D01*
X119746986Y-66093342D01*
X119735600Y-66041000D01*
X119735600Y-62000400D01*
X119755602Y-61932279D01*
X119809258Y-61885786D01*
X119861600Y-61874400D01*
X127001000Y-61874400D01*
X127069121Y-61894402D01*
G37*
G36*
X106622121Y-56712802D02*
G01*
X106668614Y-56766458D01*
X106680000Y-56818800D01*
X106680000Y-59868800D01*
X106659998Y-59936921D01*
X106606342Y-59983414D01*
X106554000Y-59994800D01*
X99643200Y-59994800D01*
X99575079Y-59974798D01*
X99528586Y-59921142D01*
X99517200Y-59868800D01*
X99517200Y-56818800D01*
X99537202Y-56750679D01*
X99590858Y-56704186D01*
X99643200Y-56692800D01*
X106554000Y-56692800D01*
X106622121Y-56712802D01*
G37*
G36*
X116324921Y-76118402D02*
G01*
X116371414Y-76172058D01*
X116382800Y-76224400D01*
X116382800Y-82957400D01*
X116362798Y-83025521D01*
X116309142Y-83072014D01*
X116256800Y-83083400D01*
X110768400Y-83083400D01*
X110700279Y-83063398D01*
X110653786Y-83009742D01*
X110642400Y-82957400D01*
X110642400Y-76224400D01*
X110662402Y-76156279D01*
X110716058Y-76109786D01*
X110768400Y-76098400D01*
X116256800Y-76098400D01*
X116324921Y-76118402D01*
G37*
M02*
