G04 #@! TF.GenerationSoftware,KiCad,Pcbnew,(6.0.0)*
G04 #@! TF.CreationDate,2022-10-17T15:31:20+03:00*
G04 #@! TF.ProjectId,djiFriend,646a6946-7269-4656-9e64-2e6b69636164,rev?*
G04 #@! TF.SameCoordinates,Original*
G04 #@! TF.FileFunction,Soldermask,Bot*
G04 #@! TF.FilePolarity,Negative*
%FSLAX46Y46*%
G04 Gerber Fmt 4.6, Leading zero omitted, Abs format (unit mm)*
G04 Created by KiCad (PCBNEW (6.0.0)) date 2022-10-17 15:31:20*
%MOMM*%
%LPD*%
G01*
G04 APERTURE LIST*
G04 Aperture macros list*
%AMRoundRect*
0 Rectangle with rounded corners*
0 $1 Rounding radius*
0 $2 $3 $4 $5 $6 $7 $8 $9 X,Y pos of 4 corners*
0 Add a 4 corners polygon primitive as box body*
4,1,4,$2,$3,$4,$5,$6,$7,$8,$9,$2,$3,0*
0 Add four circle primitives for the rounded corners*
1,1,$1+$1,$2,$3*
1,1,$1+$1,$4,$5*
1,1,$1+$1,$6,$7*
1,1,$1+$1,$8,$9*
0 Add four rect primitives between the rounded corners*
20,1,$1+$1,$2,$3,$4,$5,0*
20,1,$1+$1,$4,$5,$6,$7,0*
20,1,$1+$1,$6,$7,$8,$9,0*
20,1,$1+$1,$8,$9,$2,$3,0*%
G04 Aperture macros list end*
%ADD10C,1.700000*%
%ADD11C,1.540000*%
%ADD12C,1.950000*%
%ADD13C,3.200000*%
%ADD14R,1.700000X1.700000*%
%ADD15R,1.800000X1.800000*%
%ADD16C,1.800000*%
%ADD17RoundRect,0.250000X-0.625000X0.350000X-0.625000X-0.350000X0.625000X-0.350000X0.625000X0.350000X0*%
%ADD18O,1.750000X1.200000*%
%ADD19RoundRect,0.250000X0.475000X-0.337500X0.475000X0.337500X-0.475000X0.337500X-0.475000X-0.337500X0*%
%ADD20RoundRect,0.250000X0.350000X0.450000X-0.350000X0.450000X-0.350000X-0.450000X0.350000X-0.450000X0*%
%ADD21RoundRect,0.250000X-0.337500X-0.475000X0.337500X-0.475000X0.337500X0.475000X-0.337500X0.475000X0*%
%ADD22RoundRect,0.250000X-0.450000X0.262500X-0.450000X-0.262500X0.450000X-0.262500X0.450000X0.262500X0*%
%ADD23RoundRect,0.250000X-0.450000X0.350000X-0.450000X-0.350000X0.450000X-0.350000X0.450000X0.350000X0*%
%ADD24RoundRect,0.250000X0.262500X0.450000X-0.262500X0.450000X-0.262500X-0.450000X0.262500X-0.450000X0*%
%ADD25RoundRect,0.250000X0.337500X0.475000X-0.337500X0.475000X-0.337500X-0.475000X0.337500X-0.475000X0*%
%ADD26RoundRect,0.250000X-1.500000X-0.550000X1.500000X-0.550000X1.500000X0.550000X-1.500000X0.550000X0*%
%ADD27R,0.500000X0.500000*%
%ADD28R,1.350000X1.350000*%
%ADD29O,1.350000X1.350000*%
%ADD30RoundRect,0.250000X1.500000X0.550000X-1.500000X0.550000X-1.500000X-0.550000X1.500000X-0.550000X0*%
%ADD31R,0.850000X2.700000*%
%ADD32R,1.300000X1.100000*%
%ADD33R,1.500000X2.000000*%
%ADD34R,3.800000X2.000000*%
%ADD35R,1.220000X0.650000*%
%ADD36RoundRect,0.250000X-0.262500X-0.450000X0.262500X-0.450000X0.262500X0.450000X-0.262500X0.450000X0*%
%ADD37RoundRect,0.150000X-0.512500X-0.150000X0.512500X-0.150000X0.512500X0.150000X-0.512500X0.150000X0*%
%ADD38RoundRect,0.250000X0.450000X-0.262500X0.450000X0.262500X-0.450000X0.262500X-0.450000X-0.262500X0*%
%ADD39RoundRect,0.250000X-0.475000X0.337500X-0.475000X-0.337500X0.475000X-0.337500X0.475000X0.337500X0*%
%ADD40RoundRect,0.250000X-0.400000X-0.625000X0.400000X-0.625000X0.400000X0.625000X-0.400000X0.625000X0*%
%ADD41R,0.550000X1.600000*%
%ADD42R,1.600000X0.550000*%
%ADD43R,1.350000X0.400000*%
%ADD44O,0.950000X1.250000*%
%ADD45O,1.550000X0.890000*%
%ADD46R,1.550000X1.500000*%
%ADD47R,1.550000X1.200000*%
%ADD48R,2.400000X3.700000*%
%ADD49RoundRect,0.100000X-0.687500X-0.100000X0.687500X-0.100000X0.687500X0.100000X-0.687500X0.100000X0*%
%ADD50RoundRect,0.250000X0.450000X-0.350000X0.450000X0.350000X-0.450000X0.350000X-0.450000X-0.350000X0*%
G04 APERTURE END LIST*
D10*
X134927600Y-57132200D03*
X134927600Y-50632200D03*
X139427600Y-57132200D03*
X139427600Y-50632200D03*
D11*
X67937200Y-63966000D03*
X67937200Y-68466000D03*
D12*
X70427200Y-69721000D03*
X70427200Y-62711000D03*
D13*
X78630800Y-51773800D03*
X130538800Y-51751800D03*
X78538800Y-80751800D03*
X130538800Y-80751800D03*
D14*
X79038800Y-57361800D03*
D10*
X79038800Y-59901800D03*
X79038800Y-62441800D03*
X79038800Y-64981800D03*
X79038800Y-67521800D03*
X79038800Y-70061800D03*
X79038800Y-72601800D03*
X79038800Y-75141800D03*
D15*
X134581800Y-74456200D03*
D16*
X137121800Y-74456200D03*
D15*
X134586800Y-82076200D03*
D16*
X137126800Y-82076200D03*
D17*
X73562200Y-50552000D03*
D18*
X73562200Y-52552000D03*
X73562200Y-54552000D03*
X73562200Y-56552000D03*
D19*
X108094600Y-73893500D03*
X108094600Y-71818500D03*
D20*
X72106010Y-80290000D03*
X70106010Y-80290000D03*
D21*
X89070000Y-80577600D03*
X91145000Y-80577600D03*
D22*
X139616000Y-74458100D03*
X139616000Y-76283100D03*
D23*
X67718410Y-77292800D03*
X67718410Y-79292800D03*
D24*
X103977900Y-74989600D03*
X102152900Y-74989600D03*
X124399500Y-58352600D03*
X122574500Y-58352600D03*
D25*
X100441400Y-81873000D03*
X98366400Y-81873000D03*
D26*
X105986400Y-51545400D03*
X111386400Y-51545400D03*
D27*
X117885700Y-69733150D03*
X120085700Y-69733150D03*
D28*
X83412400Y-51062800D03*
D29*
X83412400Y-53062800D03*
X85412400Y-51062800D03*
X85412400Y-53062800D03*
X87412400Y-51062800D03*
X87412400Y-53062800D03*
D30*
X101353400Y-51545400D03*
X95953400Y-51545400D03*
D19*
X89273200Y-60486200D03*
X89273200Y-58411200D03*
D31*
X124479500Y-68336150D03*
X122229500Y-68336150D03*
D32*
X86777000Y-76122400D03*
X89077000Y-76122400D03*
X89077000Y-78022400D03*
X86777000Y-78022400D03*
D33*
X100790800Y-57920400D03*
X103090800Y-57920400D03*
D34*
X103090800Y-64220400D03*
D33*
X105390800Y-57920400D03*
D35*
X70091410Y-77277600D03*
X70091410Y-75377600D03*
X72711410Y-76327600D03*
D21*
X110202800Y-73364000D03*
X112277800Y-73364000D03*
D27*
X108366200Y-57920800D03*
X110566200Y-57920800D03*
X68394400Y-72745600D03*
X70594400Y-72745600D03*
D36*
X98087000Y-68690400D03*
X99912000Y-68690400D03*
D37*
X122242400Y-64942750D03*
X122242400Y-63992750D03*
X122242400Y-63042750D03*
X124517400Y-63042750D03*
X124517400Y-63992750D03*
X124517400Y-64942750D03*
D21*
X91694000Y-75929400D03*
X93769000Y-75929400D03*
D38*
X139641400Y-82074300D03*
X139641400Y-80249300D03*
X105910200Y-74987700D03*
X105910200Y-73162700D03*
D39*
X119778600Y-81822200D03*
X119778600Y-83897200D03*
D25*
X124417400Y-60817750D03*
X122342400Y-60817750D03*
D36*
X122574500Y-56092000D03*
X124399500Y-56092000D03*
D40*
X102632400Y-81898400D03*
X105732400Y-81898400D03*
D39*
X84066200Y-76115000D03*
X84066200Y-78190000D03*
D41*
X94079800Y-72534000D03*
X93279800Y-72534000D03*
X92479800Y-72534000D03*
X91679800Y-72534000D03*
X90879800Y-72534000D03*
X90079800Y-72534000D03*
X89279800Y-72534000D03*
X88479800Y-72534000D03*
D42*
X87029800Y-71084000D03*
X87029800Y-70284000D03*
X87029800Y-69484000D03*
X87029800Y-68684000D03*
X87029800Y-67884000D03*
X87029800Y-67084000D03*
X87029800Y-66284000D03*
X87029800Y-65484000D03*
D41*
X88479800Y-64034000D03*
X89279800Y-64034000D03*
X90079800Y-64034000D03*
X90879800Y-64034000D03*
X91679800Y-64034000D03*
X92479800Y-64034000D03*
X93279800Y-64034000D03*
X94079800Y-64034000D03*
D42*
X95529800Y-65484000D03*
X95529800Y-66284000D03*
X95529800Y-67084000D03*
X95529800Y-67884000D03*
X95529800Y-68684000D03*
X95529800Y-69484000D03*
X95529800Y-70284000D03*
X95529800Y-71084000D03*
D43*
X137138800Y-64952000D03*
X137138800Y-65602000D03*
X137138800Y-66252000D03*
X137138800Y-66902000D03*
X137138800Y-67552000D03*
D44*
X137138800Y-63752000D03*
D45*
X139838800Y-62752000D03*
D44*
X137138800Y-68752000D03*
D46*
X139838800Y-65252000D03*
D45*
X139838800Y-69752000D03*
D47*
X139838800Y-63352000D03*
X139838800Y-69152000D03*
D46*
X139838800Y-67252000D03*
D19*
X114540700Y-64344450D03*
X114540700Y-62269450D03*
D48*
X113504800Y-79587000D03*
D49*
X110642300Y-82512000D03*
X110642300Y-81862000D03*
X110642300Y-81212000D03*
X110642300Y-80562000D03*
X110642300Y-79912000D03*
X110642300Y-79262000D03*
X110642300Y-78612000D03*
X110642300Y-77962000D03*
X110642300Y-77312000D03*
X110642300Y-76662000D03*
X116367300Y-76662000D03*
X116367300Y-77312000D03*
X116367300Y-77962000D03*
X116367300Y-78612000D03*
X116367300Y-79262000D03*
X116367300Y-79912000D03*
X116367300Y-80562000D03*
X116367300Y-81212000D03*
X116367300Y-81862000D03*
X116367300Y-82512000D03*
D38*
X117868100Y-62287150D03*
X117868100Y-60462150D03*
D39*
X104513200Y-77431900D03*
X104513200Y-79506900D03*
D50*
X117868100Y-66500750D03*
X117868100Y-64500750D03*
D19*
X119804000Y-76886800D03*
X119804000Y-74811800D03*
M02*
