%TF.GenerationSoftware,KiCad,Pcbnew,(6.0.0)*%
%TF.CreationDate,2022-11-20T21:00:10+02:00*%
%TF.ProjectId,djiFriend,646a6946-7269-4656-9e64-2e6b69636164,rev?*%
%TF.SameCoordinates,Original*%
%TF.FileFunction,Legend,Top*%
%TF.FilePolarity,Positive*%
%FSLAX46Y46*%
G04 Gerber Fmt 4.6, Leading zero omitted, Abs format (unit mm)*
G04 Created by KiCad (PCBNEW (6.0.0)) date 2022-11-20 21:00:10*
%MOMM*%
%LPD*%
G01*
G04 APERTURE LIST*
G04 Aperture macros list*
%AMRoundRect*
0 Rectangle with rounded corners*
0 $1 Rounding radius*
0 $2 $3 $4 $5 $6 $7 $8 $9 X,Y pos of 4 corners*
0 Add a 4 corners polygon primitive as box body*
4,1,4,$2,$3,$4,$5,$6,$7,$8,$9,$2,$3,0*
0 Add four circle primitives for the rounded corners*
1,1,$1+$1,$2,$3*
1,1,$1+$1,$4,$5*
1,1,$1+$1,$6,$7*
1,1,$1+$1,$8,$9*
0 Add four rect primitives between the rounded corners*
20,1,$1+$1,$2,$3,$4,$5,0*
20,1,$1+$1,$4,$5,$6,$7,0*
20,1,$1+$1,$6,$7,$8,$9,0*
20,1,$1+$1,$8,$9,$2,$3,0*%
G04 Aperture macros list end*
%ADD10C,0.203200*%
%ADD11C,0.150000*%
%ADD12C,0.254000*%
%ADD13C,0.120000*%
%ADD14C,0.100000*%
%ADD15C,0.200000*%
%ADD16C,1.700000*%
%ADD17C,1.540000*%
%ADD18C,1.950000*%
%ADD19C,1.500000*%
%ADD20C,3.200000*%
%ADD21R,1.700000X1.700000*%
%ADD22R,1.800000X1.800000*%
%ADD23C,1.800000*%
%ADD24RoundRect,0.250000X-0.625000X0.350000X-0.625000X-0.350000X0.625000X-0.350000X0.625000X0.350000X0*%
%ADD25O,1.750000X1.200000*%
%ADD26R,1.350000X1.350000*%
%ADD27O,1.350000X1.350000*%
%ADD28O,0.950000X1.250000*%
%ADD29O,1.550000X0.890000*%
G04 APERTURE END LIST*
D10*
X73762871Y-83545771D02*
X74688157Y-83545771D01*
X74797014Y-83600200D01*
X74851442Y-83654628D01*
X74905871Y-83763485D01*
X74905871Y-83926771D01*
X74851442Y-84035628D01*
X74470442Y-83545771D02*
X74524871Y-83654628D01*
X74524871Y-83872342D01*
X74470442Y-83981200D01*
X74416014Y-84035628D01*
X74307157Y-84090057D01*
X73980585Y-84090057D01*
X73871728Y-84035628D01*
X73817300Y-83981200D01*
X73762871Y-83872342D01*
X73762871Y-83654628D01*
X73817300Y-83545771D01*
X74524871Y-83001485D02*
X73762871Y-83001485D01*
X73381871Y-83001485D02*
X73436300Y-83055914D01*
X73490728Y-83001485D01*
X73436300Y-82947057D01*
X73381871Y-83001485D01*
X73490728Y-83001485D01*
X73762871Y-82620485D02*
X73762871Y-82185057D01*
X73381871Y-82457200D02*
X74361585Y-82457200D01*
X74470442Y-82402771D01*
X74524871Y-82293914D01*
X74524871Y-82185057D01*
X74524871Y-81804057D02*
X73381871Y-81804057D01*
X74524871Y-81314200D02*
X73926157Y-81314200D01*
X73817300Y-81368628D01*
X73762871Y-81477485D01*
X73762871Y-81640771D01*
X73817300Y-81749628D01*
X73871728Y-81804057D01*
X73762871Y-80280057D02*
X74524871Y-80280057D01*
X73762871Y-80769914D02*
X74361585Y-80769914D01*
X74470442Y-80715485D01*
X74524871Y-80606628D01*
X74524871Y-80443342D01*
X74470442Y-80334485D01*
X74416014Y-80280057D01*
X74524871Y-79735771D02*
X73381871Y-79735771D01*
X73817300Y-79735771D02*
X73762871Y-79626914D01*
X73762871Y-79409200D01*
X73817300Y-79300342D01*
X73871728Y-79245914D01*
X73980585Y-79191485D01*
X74307157Y-79191485D01*
X74416014Y-79245914D01*
X74470442Y-79300342D01*
X74524871Y-79409200D01*
X74524871Y-79626914D01*
X74470442Y-79735771D01*
X74416014Y-78701628D02*
X74470442Y-78647200D01*
X74524871Y-78701628D01*
X74470442Y-78756057D01*
X74416014Y-78701628D01*
X74524871Y-78701628D01*
X74470442Y-77667485D02*
X74524871Y-77776342D01*
X74524871Y-77994057D01*
X74470442Y-78102914D01*
X74416014Y-78157342D01*
X74307157Y-78211771D01*
X73980585Y-78211771D01*
X73871728Y-78157342D01*
X73817300Y-78102914D01*
X73762871Y-77994057D01*
X73762871Y-77776342D01*
X73817300Y-77667485D01*
X74524871Y-77014342D02*
X74470442Y-77123200D01*
X74416014Y-77177628D01*
X74307157Y-77232057D01*
X73980585Y-77232057D01*
X73871728Y-77177628D01*
X73817300Y-77123200D01*
X73762871Y-77014342D01*
X73762871Y-76851057D01*
X73817300Y-76742200D01*
X73871728Y-76687771D01*
X73980585Y-76633342D01*
X74307157Y-76633342D01*
X74416014Y-76687771D01*
X74470442Y-76742200D01*
X74524871Y-76851057D01*
X74524871Y-77014342D01*
X74524871Y-76143485D02*
X73762871Y-76143485D01*
X73871728Y-76143485D02*
X73817300Y-76089057D01*
X73762871Y-75980200D01*
X73762871Y-75816914D01*
X73817300Y-75708057D01*
X73926157Y-75653628D01*
X74524871Y-75653628D01*
X73926157Y-75653628D02*
X73817300Y-75599200D01*
X73762871Y-75490342D01*
X73762871Y-75327057D01*
X73817300Y-75218200D01*
X73926157Y-75163771D01*
X74524871Y-75163771D01*
X73327442Y-73803057D02*
X74797014Y-74782771D01*
X73762871Y-73585342D02*
X73762871Y-73149914D01*
X73381871Y-73422057D02*
X74361585Y-73422057D01*
X74470442Y-73367628D01*
X74524871Y-73258771D01*
X74524871Y-73149914D01*
X74524871Y-72768914D02*
X73381871Y-72768914D01*
X74524871Y-72279057D02*
X73926157Y-72279057D01*
X73817300Y-72333485D01*
X73762871Y-72442342D01*
X73762871Y-72605628D01*
X73817300Y-72714485D01*
X73871728Y-72768914D01*
X74470442Y-71299342D02*
X74524871Y-71408200D01*
X74524871Y-71625914D01*
X74470442Y-71734771D01*
X74361585Y-71789200D01*
X73926157Y-71789200D01*
X73817300Y-71734771D01*
X73762871Y-71625914D01*
X73762871Y-71408200D01*
X73817300Y-71299342D01*
X73926157Y-71244914D01*
X74035014Y-71244914D01*
X74143871Y-71789200D01*
X74524871Y-70591771D02*
X74470442Y-70700628D01*
X74361585Y-70755057D01*
X73381871Y-70755057D01*
X74524871Y-69993057D02*
X74470442Y-70101914D01*
X74416014Y-70156342D01*
X74307157Y-70210771D01*
X73980585Y-70210771D01*
X73871728Y-70156342D01*
X73817300Y-70101914D01*
X73762871Y-69993057D01*
X73762871Y-69829771D01*
X73817300Y-69720914D01*
X73871728Y-69666485D01*
X73980585Y-69612057D01*
X74307157Y-69612057D01*
X74416014Y-69666485D01*
X74470442Y-69720914D01*
X74524871Y-69829771D01*
X74524871Y-69993057D01*
X73762871Y-68632342D02*
X74524871Y-68632342D01*
X73762871Y-69122200D02*
X74361585Y-69122200D01*
X74470442Y-69067771D01*
X74524871Y-68958914D01*
X74524871Y-68795628D01*
X74470442Y-68686771D01*
X74416014Y-68632342D01*
X74524871Y-68088057D02*
X73381871Y-68088057D01*
X74089442Y-67979200D02*
X74524871Y-67652628D01*
X73762871Y-67652628D02*
X74198300Y-68088057D01*
X74524871Y-66999485D02*
X74470442Y-67108342D01*
X74416014Y-67162771D01*
X74307157Y-67217200D01*
X73980585Y-67217200D01*
X73871728Y-67162771D01*
X73817300Y-67108342D01*
X73762871Y-66999485D01*
X73762871Y-66836200D01*
X73817300Y-66727342D01*
X73871728Y-66672914D01*
X73980585Y-66618485D01*
X74307157Y-66618485D01*
X74416014Y-66672914D01*
X74470442Y-66727342D01*
X74524871Y-66836200D01*
X74524871Y-66999485D01*
X73762871Y-65638771D02*
X74524871Y-65638771D01*
X73762871Y-66128628D02*
X74361585Y-66128628D01*
X74470442Y-66074200D01*
X74524871Y-65965342D01*
X74524871Y-65802057D01*
X74470442Y-65693200D01*
X74416014Y-65638771D01*
X80849471Y-71531571D02*
X81665900Y-71531571D01*
X81829185Y-71586000D01*
X81938042Y-71694857D01*
X81992471Y-71858142D01*
X81992471Y-71967000D01*
X81992471Y-70443000D02*
X81992471Y-70987285D01*
X80849471Y-70987285D01*
X81883614Y-69408857D02*
X81938042Y-69463285D01*
X81992471Y-69626571D01*
X81992471Y-69735428D01*
X81938042Y-69898714D01*
X81829185Y-70007571D01*
X81720328Y-70062000D01*
X81502614Y-70116428D01*
X81339328Y-70116428D01*
X81121614Y-70062000D01*
X81012757Y-70007571D01*
X80903900Y-69898714D01*
X80849471Y-69735428D01*
X80849471Y-69626571D01*
X80903900Y-69463285D01*
X80958328Y-69408857D01*
X80849471Y-68592428D02*
X81665900Y-68592428D01*
X81829185Y-68646857D01*
X81938042Y-68755714D01*
X81992471Y-68919000D01*
X81992471Y-69027857D01*
X81992471Y-67503857D02*
X81992471Y-68048142D01*
X80849471Y-68048142D01*
X81883614Y-66469714D02*
X81938042Y-66524142D01*
X81992471Y-66687428D01*
X81992471Y-66796285D01*
X81938042Y-66959571D01*
X81829185Y-67068428D01*
X81720328Y-67122857D01*
X81502614Y-67177285D01*
X81339328Y-67177285D01*
X81121614Y-67122857D01*
X81012757Y-67068428D01*
X80903900Y-66959571D01*
X80849471Y-66796285D01*
X80849471Y-66687428D01*
X80903900Y-66524142D01*
X80958328Y-66469714D01*
X80849471Y-65653285D02*
X81665900Y-65653285D01*
X81829185Y-65707714D01*
X81938042Y-65816571D01*
X81992471Y-65979857D01*
X81992471Y-66088714D01*
X81992471Y-64564714D02*
X81992471Y-65109000D01*
X80849471Y-65109000D01*
X81883614Y-63530571D02*
X81938042Y-63585000D01*
X81992471Y-63748285D01*
X81992471Y-63857142D01*
X81938042Y-64020428D01*
X81829185Y-64129285D01*
X81720328Y-64183714D01*
X81502614Y-64238142D01*
X81339328Y-64238142D01*
X81121614Y-64183714D01*
X81012757Y-64129285D01*
X80903900Y-64020428D01*
X80849471Y-63857142D01*
X80849471Y-63748285D01*
X80903900Y-63585000D01*
X80958328Y-63530571D01*
X80849471Y-62714142D02*
X81665900Y-62714142D01*
X81829185Y-62768571D01*
X81938042Y-62877428D01*
X81992471Y-63040714D01*
X81992471Y-63149571D01*
X81992471Y-61625571D02*
X81992471Y-62169857D01*
X80849471Y-62169857D01*
X81883614Y-60591428D02*
X81938042Y-60645857D01*
X81992471Y-60809142D01*
X81992471Y-60918000D01*
X81938042Y-61081285D01*
X81829185Y-61190142D01*
X81720328Y-61244571D01*
X81502614Y-61299000D01*
X81339328Y-61299000D01*
X81121614Y-61244571D01*
X81012757Y-61190142D01*
X80903900Y-61081285D01*
X80849471Y-60918000D01*
X80849471Y-60809142D01*
X80903900Y-60645857D01*
X80958328Y-60591428D01*
X71273673Y-83462302D02*
X70130673Y-83462302D01*
X71219244Y-83462302D02*
X71273673Y-83571159D01*
X71273673Y-83788873D01*
X71219244Y-83897730D01*
X71164816Y-83952159D01*
X71055959Y-84006588D01*
X70729387Y-84006588D01*
X70620530Y-83952159D01*
X70566102Y-83897730D01*
X70511673Y-83788873D01*
X70511673Y-83571159D01*
X70566102Y-83462302D01*
X70511673Y-82918016D02*
X71491387Y-82918016D01*
X71600244Y-82972445D01*
X71654673Y-83081302D01*
X71654673Y-83135730D01*
X70130673Y-82918016D02*
X70185102Y-82972445D01*
X70239530Y-82918016D01*
X70185102Y-82863588D01*
X70130673Y-82918016D01*
X70239530Y-82918016D01*
X71273673Y-82373730D02*
X70511673Y-82373730D01*
X70130673Y-82373730D02*
X70185102Y-82428159D01*
X70239530Y-82373730D01*
X70185102Y-82319302D01*
X70130673Y-82373730D01*
X70239530Y-82373730D01*
X70674959Y-81448445D02*
X70674959Y-81829445D01*
X71273673Y-81829445D02*
X70130673Y-81829445D01*
X70130673Y-81285159D01*
X71273673Y-80849730D02*
X70511673Y-80849730D01*
X70729387Y-80849730D02*
X70620530Y-80795302D01*
X70566102Y-80740873D01*
X70511673Y-80632016D01*
X70511673Y-80523159D01*
X71273673Y-80142159D02*
X70511673Y-80142159D01*
X70130673Y-80142159D02*
X70185102Y-80196588D01*
X70239530Y-80142159D01*
X70185102Y-80087730D01*
X70130673Y-80142159D01*
X70239530Y-80142159D01*
X71219244Y-79162445D02*
X71273673Y-79271302D01*
X71273673Y-79489016D01*
X71219244Y-79597873D01*
X71110387Y-79652302D01*
X70674959Y-79652302D01*
X70566102Y-79597873D01*
X70511673Y-79489016D01*
X70511673Y-79271302D01*
X70566102Y-79162445D01*
X70674959Y-79108016D01*
X70783816Y-79108016D01*
X70892673Y-79652302D01*
X70511673Y-78618159D02*
X71273673Y-78618159D01*
X70620530Y-78618159D02*
X70566102Y-78563730D01*
X70511673Y-78454873D01*
X70511673Y-78291588D01*
X70566102Y-78182730D01*
X70674959Y-78128302D01*
X71273673Y-78128302D01*
X71273673Y-77094159D02*
X70130673Y-77094159D01*
X71219244Y-77094159D02*
X71273673Y-77203016D01*
X71273673Y-77420730D01*
X71219244Y-77529588D01*
X71164816Y-77584016D01*
X71055959Y-77638445D01*
X70729387Y-77638445D01*
X70620530Y-77584016D01*
X70566102Y-77529588D01*
X70511673Y-77420730D01*
X70511673Y-77203016D01*
X70566102Y-77094159D01*
X70511673Y-75787873D02*
X71273673Y-75515730D01*
X70511673Y-75243588D01*
X71273673Y-74209445D02*
X71273673Y-74862588D01*
X71273673Y-74536016D02*
X70130673Y-74536016D01*
X70293959Y-74644873D01*
X70402816Y-74753730D01*
X70457244Y-74862588D01*
X71164816Y-73719588D02*
X71219244Y-73665159D01*
X71273673Y-73719588D01*
X71219244Y-73774016D01*
X71164816Y-73719588D01*
X71273673Y-73719588D01*
X71273673Y-72576588D02*
X71273673Y-73229730D01*
X71273673Y-72903159D02*
X70130673Y-72903159D01*
X70293959Y-73012016D01*
X70402816Y-73120873D01*
X70457244Y-73229730D01*
D11*
X135895066Y-59392361D02*
X136037923Y-59439980D01*
X136276019Y-59439980D01*
X136371257Y-59392361D01*
X136418876Y-59344742D01*
X136466495Y-59249504D01*
X136466495Y-59154266D01*
X136418876Y-59059028D01*
X136371257Y-59011409D01*
X136276019Y-58963790D01*
X136085542Y-58916171D01*
X135990304Y-58868552D01*
X135942685Y-58820933D01*
X135895066Y-58725695D01*
X135895066Y-58630457D01*
X135942685Y-58535219D01*
X135990304Y-58487600D01*
X136085542Y-58439980D01*
X136323638Y-58439980D01*
X136466495Y-58487600D01*
X136799828Y-58439980D02*
X137037923Y-59439980D01*
X137228400Y-58725695D01*
X137418876Y-59439980D01*
X137656971Y-58439980D01*
X137990304Y-58535219D02*
X138037923Y-58487600D01*
X138133161Y-58439980D01*
X138371257Y-58439980D01*
X138466495Y-58487600D01*
X138514114Y-58535219D01*
X138561733Y-58630457D01*
X138561733Y-58725695D01*
X138514114Y-58868552D01*
X137942685Y-59439980D01*
X138561733Y-59439980D01*
D12*
X66281247Y-67909333D02*
X66341723Y-67727904D01*
X66341723Y-67425523D01*
X66281247Y-67304571D01*
X66220771Y-67244095D01*
X66099819Y-67183619D01*
X65978866Y-67183619D01*
X65857914Y-67244095D01*
X65797438Y-67304571D01*
X65736961Y-67425523D01*
X65676485Y-67667428D01*
X65616009Y-67788380D01*
X65555533Y-67848857D01*
X65434580Y-67909333D01*
X65313628Y-67909333D01*
X65192676Y-67848857D01*
X65132200Y-67788380D01*
X65071723Y-67667428D01*
X65071723Y-67365047D01*
X65132200Y-67183619D01*
X65071723Y-66760285D02*
X66341723Y-66457904D01*
X65434580Y-66216000D01*
X66341723Y-65974095D01*
X65071723Y-65671714D01*
X66341723Y-64522666D02*
X66341723Y-65248380D01*
X66341723Y-64885523D02*
X65071723Y-64885523D01*
X65253152Y-65006476D01*
X65374104Y-65127428D01*
X65434580Y-65248380D01*
D11*
X93203780Y-69411695D02*
X93203780Y-68840266D01*
X94203780Y-69125980D02*
X93203780Y-69125980D01*
X93203780Y-68602171D02*
X94203780Y-67935504D01*
X93203780Y-67935504D02*
X94203780Y-68602171D01*
X94203780Y-67030742D02*
X94203780Y-67602171D01*
X94203780Y-67316457D02*
X93203780Y-67316457D01*
X93346638Y-67411695D01*
X93441876Y-67506933D01*
X93489495Y-67602171D01*
X94229180Y-72169257D02*
X93752990Y-72502590D01*
X94229180Y-72740685D02*
X93229180Y-72740685D01*
X93229180Y-72359733D01*
X93276800Y-72264495D01*
X93324419Y-72216876D01*
X93419657Y-72169257D01*
X93562514Y-72169257D01*
X93657752Y-72216876D01*
X93705371Y-72264495D01*
X93752990Y-72359733D01*
X93752990Y-72740685D01*
X93229180Y-71835923D02*
X94229180Y-71169257D01*
X93229180Y-71169257D02*
X94229180Y-71835923D01*
X94229180Y-70264495D02*
X94229180Y-70835923D01*
X94229180Y-70550209D02*
X93229180Y-70550209D01*
X93372038Y-70645447D01*
X93467276Y-70740685D01*
X93514895Y-70835923D01*
X135113704Y-71948580D02*
X135113704Y-70948580D01*
X135351800Y-70948580D01*
X135494657Y-70996200D01*
X135589895Y-71091438D01*
X135637514Y-71186676D01*
X135685133Y-71377152D01*
X135685133Y-71520009D01*
X135637514Y-71710485D01*
X135589895Y-71805723D01*
X135494657Y-71900961D01*
X135351800Y-71948580D01*
X135113704Y-71948580D01*
X136018466Y-70948580D02*
X136637514Y-70948580D01*
X136304180Y-71329533D01*
X136447038Y-71329533D01*
X136542276Y-71377152D01*
X136589895Y-71424771D01*
X136637514Y-71520009D01*
X136637514Y-71758104D01*
X136589895Y-71853342D01*
X136542276Y-71900961D01*
X136447038Y-71948580D01*
X136161323Y-71948580D01*
X136066085Y-71900961D01*
X136018466Y-71853342D01*
X135118704Y-79568580D02*
X135118704Y-78568580D01*
X135356800Y-78568580D01*
X135499657Y-78616200D01*
X135594895Y-78711438D01*
X135642514Y-78806676D01*
X135690133Y-78997152D01*
X135690133Y-79140009D01*
X135642514Y-79330485D01*
X135594895Y-79425723D01*
X135499657Y-79520961D01*
X135356800Y-79568580D01*
X135118704Y-79568580D01*
X136547276Y-78901914D02*
X136547276Y-79568580D01*
X136309180Y-78520961D02*
X136071085Y-79235247D01*
X136690133Y-79235247D01*
X74171380Y-60235333D02*
X74885666Y-60235333D01*
X75028523Y-60282952D01*
X75123761Y-60378190D01*
X75171380Y-60521047D01*
X75171380Y-60616285D01*
X75171380Y-59235333D02*
X75171380Y-59806761D01*
X75171380Y-59521047D02*
X74171380Y-59521047D01*
X74314238Y-59616285D01*
X74409476Y-59711523D01*
X74457095Y-59806761D01*
D13*
X138517600Y-57002200D02*
X135837600Y-57002200D01*
X134057600Y-56852200D02*
X134057600Y-50912200D01*
X135837600Y-50762200D02*
X138517600Y-50762200D01*
X140297600Y-56852200D02*
X140297600Y-50912200D01*
X138591814Y-53882200D02*
G75*
G03*
X138591814Y-53882200I-1414214J0D01*
G01*
D14*
X59587200Y-69771000D02*
X59587200Y-62661000D01*
D15*
X68137200Y-61866000D02*
X68137200Y-61866000D01*
D14*
X59587200Y-62661000D02*
X68937200Y-62661000D01*
X68937200Y-69771000D02*
X59587200Y-69771000D01*
D15*
X67937200Y-61866000D02*
X67937200Y-61866000D01*
D14*
X71947200Y-62711000D02*
X71947200Y-69716000D01*
D15*
X68137200Y-61866000D02*
G75*
G03*
X67937200Y-61866000I-100000J0D01*
G01*
X67937200Y-61866000D02*
G75*
G03*
X68137200Y-61866000I100000J0D01*
G01*
D13*
X96454000Y-68249800D02*
G75*
G03*
X96454000Y-68249800I-950000J0D01*
G01*
X96479400Y-71526400D02*
G75*
G03*
X96479400Y-71526400I-950000J0D01*
G01*
D15*
X76038800Y-80751800D02*
X76038800Y-51751800D01*
X78538800Y-49251800D02*
X130538800Y-49251800D01*
X133038800Y-80751800D02*
X133038800Y-51751800D01*
X78538800Y-83251800D02*
X130538800Y-83251800D01*
X78538800Y-49251800D02*
G75*
G03*
X76038800Y-51751800I0J-2500000D01*
G01*
X133038800Y-51751800D02*
G75*
G03*
X130538800Y-49251800I-2500000J0D01*
G01*
X76038800Y-80751800D02*
G75*
G03*
X78538800Y-83251800I2500000J0D01*
G01*
X130538800Y-83251800D02*
G75*
G03*
X133038800Y-80751800I0J2500000D01*
G01*
D13*
X134291800Y-75536200D02*
X134291800Y-75692200D01*
X134291800Y-73220200D02*
X134291800Y-73376200D01*
X134810839Y-75536200D02*
G75*
G03*
X136892930Y-75536037I1040961J1080000D01*
G01*
X134291800Y-75691716D02*
G75*
G03*
X137524135Y-75534808I1560000J1235517D01*
G01*
X136892930Y-73376363D02*
G75*
G03*
X134810839Y-73376200I-1041130J-1079837D01*
G01*
X137524135Y-73377592D02*
G75*
G03*
X134291800Y-73220684I-1672335J-1078609D01*
G01*
X134296800Y-83156200D02*
X134296800Y-83312200D01*
X134296800Y-80840200D02*
X134296800Y-80996200D01*
X134296800Y-83311716D02*
G75*
G03*
X137529135Y-83154808I1560000J1235517D01*
G01*
X136897930Y-80996363D02*
G75*
G03*
X134815839Y-80996200I-1041130J-1079837D01*
G01*
X137529135Y-80997592D02*
G75*
G03*
X134296800Y-80840684I-1672335J-1078609D01*
G01*
X134815839Y-83156200D02*
G75*
G03*
X136897930Y-83156037I1040961J1080000D01*
G01*
X73422200Y-58612000D02*
X73422200Y-57692000D01*
X73422200Y-48492000D02*
X73422200Y-49412000D01*
X67202200Y-51052000D02*
X71562200Y-51052000D01*
X75022200Y-49412000D02*
X75022200Y-48492000D01*
X71062200Y-57852000D02*
X69462200Y-57852000D01*
X73422200Y-49692000D02*
X74637200Y-49692000D01*
X73422200Y-49692000D02*
X73422200Y-49412000D01*
X75022200Y-58612000D02*
X75022200Y-57692000D01*
X75022200Y-57692000D02*
X73422200Y-57692000D01*
X69462200Y-49252000D02*
X69462200Y-50252000D01*
X69462200Y-56852000D02*
X71062200Y-56852000D01*
X73422200Y-49412000D02*
X75022200Y-49412000D01*
X73422200Y-57692000D02*
X73422200Y-57412000D01*
X71062200Y-56852000D02*
X71062200Y-57852000D01*
X69462200Y-57852000D02*
X69462200Y-56852000D01*
X69462200Y-49752000D02*
X67202200Y-49752000D01*
X71062200Y-50252000D02*
X71062200Y-49252000D01*
X67202200Y-58612000D02*
X75022200Y-58612000D01*
X67202200Y-48492000D02*
X67202200Y-58612000D01*
X71562200Y-51052000D02*
X71562200Y-56052000D01*
X69462200Y-50252000D02*
X71062200Y-50252000D01*
X69462200Y-50252000D02*
X67202200Y-50252000D01*
X71562200Y-56052000D02*
X67202200Y-56052000D01*
X71062200Y-49252000D02*
X69462200Y-49252000D01*
X75022200Y-48492000D02*
X67202200Y-48492000D01*
%LPC*%
D16*
X134927600Y-57132200D03*
X134927600Y-50632200D03*
X139427600Y-57132200D03*
X139427600Y-50632200D03*
D17*
X67937200Y-63966000D03*
X67937200Y-68466000D03*
D18*
X70427200Y-69721000D03*
X70427200Y-62711000D03*
D19*
X95529400Y-68249800D03*
X95529400Y-71526400D03*
D20*
X78630800Y-51773800D03*
X130538800Y-51751800D03*
X78538800Y-80751800D03*
X130538800Y-80751800D03*
D21*
X79038800Y-57361800D03*
D16*
X79038800Y-59901800D03*
X79038800Y-62441800D03*
X79038800Y-64981800D03*
X79038800Y-67521800D03*
X79038800Y-70061800D03*
X79038800Y-72601800D03*
X79038800Y-75141800D03*
D22*
X134581800Y-74456200D03*
D23*
X137121800Y-74456200D03*
D22*
X134586800Y-82076200D03*
D23*
X137126800Y-82076200D03*
D24*
X73562200Y-50552000D03*
D25*
X73562200Y-52552000D03*
X73562200Y-54552000D03*
X73562200Y-56552000D03*
D26*
X83412400Y-51062800D03*
D27*
X83412400Y-53062800D03*
X85412400Y-51062800D03*
X85412400Y-53062800D03*
X87412400Y-51062800D03*
X87412400Y-53062800D03*
D28*
X137138800Y-63752000D03*
D29*
X139838800Y-62752000D03*
D28*
X137138800Y-68752000D03*
D29*
X139838800Y-69752000D03*
G36*
X127069121Y-61894402D02*
G01*
X127115614Y-61948058D01*
X127127000Y-62000400D01*
X127127000Y-66041000D01*
X127106998Y-66109121D01*
X127053342Y-66155614D01*
X127001000Y-66167000D01*
X119861600Y-66167000D01*
X119793479Y-66146998D01*
X119746986Y-66093342D01*
X119735600Y-66041000D01*
X119735600Y-62000400D01*
X119755602Y-61932279D01*
X119809258Y-61885786D01*
X119861600Y-61874400D01*
X127001000Y-61874400D01*
X127069121Y-61894402D01*
G37*
G36*
X106622121Y-56712802D02*
G01*
X106668614Y-56766458D01*
X106680000Y-56818800D01*
X106680000Y-59868800D01*
X106659998Y-59936921D01*
X106606342Y-59983414D01*
X106554000Y-59994800D01*
X99643200Y-59994800D01*
X99575079Y-59974798D01*
X99528586Y-59921142D01*
X99517200Y-59868800D01*
X99517200Y-56818800D01*
X99537202Y-56750679D01*
X99590858Y-56704186D01*
X99643200Y-56692800D01*
X106554000Y-56692800D01*
X106622121Y-56712802D01*
G37*
G36*
X116324921Y-76118402D02*
G01*
X116371414Y-76172058D01*
X116382800Y-76224400D01*
X116382800Y-82957400D01*
X116362798Y-83025521D01*
X116309142Y-83072014D01*
X116256800Y-83083400D01*
X110768400Y-83083400D01*
X110700279Y-83063398D01*
X110653786Y-83009742D01*
X110642400Y-82957400D01*
X110642400Y-76224400D01*
X110662402Y-76156279D01*
X110716058Y-76109786D01*
X110768400Y-76098400D01*
X116256800Y-76098400D01*
X116324921Y-76118402D01*
G37*
M02*
