%TF.GenerationSoftware,KiCad,Pcbnew,(6.0.0)*%
%TF.CreationDate,2022-11-20T21:00:10+02:00*%
%TF.ProjectId,djiFriend,646a6946-7269-4656-9e64-2e6b69636164,rev?*%
%TF.SameCoordinates,Original*%
%TF.FileFunction,Copper,L1,Top*%
%TF.FilePolarity,Positive*%
%FSLAX46Y46*%
G04 Gerber Fmt 4.6, Leading zero omitted, Abs format (unit mm)*
G04 Created by KiCad (PCBNEW (6.0.0)) date 2022-11-20 21:00:10*
%MOMM*%
%LPD*%
G01*
G04 APERTURE LIST*
G04 Aperture macros list*
%AMRoundRect*
0 Rectangle with rounded corners*
0 $1 Rounding radius*
0 $2 $3 $4 $5 $6 $7 $8 $9 X,Y pos of 4 corners*
0 Add a 4 corners polygon primitive as box body*
4,1,4,$2,$3,$4,$5,$6,$7,$8,$9,$2,$3,0*
0 Add four circle primitives for the rounded corners*
1,1,$1+$1,$2,$3*
1,1,$1+$1,$4,$5*
1,1,$1+$1,$6,$7*
1,1,$1+$1,$8,$9*
0 Add four rect primitives between the rounded corners*
20,1,$1+$1,$2,$3,$4,$5,0*
20,1,$1+$1,$4,$5,$6,$7,0*
20,1,$1+$1,$6,$7,$8,$9,0*
20,1,$1+$1,$8,$9,$2,$3,0*%
G04 Aperture macros list end*
%TA.AperFunction,ComponentPad*%
%ADD10C,1.700000*%
%TD*%
%TA.AperFunction,ComponentPad*%
%ADD11C,1.540000*%
%TD*%
%TA.AperFunction,ComponentPad*%
%ADD12C,1.950000*%
%TD*%
%TA.AperFunction,SMDPad,CuDef*%
%ADD13C,1.500000*%
%TD*%
%TA.AperFunction,ComponentPad*%
%ADD14R,1.700000X1.700000*%
%TD*%
%TA.AperFunction,ComponentPad*%
%ADD15R,1.800000X1.800000*%
%TD*%
%TA.AperFunction,ComponentPad*%
%ADD16C,1.800000*%
%TD*%
%TA.AperFunction,ComponentPad*%
%ADD17RoundRect,0.250000X-0.625000X0.350000X-0.625000X-0.350000X0.625000X-0.350000X0.625000X0.350000X0*%
%TD*%
%TA.AperFunction,ComponentPad*%
%ADD18O,1.750000X1.200000*%
%TD*%
%TA.AperFunction,ComponentPad*%
%ADD19R,1.350000X1.350000*%
%TD*%
%TA.AperFunction,ComponentPad*%
%ADD20O,1.350000X1.350000*%
%TD*%
%TA.AperFunction,ComponentPad*%
%ADD21O,0.950000X1.250000*%
%TD*%
%TA.AperFunction,ComponentPad*%
%ADD22O,1.550000X0.890000*%
%TD*%
%TA.AperFunction,ViaPad*%
%ADD23C,0.500000*%
%TD*%
%TA.AperFunction,ViaPad*%
%ADD24C,0.800000*%
%TD*%
%TA.AperFunction,ViaPad*%
%ADD25C,0.600000*%
%TD*%
%TA.AperFunction,Conductor*%
%ADD26C,0.406400*%
%TD*%
%TA.AperFunction,Conductor*%
%ADD27C,0.508000*%
%TD*%
%TA.AperFunction,Conductor*%
%ADD28C,0.254000*%
%TD*%
G04 APERTURE END LIST*
D10*
X134927600Y-57132200D03*
X134927600Y-50632200D03*
X139427600Y-57132200D03*
X139427600Y-50632200D03*
D11*
X67937200Y-63966000D03*
X67937200Y-68466000D03*
D12*
X70427200Y-69721000D03*
X70427200Y-62711000D03*
D13*
X95529400Y-68249800D03*
X95529400Y-71526400D03*
D14*
X79038800Y-57361800D03*
D10*
X79038800Y-59901800D03*
X79038800Y-62441800D03*
X79038800Y-64981800D03*
X79038800Y-67521800D03*
X79038800Y-70061800D03*
X79038800Y-72601800D03*
X79038800Y-75141800D03*
D15*
X134581800Y-74456200D03*
D16*
X137121800Y-74456200D03*
D15*
X134586800Y-82076200D03*
D16*
X137126800Y-82076200D03*
D17*
X73562200Y-50552000D03*
D18*
X73562200Y-52552000D03*
X73562200Y-54552000D03*
X73562200Y-56552000D03*
D19*
X83412400Y-51062800D03*
D20*
X83412400Y-53062800D03*
X85412400Y-51062800D03*
X85412400Y-53062800D03*
X87412400Y-51062800D03*
X87412400Y-53062800D03*
D21*
X137138800Y-63752000D03*
D22*
X139838800Y-62752000D03*
D21*
X137138800Y-68752000D03*
D22*
X139838800Y-69752000D03*
D23*
X117899000Y-79891800D03*
D24*
X120693002Y-63991388D03*
X114724000Y-82381000D03*
X123393200Y-66167000D03*
D23*
X102735200Y-78113800D03*
D24*
X112285600Y-76818400D03*
D23*
X105435400Y-59690000D03*
D24*
X91660800Y-70697000D03*
X91686200Y-62264200D03*
D23*
X87927000Y-77072400D03*
X120167400Y-65735200D03*
D24*
X112260200Y-82381000D03*
D23*
X121734400Y-83879600D03*
D24*
X91686200Y-65972600D03*
D23*
X120167400Y-62280800D03*
X106189600Y-71408200D03*
X123379900Y-63992750D03*
D24*
X98722000Y-57920800D03*
X114724000Y-76818400D03*
D23*
X100787200Y-59690000D03*
D24*
X100881000Y-54745800D03*
X101008000Y-70265200D03*
X86377600Y-54745800D03*
X91679799Y-74335601D03*
D25*
X106138800Y-79510800D03*
X108958200Y-80730000D03*
D24*
X127500200Y-77631200D03*
X130446600Y-77631200D03*
X65752802Y-73761600D03*
D23*
X99865000Y-74557800D03*
X108094600Y-76793000D03*
X88460400Y-66277400D03*
X88536600Y-65515400D03*
X81627800Y-55685600D03*
X85539400Y-67903000D03*
X84599600Y-68690400D03*
X76065200Y-54415600D03*
X85539400Y-66277400D03*
X85412400Y-65236000D03*
X84650400Y-63356400D03*
D24*
X84650400Y-57869000D03*
D23*
X112057000Y-59216200D03*
X110888600Y-62670600D03*
X88511200Y-71078000D03*
X111447400Y-60664000D03*
X93980000Y-70307200D03*
X93980000Y-69469000D03*
D26*
X100855600Y-54745800D02*
X100881000Y-54745800D01*
X101008000Y-70265200D02*
X96937599Y-74335601D01*
X85095400Y-54745800D02*
X86377600Y-54745800D01*
X86377600Y-54745800D02*
X100855600Y-54745800D01*
X96937599Y-74335601D02*
X91679799Y-74335601D01*
X83412400Y-53062800D02*
X85095400Y-54745800D01*
X108958200Y-80730000D02*
X107358000Y-80730000D01*
X127500200Y-77631200D02*
X130446600Y-77631200D01*
X107358000Y-80730000D02*
X106138800Y-79510800D01*
D27*
X65752800Y-60361400D02*
X73562200Y-52552000D01*
X65752802Y-60361398D02*
X65752802Y-73761600D01*
D28*
X102100200Y-76793000D02*
X108094600Y-76793000D01*
X99865000Y-74557800D02*
X102100200Y-76793000D01*
X77248000Y-54237800D02*
X73562200Y-50552000D01*
X79189400Y-54237800D02*
X77248000Y-54237800D01*
X80815000Y-55863400D02*
X79189400Y-54237800D01*
X88460400Y-66277400D02*
X80815000Y-58632000D01*
X80815000Y-58632000D02*
X80815000Y-55863400D01*
X81653200Y-56727000D02*
X81627800Y-56701600D01*
X88536600Y-63610400D02*
X81780200Y-56854000D01*
X88536600Y-65515400D02*
X88536600Y-63610400D01*
X81780200Y-56854000D02*
X81653200Y-56727000D01*
X81627800Y-56701600D02*
X81627800Y-55685600D01*
X79039000Y-75142000D02*
X79545000Y-75142000D01*
X79038800Y-75141800D02*
X79039000Y-75142000D01*
X85539400Y-69147600D02*
X85539400Y-67903000D01*
X79545000Y-75142000D02*
X85539400Y-69147600D01*
X82950200Y-68690400D02*
X79038800Y-72601800D01*
X84599600Y-68690400D02*
X82950200Y-68690400D01*
X79038800Y-64981800D02*
X76065200Y-62008200D01*
X76065200Y-62008200D02*
X76065200Y-54415600D01*
X85539400Y-66277400D02*
X82874400Y-66277400D01*
X82874400Y-66277400D02*
X79038800Y-62441800D01*
X85412400Y-65236000D02*
X85412400Y-64118400D01*
X81983400Y-52078800D02*
X81983400Y-54415600D01*
X83412400Y-51062800D02*
X82999400Y-51062800D01*
X84650400Y-57082600D02*
X84650400Y-57869000D01*
X82999400Y-51062800D02*
X81983400Y-52078800D01*
X81983400Y-54415600D02*
X84650400Y-57082600D01*
X85412400Y-64118400D02*
X84650400Y-63356400D01*
X112057000Y-61502200D02*
X112057000Y-59216200D01*
X110888600Y-62670600D02*
X112057000Y-61502200D01*
X98925200Y-60664000D02*
X88511200Y-71078000D01*
X111447400Y-60664000D02*
X98925200Y-60664000D01*
X93980000Y-70307200D02*
X94310200Y-70307200D01*
X94310200Y-70307200D02*
X95529400Y-71526400D01*
X94310200Y-69469000D02*
X95529400Y-68249800D01*
X93980000Y-69469000D02*
X94310200Y-69469000D01*
%TA.AperFunction,Conductor*%
G36*
X140726521Y-47196602D02*
G01*
X140773014Y-47250258D01*
X140784400Y-47302600D01*
X140784400Y-49802506D01*
X140764398Y-49870627D01*
X140710742Y-49917120D01*
X140640468Y-49927224D01*
X140575888Y-49897730D01*
X140571670Y-49892877D01*
X140549977Y-49874195D01*
X140540412Y-49878598D01*
X139799622Y-50619388D01*
X139792008Y-50633332D01*
X139792139Y-50635165D01*
X139796390Y-50641780D01*
X140538074Y-51383464D01*
X140550084Y-51390023D01*
X140576720Y-51369675D01*
X140578293Y-51371735D01*
X140612072Y-51345404D01*
X140682776Y-51338958D01*
X140745740Y-51371761D01*
X140780974Y-51433398D01*
X140784400Y-51462578D01*
X140784400Y-56302506D01*
X140764398Y-56370627D01*
X140710742Y-56417120D01*
X140640468Y-56427224D01*
X140575888Y-56397730D01*
X140571670Y-56392877D01*
X140549977Y-56374195D01*
X140540412Y-56378598D01*
X139799622Y-57119388D01*
X139792008Y-57133332D01*
X139792139Y-57135165D01*
X139796390Y-57141780D01*
X140538074Y-57883464D01*
X140550084Y-57890023D01*
X140576720Y-57869675D01*
X140578293Y-57871735D01*
X140612072Y-57845404D01*
X140682776Y-57838958D01*
X140745740Y-57871761D01*
X140780974Y-57933398D01*
X140784400Y-57962578D01*
X140784400Y-61788161D01*
X140764398Y-61856282D01*
X140710742Y-61902775D01*
X140640468Y-61912879D01*
X140608359Y-61903798D01*
X140464305Y-61841460D01*
X140452193Y-61837618D01*
X140273666Y-61800323D01*
X140264134Y-61799085D01*
X140260911Y-61799000D01*
X140110915Y-61799000D01*
X140095676Y-61803475D01*
X140094471Y-61804865D01*
X140092800Y-61812548D01*
X140092800Y-63686885D01*
X140097275Y-63702124D01*
X140098665Y-63703329D01*
X140106348Y-63705000D01*
X140213992Y-63705000D01*
X140220367Y-63704677D01*
X140355067Y-63690995D01*
X140367507Y-63688441D01*
X140540064Y-63634365D01*
X140551747Y-63629358D01*
X140597313Y-63604100D01*
X140666590Y-63588568D01*
X140733266Y-63612956D01*
X140776173Y-63669520D01*
X140784400Y-63714302D01*
X140784400Y-68788161D01*
X140764398Y-68856282D01*
X140710742Y-68902775D01*
X140640468Y-68912879D01*
X140608359Y-68903798D01*
X140464305Y-68841460D01*
X140452193Y-68837618D01*
X140273666Y-68800323D01*
X140264134Y-68799085D01*
X140260911Y-68799000D01*
X140110915Y-68799000D01*
X140095676Y-68803475D01*
X140094471Y-68804865D01*
X140092800Y-68812548D01*
X140092800Y-70686885D01*
X140097275Y-70702124D01*
X140098665Y-70703329D01*
X140106348Y-70705000D01*
X140213992Y-70705000D01*
X140220367Y-70704677D01*
X140355067Y-70690995D01*
X140367507Y-70688441D01*
X140540064Y-70634365D01*
X140551747Y-70629358D01*
X140597313Y-70604100D01*
X140666590Y-70588568D01*
X140733266Y-70612956D01*
X140776173Y-70669520D01*
X140784400Y-70714302D01*
X140784400Y-84871200D01*
X140764398Y-84939321D01*
X140710742Y-84985814D01*
X140658400Y-84997200D01*
X65066000Y-84997200D01*
X64997879Y-84977198D01*
X64951386Y-84923542D01*
X64940000Y-84871200D01*
X64940000Y-83024334D01*
X133178300Y-83024334D01*
X133185055Y-83086516D01*
X133236185Y-83222905D01*
X133323539Y-83339461D01*
X133440095Y-83426815D01*
X133576484Y-83477945D01*
X133638666Y-83484700D01*
X135534934Y-83484700D01*
X135597116Y-83477945D01*
X135733505Y-83426815D01*
X135850061Y-83339461D01*
X135937415Y-83222905D01*
X135961980Y-83157378D01*
X136004622Y-83100614D01*
X136071183Y-83075914D01*
X136140532Y-83091121D01*
X136160447Y-83104664D01*
X136225524Y-83158692D01*
X136316149Y-83233930D01*
X136516122Y-83350784D01*
X136732494Y-83433409D01*
X136737560Y-83434440D01*
X136737561Y-83434440D01*
X136790646Y-83445240D01*
X136959456Y-83479585D01*
X137088889Y-83484331D01*
X137185749Y-83487883D01*
X137185753Y-83487883D01*
X137190913Y-83488072D01*
X137196033Y-83487416D01*
X137196035Y-83487416D01*
X137269966Y-83477945D01*
X137420647Y-83458642D01*
X137425595Y-83457157D01*
X137425602Y-83457156D01*
X137637547Y-83393569D01*
X137642490Y-83392086D01*
X137723036Y-83352627D01*
X137845849Y-83292462D01*
X137845852Y-83292460D01*
X137850484Y-83290191D01*
X138039043Y-83155694D01*
X138203103Y-82992205D01*
X138338258Y-82804117D01*
X138346104Y-82788243D01*
X138438584Y-82601122D01*
X138438585Y-82601120D01*
X138440878Y-82596480D01*
X138508208Y-82374871D01*
X138538440Y-82145241D01*
X138540127Y-82076200D01*
X138530103Y-81954279D01*
X138521573Y-81850518D01*
X138521572Y-81850512D01*
X138521149Y-81845367D01*
X138464725Y-81620733D01*
X138430839Y-81542800D01*
X138374430Y-81413068D01*
X138374428Y-81413065D01*
X138372370Y-81408331D01*
X138246564Y-81213865D01*
X138222082Y-81186959D01*
X138150028Y-81107773D01*
X138090687Y-81042558D01*
X138086636Y-81039359D01*
X138086632Y-81039355D01*
X137912977Y-80902211D01*
X137912972Y-80902208D01*
X137908923Y-80899010D01*
X137904407Y-80896517D01*
X137904404Y-80896515D01*
X137710679Y-80789573D01*
X137710675Y-80789571D01*
X137706155Y-80787076D01*
X137701286Y-80785352D01*
X137701282Y-80785350D01*
X137492703Y-80711488D01*
X137492699Y-80711487D01*
X137487828Y-80709762D01*
X137482735Y-80708855D01*
X137482732Y-80708854D01*
X137264895Y-80670051D01*
X137264889Y-80670050D01*
X137259806Y-80669145D01*
X137186896Y-80668254D01*
X137033381Y-80666379D01*
X137033379Y-80666379D01*
X137028211Y-80666316D01*
X136799264Y-80701350D01*
X136579114Y-80773306D01*
X136574526Y-80775694D01*
X136574522Y-80775696D01*
X136378261Y-80877863D01*
X136373672Y-80880252D01*
X136369539Y-80883355D01*
X136369536Y-80883357D01*
X136221119Y-80994792D01*
X136188455Y-81019317D01*
X136170970Y-81037614D01*
X136109446Y-81073044D01*
X136038533Y-81069587D01*
X135980747Y-81028341D01*
X135961894Y-80994792D01*
X135940568Y-80937905D01*
X135940567Y-80937903D01*
X135937415Y-80929495D01*
X135850061Y-80812939D01*
X135733505Y-80725585D01*
X135597116Y-80674455D01*
X135534934Y-80667700D01*
X133638666Y-80667700D01*
X133576484Y-80674455D01*
X133440095Y-80725585D01*
X133323539Y-80812939D01*
X133236185Y-80929495D01*
X133185055Y-81065884D01*
X133178300Y-81128066D01*
X133178300Y-83024334D01*
X64940000Y-83024334D01*
X64940000Y-80884503D01*
X76429543Y-80884503D01*
X76430102Y-80888747D01*
X76430102Y-80888751D01*
X76436573Y-80937903D01*
X76467068Y-81169534D01*
X76468201Y-81173674D01*
X76468201Y-81173676D01*
X76488291Y-81247111D01*
X76542929Y-81446836D01*
X76547980Y-81458678D01*
X76584134Y-81543438D01*
X76655723Y-81711276D01*
X76803361Y-81957961D01*
X76983113Y-82182328D01*
X77191651Y-82380223D01*
X77425117Y-82547986D01*
X77428912Y-82549995D01*
X77428913Y-82549996D01*
X77450669Y-82561515D01*
X77679192Y-82682512D01*
X77949173Y-82781311D01*
X78230064Y-82842555D01*
X78258641Y-82844804D01*
X78453082Y-82860107D01*
X78453091Y-82860107D01*
X78455539Y-82860300D01*
X78611071Y-82860300D01*
X78613207Y-82860154D01*
X78613218Y-82860154D01*
X78821348Y-82845965D01*
X78821354Y-82845964D01*
X78825625Y-82845673D01*
X78829820Y-82844804D01*
X78829822Y-82844804D01*
X79006016Y-82808316D01*
X79107142Y-82787374D01*
X79378143Y-82691407D01*
X79466162Y-82645977D01*
X79629805Y-82561515D01*
X79629806Y-82561515D01*
X79633612Y-82559550D01*
X79637113Y-82557089D01*
X79637117Y-82557087D01*
X79751217Y-82476896D01*
X79868823Y-82394241D01*
X79883909Y-82380223D01*
X80076279Y-82201461D01*
X80076281Y-82201458D01*
X80079422Y-82198540D01*
X80261513Y-81976068D01*
X80411727Y-81730942D01*
X80494036Y-81543438D01*
X80525557Y-81471630D01*
X80527283Y-81467698D01*
X80529853Y-81458678D01*
X80599917Y-81212716D01*
X80606044Y-81191206D01*
X80641949Y-80938920D01*
X80645946Y-80910836D01*
X80645946Y-80910834D01*
X80646551Y-80906584D01*
X80646645Y-80888751D01*
X80648035Y-80623383D01*
X80648035Y-80623376D01*
X80648057Y-80619097D01*
X80610532Y-80334066D01*
X80603321Y-80307705D01*
X80556813Y-80137702D01*
X80534671Y-80056764D01*
X80449932Y-79858097D01*
X80423563Y-79796276D01*
X80423561Y-79796272D01*
X80421877Y-79792324D01*
X80274239Y-79545639D01*
X80237227Y-79499440D01*
X105325263Y-79499440D01*
X105342963Y-79679960D01*
X105400218Y-79852073D01*
X105403865Y-79858095D01*
X105403866Y-79858097D01*
X105489574Y-79999618D01*
X105494180Y-80007224D01*
X105499069Y-80012287D01*
X105499070Y-80012288D01*
X105575921Y-80091868D01*
X105620182Y-80137702D01*
X105771959Y-80237022D01*
X105778556Y-80239475D01*
X105778561Y-80239478D01*
X105884034Y-80278703D01*
X105929209Y-80307705D01*
X106834220Y-81212716D01*
X106840074Y-81218982D01*
X106869734Y-81252982D01*
X106878282Y-81262781D01*
X106918594Y-81291112D01*
X106930801Y-81299691D01*
X106936098Y-81303625D01*
X106980634Y-81338546D01*
X106980640Y-81338550D01*
X106986613Y-81343233D01*
X106993534Y-81346358D01*
X106995539Y-81347572D01*
X107010912Y-81356341D01*
X107012996Y-81357459D01*
X107019216Y-81361830D01*
X107026295Y-81364590D01*
X107026297Y-81364591D01*
X107079024Y-81385148D01*
X107085097Y-81387700D01*
X107143609Y-81414120D01*
X107151077Y-81415504D01*
X107153336Y-81416212D01*
X107170318Y-81421049D01*
X107172627Y-81421642D01*
X107179708Y-81424403D01*
X107187237Y-81425394D01*
X107187240Y-81425395D01*
X107243356Y-81432783D01*
X107249870Y-81433815D01*
X107305515Y-81444128D01*
X107305516Y-81444128D01*
X107312983Y-81445512D01*
X107320563Y-81445075D01*
X107320564Y-81445075D01*
X107375470Y-81441909D01*
X107382723Y-81441700D01*
X108534335Y-81441700D01*
X108589106Y-81454748D01*
X108591359Y-81456222D01*
X108693804Y-81494321D01*
X108754758Y-81516990D01*
X108754760Y-81516990D01*
X108761368Y-81519448D01*
X108845195Y-81530633D01*
X108934180Y-81542507D01*
X108934184Y-81542507D01*
X108941161Y-81543438D01*
X108948172Y-81542800D01*
X108948176Y-81542800D01*
X109090659Y-81529832D01*
X109121800Y-81526998D01*
X109128502Y-81524820D01*
X109128504Y-81524820D01*
X109287609Y-81473124D01*
X109287612Y-81473123D01*
X109294308Y-81470947D01*
X109406624Y-81403993D01*
X109444060Y-81381677D01*
X109444062Y-81381676D01*
X109450112Y-81378069D01*
X109581466Y-81252982D01*
X109681843Y-81101902D01*
X109746255Y-80932338D01*
X109747235Y-80925366D01*
X109770948Y-80756639D01*
X109770948Y-80756636D01*
X109771499Y-80752717D01*
X109771816Y-80730000D01*
X109751597Y-80549745D01*
X109691945Y-80378448D01*
X109595826Y-80224624D01*
X109513340Y-80141560D01*
X109472978Y-80100915D01*
X109472974Y-80100912D01*
X109468015Y-80095918D01*
X109314866Y-79998727D01*
X109266192Y-79981395D01*
X109150625Y-79940243D01*
X109150620Y-79940242D01*
X109143990Y-79937881D01*
X109137002Y-79937048D01*
X109136999Y-79937047D01*
X109013898Y-79922368D01*
X108963880Y-79916404D01*
X108956877Y-79917140D01*
X108956876Y-79917140D01*
X108790488Y-79934628D01*
X108790486Y-79934629D01*
X108783488Y-79935364D01*
X108693294Y-79966068D01*
X108618449Y-79991547D01*
X108618446Y-79991548D01*
X108611779Y-79993818D01*
X108605776Y-79997511D01*
X108605774Y-79997512D01*
X108602350Y-79999618D01*
X108599710Y-80000365D01*
X108599404Y-80000509D01*
X108599380Y-80000458D01*
X108536329Y-80018300D01*
X107704986Y-80018300D01*
X107636865Y-79998298D01*
X107615891Y-79981395D01*
X106935054Y-79300558D01*
X106905158Y-79252900D01*
X106874864Y-79165906D01*
X106874862Y-79165903D01*
X106872545Y-79159248D01*
X106850131Y-79123377D01*
X106780159Y-79011398D01*
X106776426Y-79005424D01*
X106729452Y-78958121D01*
X106653578Y-78881715D01*
X106653574Y-78881712D01*
X106648615Y-78876718D01*
X106637497Y-78869662D01*
X106589338Y-78839100D01*
X106495466Y-78779527D01*
X106466263Y-78769128D01*
X106331225Y-78721043D01*
X106331220Y-78721042D01*
X106324590Y-78718681D01*
X106317602Y-78717848D01*
X106317599Y-78717847D01*
X106194498Y-78703168D01*
X106144480Y-78697204D01*
X106137477Y-78697940D01*
X106137476Y-78697940D01*
X105971088Y-78715428D01*
X105971086Y-78715429D01*
X105964088Y-78716164D01*
X105792379Y-78774618D01*
X105786375Y-78778312D01*
X105643895Y-78865966D01*
X105643892Y-78865968D01*
X105637888Y-78869662D01*
X105632853Y-78874593D01*
X105632850Y-78874595D01*
X105513325Y-78991643D01*
X105508293Y-78996571D01*
X105410035Y-79149038D01*
X105407626Y-79155658D01*
X105407624Y-79155661D01*
X105372232Y-79252900D01*
X105347997Y-79319485D01*
X105325263Y-79499440D01*
X80237227Y-79499440D01*
X80094487Y-79321272D01*
X79912990Y-79149038D01*
X79889058Y-79126327D01*
X79889055Y-79126325D01*
X79885949Y-79123377D01*
X79652483Y-78955614D01*
X79630643Y-78944050D01*
X79512912Y-78881715D01*
X79398408Y-78821088D01*
X79128427Y-78722289D01*
X78847536Y-78661045D01*
X78816485Y-78658601D01*
X78624518Y-78643493D01*
X78624509Y-78643493D01*
X78622061Y-78643300D01*
X78466529Y-78643300D01*
X78464393Y-78643446D01*
X78464382Y-78643446D01*
X78256252Y-78657635D01*
X78256246Y-78657636D01*
X78251975Y-78657927D01*
X78247780Y-78658796D01*
X78247778Y-78658796D01*
X78181034Y-78672618D01*
X77970458Y-78716226D01*
X77699457Y-78812193D01*
X77443988Y-78944050D01*
X77440487Y-78946511D01*
X77440483Y-78946513D01*
X77348161Y-79011398D01*
X77208777Y-79109359D01*
X77193692Y-79123377D01*
X77003023Y-79300558D01*
X76998178Y-79305060D01*
X76816087Y-79527532D01*
X76665873Y-79772658D01*
X76550317Y-80035902D01*
X76549142Y-80040029D01*
X76549141Y-80040030D01*
X76522762Y-80132634D01*
X76471556Y-80312394D01*
X76461208Y-80385106D01*
X76437777Y-80549745D01*
X76431049Y-80597016D01*
X76431027Y-80601305D01*
X76431026Y-80601312D01*
X76429565Y-80880217D01*
X76429543Y-80884503D01*
X64940000Y-80884503D01*
X64940000Y-77631200D01*
X126586696Y-77631200D01*
X126606658Y-77821128D01*
X126665673Y-78002756D01*
X126761160Y-78168144D01*
X126888947Y-78310066D01*
X127043448Y-78422318D01*
X127049476Y-78425002D01*
X127049478Y-78425003D01*
X127070591Y-78434403D01*
X127217912Y-78499994D01*
X127311313Y-78519847D01*
X127398256Y-78538328D01*
X127398261Y-78538328D01*
X127404713Y-78539700D01*
X127595687Y-78539700D01*
X127602139Y-78538328D01*
X127602144Y-78538328D01*
X127689087Y-78519847D01*
X127782488Y-78499994D01*
X127929809Y-78434403D01*
X127950922Y-78425003D01*
X127950924Y-78425002D01*
X127956952Y-78422318D01*
X128033140Y-78366964D01*
X128100008Y-78343106D01*
X128107201Y-78342900D01*
X129839599Y-78342900D01*
X129907720Y-78362902D01*
X129913660Y-78366964D01*
X129989848Y-78422318D01*
X129995876Y-78425002D01*
X129995878Y-78425003D01*
X130076808Y-78461035D01*
X130130904Y-78507015D01*
X130151553Y-78574942D01*
X130132201Y-78643250D01*
X130078990Y-78690252D01*
X130051111Y-78699524D01*
X129970458Y-78716226D01*
X129699457Y-78812193D01*
X129443988Y-78944050D01*
X129440487Y-78946511D01*
X129440483Y-78946513D01*
X129348161Y-79011398D01*
X129208777Y-79109359D01*
X129193692Y-79123377D01*
X129003023Y-79300558D01*
X128998178Y-79305060D01*
X128816087Y-79527532D01*
X128665873Y-79772658D01*
X128550317Y-80035902D01*
X128549142Y-80040029D01*
X128549141Y-80040030D01*
X128522762Y-80132634D01*
X128471556Y-80312394D01*
X128461208Y-80385106D01*
X128437777Y-80549745D01*
X128431049Y-80597016D01*
X128431027Y-80601305D01*
X128431026Y-80601312D01*
X128429565Y-80880217D01*
X128429543Y-80884503D01*
X128430102Y-80888747D01*
X128430102Y-80888751D01*
X128436573Y-80937903D01*
X128467068Y-81169534D01*
X128468201Y-81173674D01*
X128468201Y-81173676D01*
X128488291Y-81247111D01*
X128542929Y-81446836D01*
X128547980Y-81458678D01*
X128584134Y-81543438D01*
X128655723Y-81711276D01*
X128803361Y-81957961D01*
X128983113Y-82182328D01*
X129191651Y-82380223D01*
X129425117Y-82547986D01*
X129428912Y-82549995D01*
X129428913Y-82549996D01*
X129450669Y-82561515D01*
X129679192Y-82682512D01*
X129949173Y-82781311D01*
X130230064Y-82842555D01*
X130258641Y-82844804D01*
X130453082Y-82860107D01*
X130453091Y-82860107D01*
X130455539Y-82860300D01*
X130611071Y-82860300D01*
X130613207Y-82860154D01*
X130613218Y-82860154D01*
X130821348Y-82845965D01*
X130821354Y-82845964D01*
X130825625Y-82845673D01*
X130829820Y-82844804D01*
X130829822Y-82844804D01*
X131006016Y-82808316D01*
X131107142Y-82787374D01*
X131378143Y-82691407D01*
X131466162Y-82645977D01*
X131629805Y-82561515D01*
X131629806Y-82561515D01*
X131633612Y-82559550D01*
X131637113Y-82557089D01*
X131637117Y-82557087D01*
X131751217Y-82476896D01*
X131868823Y-82394241D01*
X131883909Y-82380223D01*
X132076279Y-82201461D01*
X132076281Y-82201458D01*
X132079422Y-82198540D01*
X132261513Y-81976068D01*
X132411727Y-81730942D01*
X132494036Y-81543438D01*
X132525557Y-81471630D01*
X132527283Y-81467698D01*
X132529853Y-81458678D01*
X132599917Y-81212716D01*
X132606044Y-81191206D01*
X132641949Y-80938920D01*
X132645946Y-80910836D01*
X132645946Y-80910834D01*
X132646551Y-80906584D01*
X132646645Y-80888751D01*
X132648035Y-80623383D01*
X132648035Y-80623376D01*
X132648057Y-80619097D01*
X132610532Y-80334066D01*
X132603321Y-80307705D01*
X132556813Y-80137702D01*
X132534671Y-80056764D01*
X132449932Y-79858097D01*
X132423563Y-79796276D01*
X132423561Y-79796272D01*
X132421877Y-79792324D01*
X132274239Y-79545639D01*
X132094487Y-79321272D01*
X131912990Y-79149038D01*
X131889058Y-79126327D01*
X131889055Y-79126325D01*
X131885949Y-79123377D01*
X131652483Y-78955614D01*
X131630643Y-78944050D01*
X131512912Y-78881715D01*
X131398408Y-78821088D01*
X131128427Y-78722289D01*
X130900615Y-78672618D01*
X130838319Y-78638563D01*
X130804324Y-78576235D01*
X130809422Y-78505421D01*
X130851996Y-78448606D01*
X130876209Y-78434403D01*
X130897319Y-78425004D01*
X130897321Y-78425003D01*
X130903352Y-78422318D01*
X131057853Y-78310066D01*
X131185640Y-78168144D01*
X131281127Y-78002756D01*
X131340142Y-77821128D01*
X131360104Y-77631200D01*
X131349849Y-77533626D01*
X131340832Y-77447835D01*
X131340832Y-77447833D01*
X131340142Y-77441272D01*
X131281127Y-77259644D01*
X131274454Y-77248085D01*
X131188941Y-77099974D01*
X131185640Y-77094256D01*
X131079023Y-76975845D01*
X131062275Y-76957245D01*
X131062274Y-76957244D01*
X131057853Y-76952334D01*
X130903352Y-76840082D01*
X130897324Y-76837398D01*
X130897322Y-76837397D01*
X130734919Y-76765091D01*
X130734918Y-76765091D01*
X130728888Y-76762406D01*
X130635487Y-76742553D01*
X130548544Y-76724072D01*
X130548539Y-76724072D01*
X130542087Y-76722700D01*
X130351113Y-76722700D01*
X130344661Y-76724072D01*
X130344656Y-76724072D01*
X130257713Y-76742553D01*
X130164312Y-76762406D01*
X130158282Y-76765091D01*
X130158281Y-76765091D01*
X129995878Y-76837397D01*
X129995876Y-76837398D01*
X129989848Y-76840082D01*
X129984507Y-76843962D01*
X129984506Y-76843963D01*
X129913660Y-76895436D01*
X129846792Y-76919294D01*
X129839599Y-76919500D01*
X128107201Y-76919500D01*
X128039080Y-76899498D01*
X128033140Y-76895436D01*
X127962294Y-76843963D01*
X127962293Y-76843962D01*
X127956952Y-76840082D01*
X127950924Y-76837398D01*
X127950922Y-76837397D01*
X127788519Y-76765091D01*
X127788518Y-76765091D01*
X127782488Y-76762406D01*
X127689087Y-76742553D01*
X127602144Y-76724072D01*
X127602139Y-76724072D01*
X127595687Y-76722700D01*
X127404713Y-76722700D01*
X127398261Y-76724072D01*
X127398256Y-76724072D01*
X127311313Y-76742553D01*
X127217912Y-76762406D01*
X127211882Y-76765091D01*
X127211881Y-76765091D01*
X127049478Y-76837397D01*
X127049476Y-76837398D01*
X127043448Y-76840082D01*
X126888947Y-76952334D01*
X126884526Y-76957244D01*
X126884525Y-76957245D01*
X126867778Y-76975845D01*
X126761160Y-77094256D01*
X126757859Y-77099974D01*
X126672347Y-77248085D01*
X126665673Y-77259644D01*
X126606658Y-77441272D01*
X126605968Y-77447833D01*
X126605968Y-77447835D01*
X126596951Y-77533626D01*
X126586696Y-77631200D01*
X64940000Y-77631200D01*
X64940000Y-74541062D01*
X64960002Y-74472941D01*
X65013658Y-74426448D01*
X65083932Y-74416344D01*
X65139999Y-74442600D01*
X65141549Y-74440466D01*
X65288377Y-74547143D01*
X65296050Y-74552718D01*
X65302078Y-74555402D01*
X65302080Y-74555403D01*
X65464483Y-74627709D01*
X65470514Y-74630394D01*
X65563915Y-74650247D01*
X65650858Y-74668728D01*
X65650863Y-74668728D01*
X65657315Y-74670100D01*
X65848289Y-74670100D01*
X65854741Y-74668728D01*
X65854746Y-74668728D01*
X65941689Y-74650247D01*
X66035090Y-74630394D01*
X66041121Y-74627709D01*
X66203524Y-74555403D01*
X66203526Y-74555402D01*
X66209554Y-74552718D01*
X66217228Y-74547143D01*
X66325497Y-74468480D01*
X66364055Y-74440466D01*
X66395758Y-74405256D01*
X66487423Y-74303452D01*
X66487424Y-74303451D01*
X66491842Y-74298544D01*
X66587329Y-74133156D01*
X66646344Y-73951528D01*
X66654811Y-73870974D01*
X66665616Y-73768165D01*
X66666306Y-73761600D01*
X66653838Y-73642973D01*
X66647034Y-73578235D01*
X66647034Y-73578233D01*
X66646344Y-73571672D01*
X66587329Y-73390044D01*
X66532183Y-73294528D01*
X66515302Y-73231529D01*
X66515302Y-70937624D01*
X69575821Y-70937624D01*
X69580188Y-70943774D01*
X69779763Y-71060397D01*
X69789046Y-71064844D01*
X70007207Y-71148152D01*
X70017105Y-71151028D01*
X70245944Y-71197585D01*
X70256172Y-71198804D01*
X70489540Y-71207362D01*
X70499826Y-71206895D01*
X70731462Y-71177222D01*
X70741540Y-71175080D01*
X70965214Y-71107974D01*
X70974812Y-71104212D01*
X71184524Y-71001476D01*
X71193369Y-70996203D01*
X71266069Y-70944347D01*
X71274470Y-70933646D01*
X71267483Y-70920493D01*
X70440012Y-70093022D01*
X70426068Y-70085408D01*
X70424235Y-70085539D01*
X70417620Y-70089790D01*
X69583081Y-70924329D01*
X69575821Y-70937624D01*
X66515302Y-70937624D01*
X66515302Y-69010268D01*
X66535304Y-68942147D01*
X66588960Y-68895654D01*
X66659234Y-68885550D01*
X66723814Y-68915044D01*
X66755497Y-68957018D01*
X66761348Y-68969565D01*
X66823431Y-69102705D01*
X66823434Y-69102710D01*
X66825757Y-69107692D01*
X66845741Y-69136232D01*
X66950010Y-69285143D01*
X66954071Y-69290943D01*
X67112257Y-69449129D01*
X67116765Y-69452286D01*
X67116768Y-69452288D01*
X67173676Y-69492135D01*
X67295508Y-69577443D01*
X67300490Y-69579766D01*
X67300495Y-69579769D01*
X67388252Y-69620690D01*
X67498257Y-69671986D01*
X67714343Y-69729887D01*
X67937200Y-69749384D01*
X68160057Y-69729887D01*
X68376143Y-69671986D01*
X68486148Y-69620690D01*
X68573905Y-69579769D01*
X68573910Y-69579766D01*
X68578892Y-69577443D01*
X68587380Y-69571500D01*
X68754110Y-69454754D01*
X68821384Y-69432066D01*
X68890245Y-69449351D01*
X68938829Y-69501121D01*
X68951668Y-69571356D01*
X68940110Y-69679510D01*
X68939858Y-69689799D01*
X68953302Y-69922942D01*
X68954735Y-69933144D01*
X69006073Y-70160949D01*
X69009156Y-70170789D01*
X69097014Y-70387156D01*
X69101657Y-70396347D01*
X69202755Y-70561325D01*
X69213211Y-70570785D01*
X69221989Y-70567001D01*
X70055178Y-69733812D01*
X70061556Y-69722132D01*
X70791608Y-69722132D01*
X70791739Y-69723965D01*
X70795990Y-69730580D01*
X71627245Y-70561835D01*
X71639255Y-70568394D01*
X71650994Y-70559426D01*
X71699718Y-70491619D01*
X71705029Y-70482780D01*
X71808491Y-70273442D01*
X71812289Y-70263849D01*
X71880174Y-70040413D01*
X71882351Y-70030343D01*
X71913069Y-69797015D01*
X71913588Y-69790340D01*
X71915201Y-69724364D01*
X71915007Y-69717647D01*
X71895725Y-69483108D01*
X71894042Y-69472946D01*
X71837152Y-69246453D01*
X71833834Y-69236706D01*
X71740713Y-69022542D01*
X71735846Y-69013467D01*
X71650665Y-68881796D01*
X71639979Y-68872593D01*
X71630414Y-68876996D01*
X70799222Y-69708188D01*
X70791608Y-69722132D01*
X70061556Y-69722132D01*
X70062792Y-69719868D01*
X70062661Y-69718035D01*
X70058410Y-69711420D01*
X69217607Y-68870617D01*
X69183581Y-68808305D01*
X69184996Y-68748909D01*
X69199663Y-68694174D01*
X69199664Y-68694166D01*
X69201087Y-68688857D01*
X69216897Y-68508142D01*
X69579138Y-68508142D01*
X69585884Y-68520474D01*
X70414388Y-69348978D01*
X70428332Y-69356592D01*
X70430165Y-69356461D01*
X70436780Y-69352210D01*
X71269591Y-68519399D01*
X71276612Y-68506543D01*
X71268839Y-68495875D01*
X71254748Y-68484746D01*
X71246170Y-68479047D01*
X71041726Y-68366189D01*
X71032326Y-68361964D01*
X70812193Y-68284011D01*
X70802236Y-68281381D01*
X70572329Y-68240427D01*
X70562078Y-68239458D01*
X70328567Y-68236605D01*
X70318283Y-68237325D01*
X70087453Y-68272647D01*
X70077425Y-68275036D01*
X69855463Y-68347584D01*
X69845953Y-68351581D01*
X69638824Y-68459405D01*
X69630104Y-68464897D01*
X69587591Y-68496817D01*
X69579138Y-68508142D01*
X69216897Y-68508142D01*
X69220584Y-68466000D01*
X69201087Y-68243143D01*
X69143186Y-68027057D01*
X69080368Y-67892343D01*
X69050969Y-67829295D01*
X69050966Y-67829290D01*
X69048643Y-67824308D01*
X68943600Y-67674291D01*
X68923488Y-67645568D01*
X68923486Y-67645565D01*
X68920329Y-67641057D01*
X68762143Y-67482871D01*
X68757635Y-67479714D01*
X68757632Y-67479712D01*
X68666139Y-67415648D01*
X68578892Y-67354557D01*
X68573910Y-67352234D01*
X68573905Y-67352231D01*
X68449331Y-67294142D01*
X68376143Y-67260014D01*
X68160057Y-67202113D01*
X67937200Y-67182616D01*
X67714343Y-67202113D01*
X67498257Y-67260014D01*
X67425069Y-67294142D01*
X67300495Y-67352231D01*
X67300490Y-67352234D01*
X67295508Y-67354557D01*
X67208261Y-67415648D01*
X67116768Y-67479712D01*
X67116765Y-67479714D01*
X67112257Y-67482871D01*
X66954071Y-67641057D01*
X66950914Y-67645565D01*
X66950912Y-67645568D01*
X66930800Y-67674291D01*
X66825757Y-67824308D01*
X66823434Y-67829290D01*
X66823431Y-67829295D01*
X66755497Y-67974982D01*
X66708580Y-68028267D01*
X66640303Y-68047728D01*
X66572343Y-68027186D01*
X66526277Y-67973164D01*
X66515302Y-67921732D01*
X66515302Y-64510268D01*
X66535304Y-64442147D01*
X66588960Y-64395654D01*
X66659234Y-64385550D01*
X66723814Y-64415044D01*
X66755497Y-64457018D01*
X66823431Y-64602705D01*
X66823434Y-64602710D01*
X66825757Y-64607692D01*
X66862830Y-64660637D01*
X66934948Y-64763632D01*
X66954071Y-64790943D01*
X67112257Y-64949129D01*
X67116765Y-64952286D01*
X67116768Y-64952288D01*
X67118715Y-64953651D01*
X67295508Y-65077443D01*
X67300490Y-65079766D01*
X67300495Y-65079769D01*
X67348846Y-65102315D01*
X67498257Y-65171986D01*
X67714343Y-65229887D01*
X67937200Y-65249384D01*
X68160057Y-65229887D01*
X68376143Y-65171986D01*
X68525554Y-65102315D01*
X68573905Y-65079769D01*
X68573910Y-65079766D01*
X68578892Y-65077443D01*
X68755685Y-64953651D01*
X68757632Y-64952288D01*
X68757635Y-64952286D01*
X68762143Y-64949129D01*
X68920329Y-64790943D01*
X68939453Y-64763632D01*
X69011570Y-64660637D01*
X69048643Y-64607692D01*
X69050966Y-64602710D01*
X69050969Y-64602705D01*
X69118903Y-64457018D01*
X69143186Y-64404943D01*
X69201087Y-64188857D01*
X69220584Y-63966000D01*
X69217227Y-63927624D01*
X69575821Y-63927624D01*
X69580188Y-63933774D01*
X69779763Y-64050397D01*
X69789046Y-64054844D01*
X70007207Y-64138152D01*
X70017105Y-64141028D01*
X70245944Y-64187585D01*
X70256172Y-64188804D01*
X70489540Y-64197362D01*
X70499826Y-64196895D01*
X70731462Y-64167222D01*
X70741540Y-64165080D01*
X70965214Y-64097974D01*
X70974812Y-64094212D01*
X71184524Y-63991476D01*
X71193369Y-63986203D01*
X71266069Y-63934347D01*
X71274470Y-63923646D01*
X71267483Y-63910493D01*
X70440012Y-63083022D01*
X70426068Y-63075408D01*
X70424235Y-63075539D01*
X70417620Y-63079790D01*
X69583081Y-63914329D01*
X69575821Y-63927624D01*
X69217227Y-63927624D01*
X69201087Y-63743143D01*
X69199664Y-63737834D01*
X69199663Y-63737826D01*
X69184996Y-63683091D01*
X69186684Y-63612114D01*
X69217607Y-63561383D01*
X70055178Y-62723812D01*
X70061556Y-62712132D01*
X70791608Y-62712132D01*
X70791739Y-62713965D01*
X70795990Y-62720580D01*
X71627245Y-63551835D01*
X71639255Y-63558394D01*
X71650994Y-63549426D01*
X71699718Y-63481619D01*
X71705029Y-63472780D01*
X71808491Y-63263442D01*
X71812289Y-63253849D01*
X71880174Y-63030413D01*
X71882351Y-63020343D01*
X71913069Y-62787015D01*
X71913588Y-62780340D01*
X71915201Y-62714364D01*
X71915007Y-62707647D01*
X71895725Y-62473108D01*
X71894042Y-62462946D01*
X71837152Y-62236453D01*
X71833834Y-62226706D01*
X71740713Y-62012542D01*
X71735846Y-62003467D01*
X71650665Y-61871796D01*
X71639979Y-61862593D01*
X71630414Y-61866996D01*
X70799222Y-62698188D01*
X70791608Y-62712132D01*
X70061556Y-62712132D01*
X70062792Y-62709868D01*
X70062661Y-62708035D01*
X70058410Y-62701420D01*
X69227092Y-61870102D01*
X69215556Y-61863802D01*
X69203273Y-61873426D01*
X69136236Y-61971698D01*
X69131143Y-61980662D01*
X69032819Y-62192483D01*
X69029262Y-62202151D01*
X68966857Y-62427178D01*
X68964926Y-62437298D01*
X68940110Y-62669510D01*
X68939858Y-62679799D01*
X68950575Y-62865662D01*
X68934527Y-62934821D01*
X68883637Y-62984326D01*
X68814061Y-62998458D01*
X68752513Y-62976128D01*
X68718035Y-62951986D01*
X68578892Y-62854557D01*
X68573910Y-62852234D01*
X68573905Y-62852231D01*
X68395885Y-62769220D01*
X68376143Y-62760014D01*
X68160057Y-62702113D01*
X67937200Y-62682616D01*
X67714343Y-62702113D01*
X67498257Y-62760014D01*
X67478515Y-62769220D01*
X67300495Y-62852231D01*
X67300490Y-62852234D01*
X67295508Y-62854557D01*
X67266611Y-62874791D01*
X67116768Y-62979712D01*
X67116765Y-62979714D01*
X67112257Y-62982871D01*
X66954071Y-63141057D01*
X66950914Y-63145565D01*
X66950912Y-63145568D01*
X66933597Y-63170297D01*
X66825757Y-63324308D01*
X66823434Y-63329290D01*
X66823431Y-63329295D01*
X66755497Y-63474982D01*
X66708580Y-63528267D01*
X66640303Y-63547728D01*
X66572343Y-63527186D01*
X66526277Y-63473164D01*
X66515302Y-63421732D01*
X66515302Y-61498142D01*
X69579138Y-61498142D01*
X69585884Y-61510474D01*
X70414388Y-62338978D01*
X70428332Y-62346592D01*
X70430165Y-62346461D01*
X70436780Y-62342210D01*
X71269591Y-61509399D01*
X71276612Y-61496543D01*
X71268839Y-61485875D01*
X71254748Y-61474746D01*
X71246170Y-61469047D01*
X71041726Y-61356189D01*
X71032326Y-61351964D01*
X70812193Y-61274011D01*
X70802236Y-61271381D01*
X70572329Y-61230427D01*
X70562078Y-61229458D01*
X70328567Y-61226605D01*
X70318283Y-61227325D01*
X70087453Y-61262647D01*
X70077425Y-61265036D01*
X69855463Y-61337584D01*
X69845953Y-61341581D01*
X69638824Y-61449405D01*
X69630104Y-61454897D01*
X69587591Y-61486817D01*
X69579138Y-61498142D01*
X66515302Y-61498142D01*
X66515302Y-60729426D01*
X66535304Y-60661305D01*
X66552207Y-60640331D01*
X72120022Y-55072516D01*
X72182334Y-55038490D01*
X72253149Y-55043555D01*
X72309985Y-55086102D01*
X72318348Y-55098806D01*
X72325775Y-55111723D01*
X72441168Y-55274397D01*
X72448961Y-55283425D01*
X72593031Y-55421342D01*
X72602400Y-55428741D01*
X72629777Y-55446418D01*
X72676155Y-55500172D01*
X72686109Y-55570468D01*
X72656478Y-55634985D01*
X72639263Y-55651356D01*
X72519280Y-55745604D01*
X72515348Y-55750135D01*
X72515345Y-55750138D01*
X72398664Y-55884601D01*
X72380648Y-55905363D01*
X72377648Y-55910549D01*
X72377645Y-55910553D01*
X72313774Y-56020958D01*
X72274727Y-56088454D01*
X72205339Y-56288271D01*
X72204478Y-56294206D01*
X72204478Y-56294208D01*
X72176374Y-56488040D01*
X72174987Y-56497604D01*
X72184767Y-56708899D01*
X72186171Y-56714724D01*
X72186171Y-56714725D01*
X72224046Y-56871881D01*
X72234325Y-56914534D01*
X72236807Y-56919992D01*
X72236808Y-56919996D01*
X72280253Y-57015546D01*
X72321874Y-57107087D01*
X72444254Y-57279611D01*
X72597050Y-57425881D01*
X72774748Y-57540620D01*
X72780314Y-57542863D01*
X72965368Y-57617442D01*
X72965371Y-57617443D01*
X72970937Y-57619686D01*
X73178537Y-57660228D01*
X73184099Y-57660500D01*
X73890046Y-57660500D01*
X74047766Y-57645452D01*
X74250734Y-57585908D01*
X74330890Y-57544625D01*
X74433449Y-57491804D01*
X74433452Y-57491802D01*
X74438780Y-57489058D01*
X74605120Y-57358396D01*
X74609052Y-57353865D01*
X74609055Y-57353862D01*
X74739821Y-57203167D01*
X74743752Y-57198637D01*
X74746752Y-57193451D01*
X74746755Y-57193447D01*
X74846667Y-57020742D01*
X74849673Y-57015546D01*
X74919061Y-56815729D01*
X74921029Y-56802154D01*
X74948552Y-56612336D01*
X74948552Y-56612333D01*
X74949413Y-56606396D01*
X74939633Y-56395101D01*
X74890075Y-56189466D01*
X74866608Y-56137852D01*
X74816621Y-56027914D01*
X74802526Y-55996913D01*
X74680146Y-55824389D01*
X74527350Y-55678119D01*
X74522319Y-55674870D01*
X74522312Y-55674865D01*
X74494593Y-55656967D01*
X74448216Y-55603211D01*
X74438263Y-55532915D01*
X74467896Y-55468398D01*
X74485109Y-55452030D01*
X74600057Y-55361738D01*
X74608706Y-55353501D01*
X74739412Y-55202877D01*
X74746347Y-55193153D01*
X74846210Y-55020533D01*
X74851184Y-55009669D01*
X74916607Y-54821273D01*
X74916848Y-54820284D01*
X74915380Y-54809992D01*
X74901815Y-54806000D01*
X73434200Y-54806000D01*
X73366079Y-54785998D01*
X73319586Y-54732342D01*
X73308200Y-54680000D01*
X73308200Y-54424000D01*
X73328202Y-54355879D01*
X73381858Y-54309386D01*
X73434200Y-54298000D01*
X74897602Y-54298000D01*
X74911133Y-54294027D01*
X74912488Y-54284601D01*
X74891006Y-54195463D01*
X74887117Y-54184168D01*
X74804571Y-54002618D01*
X74798624Y-53992276D01*
X74683232Y-53829603D01*
X74675439Y-53820575D01*
X74531369Y-53682658D01*
X74522000Y-53675259D01*
X74494623Y-53657582D01*
X74448245Y-53603828D01*
X74438291Y-53533532D01*
X74467922Y-53469015D01*
X74485137Y-53452644D01*
X74577333Y-53380223D01*
X74605120Y-53358396D01*
X74609052Y-53353865D01*
X74609055Y-53353862D01*
X74739821Y-53203167D01*
X74743752Y-53198637D01*
X74746752Y-53193451D01*
X74746755Y-53193447D01*
X74846667Y-53020742D01*
X74849673Y-53015546D01*
X74855203Y-52999622D01*
X74896443Y-52941832D01*
X74962380Y-52915512D01*
X75032080Y-52929018D01*
X75063326Y-52951858D01*
X75686954Y-53575486D01*
X75720980Y-53637798D01*
X75715915Y-53708613D01*
X75673368Y-53765449D01*
X75663882Y-53771898D01*
X75601268Y-53810419D01*
X75601265Y-53810422D01*
X75595266Y-53814112D01*
X75473686Y-53933173D01*
X75469875Y-53939087D01*
X75469873Y-53939089D01*
X75421533Y-54014098D01*
X75381504Y-54076210D01*
X75379094Y-54082832D01*
X75338461Y-54194471D01*
X75323303Y-54236116D01*
X75301975Y-54404943D01*
X75318581Y-54574299D01*
X75372294Y-54735767D01*
X75389697Y-54764502D01*
X75411476Y-54800464D01*
X75429700Y-54865736D01*
X75429700Y-61929180D01*
X75429170Y-61940414D01*
X75427492Y-61947919D01*
X75429166Y-62001177D01*
X75429638Y-62016212D01*
X75429700Y-62020169D01*
X75429700Y-62048183D01*
X75430196Y-62052108D01*
X75430196Y-62052109D01*
X75430208Y-62052204D01*
X75431141Y-62064049D01*
X75432535Y-62108405D01*
X75434747Y-62116017D01*
X75438213Y-62127948D01*
X75442223Y-62147312D01*
X75444773Y-62167499D01*
X75447689Y-62174863D01*
X75447690Y-62174868D01*
X75461107Y-62208756D01*
X75464952Y-62219985D01*
X75477331Y-62262593D01*
X75481369Y-62269420D01*
X75481370Y-62269423D01*
X75487688Y-62280106D01*
X75496388Y-62297864D01*
X75500961Y-62309415D01*
X75500965Y-62309421D01*
X75503881Y-62316788D01*
X75508539Y-62323199D01*
X75508540Y-62323201D01*
X75529964Y-62352688D01*
X75536481Y-62362610D01*
X75555026Y-62393968D01*
X75555029Y-62393972D01*
X75559066Y-62400798D01*
X75573450Y-62415182D01*
X75586291Y-62430216D01*
X75592039Y-62438128D01*
X75598258Y-62446687D01*
X75604366Y-62451740D01*
X75632455Y-62474977D01*
X75641235Y-62482967D01*
X77687964Y-64529696D01*
X77721990Y-64592008D01*
X77720286Y-64652462D01*
X77699789Y-64726370D01*
X77699241Y-64731500D01*
X77699240Y-64731504D01*
X77695807Y-64763632D01*
X77676051Y-64948495D01*
X77676348Y-64953648D01*
X77676348Y-64953651D01*
X77684843Y-65100984D01*
X77688910Y-65171515D01*
X77690047Y-65176561D01*
X77690048Y-65176567D01*
X77704335Y-65239961D01*
X77738022Y-65389439D01*
X77796221Y-65532766D01*
X77817391Y-65584902D01*
X77822066Y-65596416D01*
X77841110Y-65627493D01*
X77922753Y-65760722D01*
X77938787Y-65786888D01*
X78085050Y-65955738D01*
X78256926Y-66098432D01*
X78285777Y-66115291D01*
X78330245Y-66141276D01*
X78378969Y-66192914D01*
X78392040Y-66262697D01*
X78365309Y-66328469D01*
X78324855Y-66361827D01*
X78312407Y-66368307D01*
X78308274Y-66371410D01*
X78308271Y-66371412D01*
X78137900Y-66499330D01*
X78133765Y-66502435D01*
X77979429Y-66663938D01*
X77976515Y-66668210D01*
X77976514Y-66668211D01*
X77958638Y-66694417D01*
X77853543Y-66848480D01*
X77814093Y-66933468D01*
X77764396Y-67040532D01*
X77759488Y-67051105D01*
X77699789Y-67266370D01*
X77676051Y-67488495D01*
X77676348Y-67493648D01*
X77676348Y-67493651D01*
X77685463Y-67651725D01*
X77688910Y-67711515D01*
X77690047Y-67716561D01*
X77690048Y-67716567D01*
X77701635Y-67767979D01*
X77738022Y-67929439D01*
X77781380Y-68036217D01*
X77819088Y-68129081D01*
X77822066Y-68136416D01*
X77854827Y-68189877D01*
X77891548Y-68249800D01*
X77938787Y-68326888D01*
X78085050Y-68495738D01*
X78256926Y-68638432D01*
X78322183Y-68676565D01*
X78330245Y-68681276D01*
X78378969Y-68732914D01*
X78392040Y-68802697D01*
X78365309Y-68868469D01*
X78324855Y-68901827D01*
X78312407Y-68908307D01*
X78308274Y-68911410D01*
X78308271Y-68911412D01*
X78158165Y-69024115D01*
X78133765Y-69042435D01*
X78084172Y-69094331D01*
X78021581Y-69159829D01*
X77979429Y-69203938D01*
X77976515Y-69208210D01*
X77976514Y-69208211D01*
X77933784Y-69270851D01*
X77853543Y-69388480D01*
X77822780Y-69454754D01*
X77761703Y-69586334D01*
X77759488Y-69591105D01*
X77699789Y-69806370D01*
X77676051Y-70028495D01*
X77676348Y-70033648D01*
X77676348Y-70033651D01*
X77683976Y-70165936D01*
X77688910Y-70251515D01*
X77690047Y-70256561D01*
X77690048Y-70256567D01*
X77708051Y-70336450D01*
X77738022Y-70469439D01*
X77787269Y-70590720D01*
X77817992Y-70666382D01*
X77822066Y-70676416D01*
X77845319Y-70714362D01*
X77902120Y-70807052D01*
X77938787Y-70866888D01*
X78085050Y-71035738D01*
X78256926Y-71178432D01*
X78305635Y-71206895D01*
X78330245Y-71221276D01*
X78378969Y-71272914D01*
X78392040Y-71342697D01*
X78365309Y-71408469D01*
X78324855Y-71441827D01*
X78312407Y-71448307D01*
X78308274Y-71451410D01*
X78308271Y-71451412D01*
X78145668Y-71573498D01*
X78133765Y-71582435D01*
X77979429Y-71743938D01*
X77976515Y-71748210D01*
X77976514Y-71748211D01*
X77913563Y-71840494D01*
X77853543Y-71928480D01*
X77759488Y-72131105D01*
X77699789Y-72346370D01*
X77676051Y-72568495D01*
X77676348Y-72573648D01*
X77676348Y-72573651D01*
X77681811Y-72668390D01*
X77688910Y-72791515D01*
X77690047Y-72796561D01*
X77690048Y-72796567D01*
X77709919Y-72884739D01*
X77738022Y-73009439D01*
X77775783Y-73102433D01*
X77815449Y-73200119D01*
X77822066Y-73216416D01*
X77824765Y-73220820D01*
X77934148Y-73399317D01*
X77938787Y-73406888D01*
X78085050Y-73575738D01*
X78256926Y-73718432D01*
X78319565Y-73755035D01*
X78330245Y-73761276D01*
X78378969Y-73812914D01*
X78392040Y-73882697D01*
X78365309Y-73948469D01*
X78324855Y-73981827D01*
X78312407Y-73988307D01*
X78308274Y-73991410D01*
X78308271Y-73991412D01*
X78192041Y-74078680D01*
X78133765Y-74122435D01*
X78087561Y-74170785D01*
X78026534Y-74234646D01*
X77979429Y-74283938D01*
X77976515Y-74288210D01*
X77976514Y-74288211D01*
X77919564Y-74371697D01*
X77853543Y-74468480D01*
X77819852Y-74541062D01*
X77779632Y-74627709D01*
X77759488Y-74671105D01*
X77699789Y-74886370D01*
X77676051Y-75108495D01*
X77676348Y-75113648D01*
X77676348Y-75113651D01*
X77683582Y-75239110D01*
X77688910Y-75331515D01*
X77690047Y-75336561D01*
X77690048Y-75336567D01*
X77705321Y-75404334D01*
X77738022Y-75549439D01*
X77822066Y-75756416D01*
X77938787Y-75946888D01*
X78085050Y-76115738D01*
X78256926Y-76258432D01*
X78449800Y-76371138D01*
X78658492Y-76450830D01*
X78663560Y-76451861D01*
X78663563Y-76451862D01*
X78751958Y-76469846D01*
X78877397Y-76495367D01*
X78882572Y-76495557D01*
X78882574Y-76495557D01*
X79095473Y-76503364D01*
X79095477Y-76503364D01*
X79100637Y-76503553D01*
X79105757Y-76502897D01*
X79105759Y-76502897D01*
X79317088Y-76475825D01*
X79317089Y-76475825D01*
X79322216Y-76475168D01*
X79382063Y-76457213D01*
X79531229Y-76412461D01*
X79531234Y-76412459D01*
X79536184Y-76410974D01*
X79736794Y-76312696D01*
X79918660Y-76182973D01*
X80076896Y-76025289D01*
X80136394Y-75942489D01*
X80204235Y-75848077D01*
X80207253Y-75843877D01*
X80209841Y-75838642D01*
X80303936Y-75648253D01*
X80303937Y-75648251D01*
X80306230Y-75643611D01*
X80354522Y-75484664D01*
X80369665Y-75434823D01*
X80369665Y-75434821D01*
X80371170Y-75429869D01*
X80388799Y-75295968D01*
X80398232Y-75224321D01*
X80426955Y-75159394D01*
X80434059Y-75151673D01*
X81250131Y-74335601D01*
X90766295Y-74335601D01*
X90786257Y-74525529D01*
X90845272Y-74707157D01*
X90848575Y-74712879D01*
X90848576Y-74712880D01*
X90854526Y-74723185D01*
X90940759Y-74872545D01*
X90945177Y-74877452D01*
X90945178Y-74877453D01*
X91012922Y-74952690D01*
X91068546Y-75014467D01*
X91119581Y-75051546D01*
X91205061Y-75113651D01*
X91223047Y-75126719D01*
X91229075Y-75129403D01*
X91229077Y-75129404D01*
X91391480Y-75201710D01*
X91397511Y-75204395D01*
X91490911Y-75224248D01*
X91577855Y-75242729D01*
X91577860Y-75242729D01*
X91584312Y-75244101D01*
X91775286Y-75244101D01*
X91781738Y-75242729D01*
X91781743Y-75242729D01*
X91868687Y-75224248D01*
X91962087Y-75204395D01*
X91968118Y-75201710D01*
X92130521Y-75129404D01*
X92130523Y-75129403D01*
X92136551Y-75126719D01*
X92154538Y-75113651D01*
X92212739Y-75071365D01*
X92279607Y-75047507D01*
X92286800Y-75047301D01*
X96908569Y-75047301D01*
X96917139Y-75047593D01*
X96967545Y-75051030D01*
X96967549Y-75051030D01*
X96975120Y-75051546D01*
X96982596Y-75050241D01*
X96982599Y-75050241D01*
X97038382Y-75040505D01*
X97044907Y-75039542D01*
X97101066Y-75032746D01*
X97101067Y-75032746D01*
X97108610Y-75031833D01*
X97115718Y-75029147D01*
X97118018Y-75028582D01*
X97135079Y-75023915D01*
X97137333Y-75023235D01*
X97144814Y-75021929D01*
X97203604Y-74996122D01*
X97209701Y-74993634D01*
X97262646Y-74973628D01*
X97262649Y-74973627D01*
X97269748Y-74970944D01*
X97276003Y-74966645D01*
X97278094Y-74965552D01*
X97293556Y-74956946D01*
X97295590Y-74955743D01*
X97302545Y-74952690D01*
X97308570Y-74948067D01*
X97308575Y-74948064D01*
X97353473Y-74913613D01*
X97358808Y-74909737D01*
X97405446Y-74877683D01*
X97405452Y-74877678D01*
X97411711Y-74873376D01*
X97453363Y-74826627D01*
X97458343Y-74821352D01*
X97732552Y-74547143D01*
X99101775Y-74547143D01*
X99118381Y-74716499D01*
X99172094Y-74877967D01*
X99175741Y-74883989D01*
X99175742Y-74883991D01*
X99243654Y-74996126D01*
X99260246Y-75023523D01*
X99378455Y-75145932D01*
X99399027Y-75159394D01*
X99469893Y-75205767D01*
X99520846Y-75239110D01*
X99527450Y-75241566D01*
X99527452Y-75241567D01*
X99673731Y-75295968D01*
X99673733Y-75295969D01*
X99680341Y-75298426D01*
X99682502Y-75298714D01*
X99739344Y-75330876D01*
X100669509Y-76261042D01*
X101594950Y-77186483D01*
X101602526Y-77194809D01*
X101606647Y-77201303D01*
X101612422Y-77206726D01*
X101656465Y-77248085D01*
X101659307Y-77250840D01*
X101679106Y-77270639D01*
X101682237Y-77273068D01*
X101682242Y-77273072D01*
X101682328Y-77273139D01*
X101691353Y-77280847D01*
X101717915Y-77305791D01*
X101717919Y-77305794D01*
X101723694Y-77311217D01*
X101730640Y-77315036D01*
X101730645Y-77315039D01*
X101741528Y-77321022D01*
X101758056Y-77331878D01*
X101767871Y-77339492D01*
X101767874Y-77339494D01*
X101774133Y-77344349D01*
X101781403Y-77347495D01*
X101781408Y-77347498D01*
X101814850Y-77361969D01*
X101825511Y-77367192D01*
X101857447Y-77384749D01*
X101857452Y-77384751D01*
X101864397Y-77388569D01*
X101872071Y-77390539D01*
X101872078Y-77390542D01*
X101884113Y-77393632D01*
X101902818Y-77400036D01*
X101905023Y-77400990D01*
X101921492Y-77408117D01*
X101948542Y-77412401D01*
X101965327Y-77415060D01*
X101976940Y-77417465D01*
X102019918Y-77428500D01*
X102040265Y-77428500D01*
X102059977Y-77430051D01*
X102080079Y-77433235D01*
X102087971Y-77432489D01*
X102124256Y-77429059D01*
X102136114Y-77428500D01*
X107642879Y-77428500D01*
X107711872Y-77449068D01*
X107750446Y-77474310D01*
X107757050Y-77476766D01*
X107757052Y-77476767D01*
X107793444Y-77490301D01*
X107909941Y-77533626D01*
X108078615Y-77556132D01*
X108085626Y-77555494D01*
X108085630Y-77555494D01*
X108241062Y-77541348D01*
X108248083Y-77540709D01*
X108254785Y-77538531D01*
X108254787Y-77538531D01*
X108403223Y-77490301D01*
X108403226Y-77490300D01*
X108409922Y-77488124D01*
X108556090Y-77400990D01*
X108561184Y-77396139D01*
X108561188Y-77396136D01*
X108640065Y-77321022D01*
X108679321Y-77283639D01*
X108773491Y-77141902D01*
X108833919Y-76982825D01*
X108857601Y-76814313D01*
X108857899Y-76793000D01*
X108838931Y-76623892D01*
X108782968Y-76463189D01*
X108692792Y-76318879D01*
X108572886Y-76198132D01*
X108553724Y-76185971D01*
X108508860Y-76157500D01*
X108429208Y-76106951D01*
X108268900Y-76049868D01*
X108099929Y-76029720D01*
X108092926Y-76030456D01*
X108092925Y-76030456D01*
X107937701Y-76046770D01*
X107937697Y-76046771D01*
X107930693Y-76047507D01*
X107924022Y-76049778D01*
X107776273Y-76100075D01*
X107776270Y-76100076D01*
X107769603Y-76102346D01*
X107712465Y-76137498D01*
X107710321Y-76138817D01*
X107644298Y-76157500D01*
X102415623Y-76157500D01*
X102347502Y-76137498D01*
X102326528Y-76120595D01*
X101610267Y-75404334D01*
X133173300Y-75404334D01*
X133180055Y-75466516D01*
X133231185Y-75602905D01*
X133318539Y-75719461D01*
X133435095Y-75806815D01*
X133571484Y-75857945D01*
X133633666Y-75864700D01*
X135529934Y-75864700D01*
X135592116Y-75857945D01*
X135728505Y-75806815D01*
X135845061Y-75719461D01*
X135932415Y-75602905D01*
X135956980Y-75537378D01*
X135999622Y-75480614D01*
X136066183Y-75455914D01*
X136135532Y-75471121D01*
X136155447Y-75484664D01*
X136220524Y-75538692D01*
X136311149Y-75613930D01*
X136511122Y-75730784D01*
X136727494Y-75813409D01*
X136732560Y-75814440D01*
X136732561Y-75814440D01*
X136785646Y-75825240D01*
X136954456Y-75859585D01*
X137083889Y-75864331D01*
X137180749Y-75867883D01*
X137180753Y-75867883D01*
X137185913Y-75868072D01*
X137191033Y-75867416D01*
X137191035Y-75867416D01*
X137264966Y-75857945D01*
X137415647Y-75838642D01*
X137420595Y-75837157D01*
X137420602Y-75837156D01*
X137632547Y-75773569D01*
X137637490Y-75772086D01*
X137718036Y-75732627D01*
X137840849Y-75672462D01*
X137840852Y-75672460D01*
X137845484Y-75670191D01*
X138034043Y-75535694D01*
X138198103Y-75372205D01*
X138333258Y-75184117D01*
X138350224Y-75149790D01*
X138433584Y-74981122D01*
X138433585Y-74981120D01*
X138435878Y-74976480D01*
X138503208Y-74754871D01*
X138533440Y-74525241D01*
X138534827Y-74468480D01*
X138535045Y-74459565D01*
X138535045Y-74459561D01*
X138535127Y-74456200D01*
X138522569Y-74303452D01*
X138516573Y-74230518D01*
X138516572Y-74230512D01*
X138516149Y-74225367D01*
X138459725Y-74000733D01*
X138454322Y-73988307D01*
X138369430Y-73793068D01*
X138369428Y-73793065D01*
X138367370Y-73788331D01*
X138241564Y-73593865D01*
X138228075Y-73579040D01*
X138160402Y-73504669D01*
X138085687Y-73422558D01*
X138081636Y-73419359D01*
X138081632Y-73419355D01*
X137907977Y-73282211D01*
X137907972Y-73282208D01*
X137903923Y-73279010D01*
X137899407Y-73276517D01*
X137899404Y-73276515D01*
X137705679Y-73169573D01*
X137705675Y-73169571D01*
X137701155Y-73167076D01*
X137696286Y-73165352D01*
X137696282Y-73165350D01*
X137487703Y-73091488D01*
X137487699Y-73091487D01*
X137482828Y-73089762D01*
X137477735Y-73088855D01*
X137477732Y-73088854D01*
X137259895Y-73050051D01*
X137259889Y-73050050D01*
X137254806Y-73049145D01*
X137181896Y-73048254D01*
X137028381Y-73046379D01*
X137028379Y-73046379D01*
X137023211Y-73046316D01*
X136794264Y-73081350D01*
X136574114Y-73153306D01*
X136569526Y-73155694D01*
X136569522Y-73155696D01*
X136373261Y-73257863D01*
X136368672Y-73260252D01*
X136364539Y-73263355D01*
X136364536Y-73263357D01*
X136195805Y-73390044D01*
X136183455Y-73399317D01*
X136172491Y-73410790D01*
X136165970Y-73417614D01*
X136104446Y-73453044D01*
X136033533Y-73449587D01*
X135975747Y-73408341D01*
X135956894Y-73374792D01*
X135935568Y-73317905D01*
X135935567Y-73317903D01*
X135932415Y-73309495D01*
X135845061Y-73192939D01*
X135728505Y-73105585D01*
X135592116Y-73054455D01*
X135529934Y-73047700D01*
X133633666Y-73047700D01*
X133571484Y-73054455D01*
X133435095Y-73105585D01*
X133318539Y-73192939D01*
X133231185Y-73309495D01*
X133180055Y-73445884D01*
X133173300Y-73508066D01*
X133173300Y-75404334D01*
X101610267Y-75404334D01*
X100637594Y-74431661D01*
X100607698Y-74384003D01*
X100575947Y-74292826D01*
X100553368Y-74227989D01*
X100548599Y-74220356D01*
X100525420Y-74183264D01*
X100463192Y-74083679D01*
X100343286Y-73962932D01*
X100327039Y-73952621D01*
X100288406Y-73928104D01*
X100199608Y-73871751D01*
X100039300Y-73814668D01*
X99870329Y-73794520D01*
X99863326Y-73795256D01*
X99863325Y-73795256D01*
X99708101Y-73811570D01*
X99708097Y-73811571D01*
X99701093Y-73812307D01*
X99694422Y-73814578D01*
X99546673Y-73864875D01*
X99546670Y-73864876D01*
X99540003Y-73867146D01*
X99534005Y-73870836D01*
X99534003Y-73870837D01*
X99401065Y-73952621D01*
X99401063Y-73952623D01*
X99395066Y-73956312D01*
X99273486Y-74075373D01*
X99269675Y-74081287D01*
X99269673Y-74081289D01*
X99185121Y-74212487D01*
X99181304Y-74218410D01*
X99178894Y-74225032D01*
X99136261Y-74342166D01*
X99123103Y-74378316D01*
X99101775Y-74547143D01*
X97732552Y-74547143D01*
X101080281Y-71199415D01*
X101143178Y-71165264D01*
X101290288Y-71133994D01*
X101296319Y-71131309D01*
X101458722Y-71059003D01*
X101458724Y-71059002D01*
X101464752Y-71056318D01*
X101475158Y-71048758D01*
X101547493Y-70996203D01*
X101619253Y-70944066D01*
X101623675Y-70939155D01*
X101742621Y-70807052D01*
X101742622Y-70807051D01*
X101747040Y-70802144D01*
X101842527Y-70636756D01*
X101901542Y-70455128D01*
X101921504Y-70265200D01*
X101920066Y-70251515D01*
X101902232Y-70081835D01*
X101902232Y-70081833D01*
X101901542Y-70075272D01*
X101882308Y-70016075D01*
X138590491Y-70016075D01*
X138645630Y-70165936D01*
X138651192Y-70177342D01*
X138746491Y-70331044D01*
X138754240Y-70341105D01*
X138878490Y-70472496D01*
X138888110Y-70480799D01*
X139036243Y-70584523D01*
X139047331Y-70590720D01*
X139213295Y-70662540D01*
X139225407Y-70666382D01*
X139403934Y-70703677D01*
X139413466Y-70704915D01*
X139416689Y-70705000D01*
X139566685Y-70705000D01*
X139581924Y-70700525D01*
X139583129Y-70699135D01*
X139584800Y-70691452D01*
X139584800Y-70024115D01*
X139580325Y-70008876D01*
X139578935Y-70007671D01*
X139571252Y-70006000D01*
X138604899Y-70006000D01*
X138591368Y-70009973D01*
X138590491Y-70016075D01*
X101882308Y-70016075D01*
X101842527Y-69893644D01*
X101838649Y-69886926D01*
X101759238Y-69749384D01*
X101747040Y-69728256D01*
X101739488Y-69719868D01*
X101623675Y-69591245D01*
X101623674Y-69591244D01*
X101619253Y-69586334D01*
X101481311Y-69486113D01*
X101470094Y-69477963D01*
X101470093Y-69477962D01*
X101464752Y-69474082D01*
X101458724Y-69471398D01*
X101458722Y-69471397D01*
X101296319Y-69399091D01*
X101296318Y-69399091D01*
X101290288Y-69396406D01*
X101192978Y-69375722D01*
X101109944Y-69358072D01*
X101109939Y-69358072D01*
X101103487Y-69356700D01*
X100912513Y-69356700D01*
X100906061Y-69358072D01*
X100906056Y-69358072D01*
X100823022Y-69375722D01*
X100725712Y-69396406D01*
X100719682Y-69399091D01*
X100719681Y-69399091D01*
X100557278Y-69471397D01*
X100557276Y-69471398D01*
X100551248Y-69474082D01*
X100545907Y-69477962D01*
X100545906Y-69477963D01*
X100534689Y-69486113D01*
X100396747Y-69586334D01*
X100392326Y-69591244D01*
X100392325Y-69591245D01*
X100276513Y-69719868D01*
X100268960Y-69728256D01*
X100256762Y-69749384D01*
X100177352Y-69886926D01*
X100173473Y-69893644D01*
X100114458Y-70075272D01*
X100113768Y-70081835D01*
X100113768Y-70081836D01*
X100110082Y-70116911D01*
X100083070Y-70182568D01*
X100073867Y-70192837D01*
X96679708Y-73586996D01*
X96617396Y-73621022D01*
X96590613Y-73623901D01*
X92286800Y-73623901D01*
X92218679Y-73603899D01*
X92212739Y-73599837D01*
X92141893Y-73548364D01*
X92141892Y-73548363D01*
X92136551Y-73544483D01*
X92130523Y-73541799D01*
X92130521Y-73541798D01*
X91968118Y-73469492D01*
X91968117Y-73469492D01*
X91962087Y-73466807D01*
X91863653Y-73445884D01*
X91781743Y-73428473D01*
X91781738Y-73428473D01*
X91775286Y-73427101D01*
X91584312Y-73427101D01*
X91577860Y-73428473D01*
X91577855Y-73428473D01*
X91495945Y-73445884D01*
X91397511Y-73466807D01*
X91391481Y-73469492D01*
X91391480Y-73469492D01*
X91229077Y-73541798D01*
X91229075Y-73541799D01*
X91223047Y-73544483D01*
X91217706Y-73548363D01*
X91217705Y-73548364D01*
X91175484Y-73579040D01*
X91068546Y-73656735D01*
X91064125Y-73661645D01*
X91064124Y-73661646D01*
X90950057Y-73788331D01*
X90940759Y-73798657D01*
X90937458Y-73804375D01*
X90849737Y-73956312D01*
X90845272Y-73964045D01*
X90786257Y-74145673D01*
X90785567Y-74152234D01*
X90785567Y-74152236D01*
X90776906Y-74234646D01*
X90766295Y-74335601D01*
X81250131Y-74335601D01*
X84518390Y-71067343D01*
X87747975Y-71067343D01*
X87764581Y-71236699D01*
X87818294Y-71398167D01*
X87821941Y-71404189D01*
X87821942Y-71404191D01*
X87899271Y-71531875D01*
X87906446Y-71543723D01*
X88024655Y-71666132D01*
X88030551Y-71669990D01*
X88154471Y-71751081D01*
X88167046Y-71759310D01*
X88173650Y-71761766D01*
X88173652Y-71761767D01*
X88210044Y-71775301D01*
X88326541Y-71818626D01*
X88495215Y-71841132D01*
X88502226Y-71840494D01*
X88502230Y-71840494D01*
X88657662Y-71826348D01*
X88664683Y-71825709D01*
X88671385Y-71823531D01*
X88671387Y-71823531D01*
X88819823Y-71775301D01*
X88819826Y-71775300D01*
X88826522Y-71773124D01*
X88972690Y-71685990D01*
X88977784Y-71681139D01*
X88977788Y-71681136D01*
X89077508Y-71586173D01*
X89095921Y-71568639D01*
X89190091Y-71426902D01*
X89241663Y-71291138D01*
X89248019Y-71274407D01*
X89248020Y-71274405D01*
X89250519Y-71267825D01*
X89251445Y-71261239D01*
X89284309Y-71203623D01*
X90191389Y-70296543D01*
X93216775Y-70296543D01*
X93233381Y-70465899D01*
X93235605Y-70472584D01*
X93235605Y-70472585D01*
X93241937Y-70491619D01*
X93287094Y-70627367D01*
X93290741Y-70633389D01*
X93290742Y-70633391D01*
X93358476Y-70745232D01*
X93375246Y-70772923D01*
X93493455Y-70895332D01*
X93635846Y-70988510D01*
X93642450Y-70990966D01*
X93642452Y-70990967D01*
X93670710Y-71001476D01*
X93795341Y-71047826D01*
X93964015Y-71070332D01*
X93971026Y-71069694D01*
X93971030Y-71069694D01*
X94073708Y-71060349D01*
X94098254Y-71058115D01*
X94167907Y-71071860D01*
X94198769Y-71094501D01*
X94260475Y-71156207D01*
X94294501Y-71218519D01*
X94293087Y-71277912D01*
X94285285Y-71307029D01*
X94266093Y-71526400D01*
X94285285Y-71745771D01*
X94342280Y-71958476D01*
X94344605Y-71963461D01*
X94433018Y-72153066D01*
X94433021Y-72153071D01*
X94435344Y-72158053D01*
X94561651Y-72338438D01*
X94717362Y-72494149D01*
X94897746Y-72620456D01*
X95097324Y-72713520D01*
X95310029Y-72770515D01*
X95529400Y-72789707D01*
X95748771Y-72770515D01*
X95961476Y-72713520D01*
X96161054Y-72620456D01*
X96341438Y-72494149D01*
X96497149Y-72338438D01*
X96623456Y-72158053D01*
X96625779Y-72153071D01*
X96625782Y-72153066D01*
X96714195Y-71963461D01*
X96716520Y-71958476D01*
X96773515Y-71745771D01*
X96792707Y-71526400D01*
X96773515Y-71307029D01*
X96716520Y-71094324D01*
X96665379Y-70984652D01*
X96625782Y-70899734D01*
X96625779Y-70899729D01*
X96623456Y-70894747D01*
X96600869Y-70862489D01*
X96500308Y-70718873D01*
X96500306Y-70718870D01*
X96497149Y-70714362D01*
X96341438Y-70558651D01*
X96161054Y-70432344D01*
X95961476Y-70339280D01*
X95748771Y-70282285D01*
X95529400Y-70263093D01*
X95310029Y-70282285D01*
X95280913Y-70290087D01*
X95209937Y-70288397D01*
X95159208Y-70257475D01*
X94878928Y-69977195D01*
X94844902Y-69914883D01*
X94849967Y-69844068D01*
X94878927Y-69799005D01*
X95159208Y-69518724D01*
X95221519Y-69484700D01*
X95280912Y-69486113D01*
X95310029Y-69493915D01*
X95529400Y-69513107D01*
X95748771Y-69493915D01*
X95961476Y-69436920D01*
X96161054Y-69343856D01*
X96300159Y-69246453D01*
X96336927Y-69220708D01*
X96336929Y-69220706D01*
X96341438Y-69217549D01*
X96497149Y-69061838D01*
X96512910Y-69039330D01*
X96524558Y-69022695D01*
X136162991Y-69022695D01*
X136170267Y-69094331D01*
X136172821Y-69106770D01*
X136228720Y-69285143D01*
X136233729Y-69296831D01*
X136324353Y-69460320D01*
X136331604Y-69470753D01*
X136453256Y-69612688D01*
X136462447Y-69621441D01*
X136610164Y-69736021D01*
X136620924Y-69742745D01*
X136788660Y-69825281D01*
X136800567Y-69829709D01*
X136867269Y-69847083D01*
X136881364Y-69846649D01*
X136884800Y-69838468D01*
X136884800Y-69837867D01*
X137392800Y-69837867D01*
X137396773Y-69851398D01*
X137402875Y-69852275D01*
X137565945Y-69792277D01*
X137577373Y-69786703D01*
X137736240Y-69688201D01*
X137746304Y-69680451D01*
X137882122Y-69552014D01*
X137890425Y-69542394D01*
X137933786Y-69480469D01*
X138594718Y-69480469D01*
X138595152Y-69494564D01*
X138603333Y-69498000D01*
X139566685Y-69498000D01*
X139581924Y-69493525D01*
X139583129Y-69492135D01*
X139584800Y-69484452D01*
X139584800Y-68817115D01*
X139580325Y-68801876D01*
X139578935Y-68800671D01*
X139571252Y-68799000D01*
X139463608Y-68799000D01*
X139457233Y-68799323D01*
X139322533Y-68813005D01*
X139310093Y-68815559D01*
X139137536Y-68869635D01*
X139125848Y-68874644D01*
X138967689Y-68962314D01*
X138957256Y-68969565D01*
X138819957Y-69087244D01*
X138811188Y-69096453D01*
X138700358Y-69239333D01*
X138693622Y-69250113D01*
X138613781Y-69412374D01*
X138609355Y-69424273D01*
X138594718Y-69480469D01*
X137933786Y-69480469D01*
X137997645Y-69389269D01*
X138003842Y-69378180D01*
X138078084Y-69206618D01*
X138081923Y-69194515D01*
X138117601Y-69023736D01*
X138116478Y-69009675D01*
X138106371Y-69006000D01*
X137410915Y-69006000D01*
X137395676Y-69010475D01*
X137394471Y-69011865D01*
X137392800Y-69019548D01*
X137392800Y-69837867D01*
X136884800Y-69837867D01*
X136884800Y-69024115D01*
X136880325Y-69008876D01*
X136878935Y-69007671D01*
X136871252Y-69006000D01*
X136179410Y-69006000D01*
X136165050Y-69010216D01*
X136162991Y-69022695D01*
X96524558Y-69022695D01*
X96620299Y-68885962D01*
X96620300Y-68885960D01*
X96623456Y-68881453D01*
X96625779Y-68876471D01*
X96625782Y-68876466D01*
X96685262Y-68748909D01*
X96716520Y-68681876D01*
X96770543Y-68480264D01*
X136159999Y-68480264D01*
X136161122Y-68494325D01*
X136171229Y-68498000D01*
X136866685Y-68498000D01*
X136881924Y-68493525D01*
X136883129Y-68492135D01*
X136884800Y-68484452D01*
X136884800Y-68479885D01*
X137392800Y-68479885D01*
X137397275Y-68495124D01*
X137398665Y-68496329D01*
X137406348Y-68498000D01*
X138098190Y-68498000D01*
X138112550Y-68493784D01*
X138114609Y-68481305D01*
X138107333Y-68409669D01*
X138104779Y-68397230D01*
X138048880Y-68218857D01*
X138043871Y-68207169D01*
X137953247Y-68043680D01*
X137945996Y-68033247D01*
X137824344Y-67891312D01*
X137815153Y-67882559D01*
X137667436Y-67767979D01*
X137656676Y-67761255D01*
X137488940Y-67678719D01*
X137477033Y-67674291D01*
X137410331Y-67656917D01*
X137396236Y-67657351D01*
X137392800Y-67665532D01*
X137392800Y-68479885D01*
X136884800Y-68479885D01*
X136884800Y-67666133D01*
X136880827Y-67652602D01*
X136874725Y-67651725D01*
X136711655Y-67711723D01*
X136700227Y-67717297D01*
X136541360Y-67815799D01*
X136531296Y-67823549D01*
X136395478Y-67951986D01*
X136387175Y-67961606D01*
X136279955Y-68114731D01*
X136273758Y-68125820D01*
X136199516Y-68297382D01*
X136195677Y-68309485D01*
X136159999Y-68480264D01*
X96770543Y-68480264D01*
X96773515Y-68469171D01*
X96792707Y-68249800D01*
X96773515Y-68030429D01*
X96716520Y-67817724D01*
X96651701Y-67678719D01*
X96625782Y-67623134D01*
X96625779Y-67623129D01*
X96623456Y-67618147D01*
X96600274Y-67585040D01*
X96500308Y-67442273D01*
X96500306Y-67442270D01*
X96497149Y-67437762D01*
X96341438Y-67282051D01*
X96319044Y-67266370D01*
X96245091Y-67214588D01*
X96161054Y-67155744D01*
X95961476Y-67062680D01*
X95748771Y-67005685D01*
X95529400Y-66986493D01*
X95310029Y-67005685D01*
X95097324Y-67062680D01*
X95012978Y-67102011D01*
X94902734Y-67153418D01*
X94902729Y-67153421D01*
X94897747Y-67155744D01*
X94893240Y-67158900D01*
X94893238Y-67158901D01*
X94721873Y-67278892D01*
X94721870Y-67278894D01*
X94717362Y-67282051D01*
X94561651Y-67437762D01*
X94558494Y-67442270D01*
X94558492Y-67442273D01*
X94458526Y-67585040D01*
X94435344Y-67618147D01*
X94433021Y-67623129D01*
X94433018Y-67623134D01*
X94407099Y-67678719D01*
X94342280Y-67817724D01*
X94285285Y-68030429D01*
X94266093Y-68249800D01*
X94285285Y-68469171D01*
X94292693Y-68496817D01*
X94293087Y-68498286D01*
X94291397Y-68569263D01*
X94260475Y-68619992D01*
X94197830Y-68682637D01*
X94135518Y-68716663D01*
X94093817Y-68718656D01*
X93985329Y-68705720D01*
X93978326Y-68706456D01*
X93978325Y-68706456D01*
X93823101Y-68722770D01*
X93823097Y-68722771D01*
X93816093Y-68723507D01*
X93799165Y-68729270D01*
X93661673Y-68776075D01*
X93661670Y-68776076D01*
X93655003Y-68778346D01*
X93649005Y-68782036D01*
X93649003Y-68782037D01*
X93516065Y-68863821D01*
X93516063Y-68863823D01*
X93510066Y-68867512D01*
X93388486Y-68986573D01*
X93384675Y-68992487D01*
X93384673Y-68992489D01*
X93310429Y-69107692D01*
X93296304Y-69129610D01*
X93293894Y-69136232D01*
X93244897Y-69270851D01*
X93238103Y-69289516D01*
X93216775Y-69458343D01*
X93233381Y-69627699D01*
X93235605Y-69634384D01*
X93235605Y-69634385D01*
X93247340Y-69669661D01*
X93287094Y-69789167D01*
X93290742Y-69795191D01*
X93290745Y-69795197D01*
X93306545Y-69821286D01*
X93324724Y-69889916D01*
X93304680Y-69954812D01*
X93300124Y-69961882D01*
X93296304Y-69967810D01*
X93238103Y-70127716D01*
X93216775Y-70296543D01*
X90191389Y-70296543D01*
X96465238Y-64022695D01*
X136162991Y-64022695D01*
X136170267Y-64094331D01*
X136172821Y-64106770D01*
X136228720Y-64285143D01*
X136233729Y-64296831D01*
X136324353Y-64460320D01*
X136331604Y-64470753D01*
X136453256Y-64612688D01*
X136462447Y-64621441D01*
X136610164Y-64736021D01*
X136620924Y-64742745D01*
X136788660Y-64825281D01*
X136800567Y-64829709D01*
X136867269Y-64847083D01*
X136881364Y-64846649D01*
X136884800Y-64838468D01*
X136884800Y-64837867D01*
X137392800Y-64837867D01*
X137396773Y-64851398D01*
X137402875Y-64852275D01*
X137565945Y-64792277D01*
X137577373Y-64786703D01*
X137736240Y-64688201D01*
X137746304Y-64680451D01*
X137882122Y-64552014D01*
X137890425Y-64542394D01*
X137997645Y-64389269D01*
X138003842Y-64378180D01*
X138078084Y-64206618D01*
X138081923Y-64194515D01*
X138117601Y-64023736D01*
X138116478Y-64009675D01*
X138106371Y-64006000D01*
X137410915Y-64006000D01*
X137395676Y-64010475D01*
X137394471Y-64011865D01*
X137392800Y-64019548D01*
X137392800Y-64837867D01*
X136884800Y-64837867D01*
X136884800Y-64024115D01*
X136880325Y-64008876D01*
X136878935Y-64007671D01*
X136871252Y-64006000D01*
X136179410Y-64006000D01*
X136165050Y-64010216D01*
X136162991Y-64022695D01*
X96465238Y-64022695D01*
X97007669Y-63480264D01*
X136159999Y-63480264D01*
X136161122Y-63494325D01*
X136171229Y-63498000D01*
X136866685Y-63498000D01*
X136881924Y-63493525D01*
X136883129Y-63492135D01*
X136884800Y-63484452D01*
X136884800Y-63479885D01*
X137392800Y-63479885D01*
X137397275Y-63495124D01*
X137398665Y-63496329D01*
X137406348Y-63498000D01*
X138098190Y-63498000D01*
X138112550Y-63493784D01*
X138114609Y-63481305D01*
X138107333Y-63409669D01*
X138104779Y-63397230D01*
X138048880Y-63218857D01*
X138043871Y-63207169D01*
X137953247Y-63043680D01*
X137945996Y-63033247D01*
X137931278Y-63016075D01*
X138590491Y-63016075D01*
X138645630Y-63165936D01*
X138651192Y-63177342D01*
X138746491Y-63331044D01*
X138754240Y-63341105D01*
X138878490Y-63472496D01*
X138888110Y-63480799D01*
X139036243Y-63584523D01*
X139047331Y-63590720D01*
X139213295Y-63662540D01*
X139225407Y-63666382D01*
X139403934Y-63703677D01*
X139413466Y-63704915D01*
X139416689Y-63705000D01*
X139566685Y-63705000D01*
X139581924Y-63700525D01*
X139583129Y-63699135D01*
X139584800Y-63691452D01*
X139584800Y-63024115D01*
X139580325Y-63008876D01*
X139578935Y-63007671D01*
X139571252Y-63006000D01*
X138604899Y-63006000D01*
X138591368Y-63009973D01*
X138590491Y-63016075D01*
X137931278Y-63016075D01*
X137824344Y-62891312D01*
X137815153Y-62882559D01*
X137667436Y-62767979D01*
X137656676Y-62761255D01*
X137488940Y-62678719D01*
X137477033Y-62674291D01*
X137410331Y-62656917D01*
X137396236Y-62657351D01*
X137392800Y-62665532D01*
X137392800Y-63479885D01*
X136884800Y-63479885D01*
X136884800Y-62666133D01*
X136880827Y-62652602D01*
X136874725Y-62651725D01*
X136711655Y-62711723D01*
X136700227Y-62717297D01*
X136541360Y-62815799D01*
X136531296Y-62823549D01*
X136395478Y-62951986D01*
X136387175Y-62961606D01*
X136279955Y-63114731D01*
X136273758Y-63125820D01*
X136199516Y-63297382D01*
X136195677Y-63309485D01*
X136159999Y-63480264D01*
X97007669Y-63480264D01*
X99151528Y-61336405D01*
X99213840Y-61302379D01*
X99240623Y-61299500D01*
X110995679Y-61299500D01*
X111064672Y-61320068D01*
X111101603Y-61344235D01*
X111147652Y-61398272D01*
X111157175Y-61468627D01*
X111127150Y-61532962D01*
X111121705Y-61538762D01*
X110761600Y-61898867D01*
X110713110Y-61929050D01*
X110570273Y-61977675D01*
X110570270Y-61977676D01*
X110563603Y-61979946D01*
X110557605Y-61983636D01*
X110557603Y-61983637D01*
X110424665Y-62065421D01*
X110424663Y-62065423D01*
X110418666Y-62069112D01*
X110390747Y-62096453D01*
X110304015Y-62181388D01*
X110297086Y-62188173D01*
X110293275Y-62194087D01*
X110293273Y-62194089D01*
X110208721Y-62325287D01*
X110204904Y-62331210D01*
X110146703Y-62491116D01*
X110125375Y-62659943D01*
X110141981Y-62829299D01*
X110195694Y-62990767D01*
X110199341Y-62996789D01*
X110199342Y-62996791D01*
X110251566Y-63083022D01*
X110283846Y-63136323D01*
X110402055Y-63258732D01*
X110424984Y-63273736D01*
X110535022Y-63345743D01*
X110544446Y-63351910D01*
X110551050Y-63354366D01*
X110551052Y-63354367D01*
X110587444Y-63367901D01*
X110703941Y-63411226D01*
X110872615Y-63433732D01*
X110879626Y-63433094D01*
X110879630Y-63433094D01*
X111035062Y-63418948D01*
X111042083Y-63418309D01*
X111048785Y-63416131D01*
X111048787Y-63416131D01*
X111197223Y-63367901D01*
X111197226Y-63367900D01*
X111203922Y-63365724D01*
X111350090Y-63278590D01*
X111355184Y-63273739D01*
X111355188Y-63273736D01*
X111449518Y-63183906D01*
X111473321Y-63161239D01*
X111490331Y-63135638D01*
X111558359Y-63033247D01*
X111567491Y-63019502D01*
X111627919Y-62860425D01*
X111628845Y-62853839D01*
X111661709Y-62796223D01*
X111977464Y-62480469D01*
X138594718Y-62480469D01*
X138595152Y-62494564D01*
X138603333Y-62498000D01*
X139566685Y-62498000D01*
X139581924Y-62493525D01*
X139583129Y-62492135D01*
X139584800Y-62484452D01*
X139584800Y-61817115D01*
X139580325Y-61801876D01*
X139578935Y-61800671D01*
X139571252Y-61799000D01*
X139463608Y-61799000D01*
X139457233Y-61799323D01*
X139322533Y-61813005D01*
X139310093Y-61815559D01*
X139137536Y-61869635D01*
X139125848Y-61874644D01*
X138967689Y-61962314D01*
X138957256Y-61969565D01*
X138819957Y-62087244D01*
X138811188Y-62096453D01*
X138700358Y-62239333D01*
X138693622Y-62250113D01*
X138613781Y-62412374D01*
X138609355Y-62424273D01*
X138594718Y-62480469D01*
X111977464Y-62480469D01*
X112045559Y-62412374D01*
X112450488Y-62007445D01*
X112458807Y-61999875D01*
X112465303Y-61995753D01*
X112512086Y-61945934D01*
X112514840Y-61943093D01*
X112534639Y-61923294D01*
X112537068Y-61920163D01*
X112537072Y-61920158D01*
X112537139Y-61920072D01*
X112544847Y-61911047D01*
X112569791Y-61884485D01*
X112569794Y-61884481D01*
X112575217Y-61878706D01*
X112579036Y-61871760D01*
X112579039Y-61871755D01*
X112585022Y-61860872D01*
X112595878Y-61844344D01*
X112603492Y-61834529D01*
X112603494Y-61834526D01*
X112608349Y-61828267D01*
X112611495Y-61820997D01*
X112611498Y-61820992D01*
X112625969Y-61787550D01*
X112631192Y-61776889D01*
X112648749Y-61744953D01*
X112648751Y-61744948D01*
X112652569Y-61738003D01*
X112654539Y-61730329D01*
X112654542Y-61730322D01*
X112657632Y-61718287D01*
X112664036Y-61699582D01*
X112668967Y-61688187D01*
X112672117Y-61680908D01*
X112679060Y-61637073D01*
X112681467Y-61625451D01*
X112684300Y-61614417D01*
X112692500Y-61582482D01*
X112692500Y-61562135D01*
X112694051Y-61542424D01*
X112695995Y-61530150D01*
X112697235Y-61522321D01*
X112696115Y-61510474D01*
X112693059Y-61478144D01*
X112692500Y-61466286D01*
X112692500Y-59668452D01*
X112713552Y-59598725D01*
X112731990Y-59570973D01*
X112735891Y-59565102D01*
X112796319Y-59406025D01*
X112820001Y-59237513D01*
X112820118Y-59229164D01*
X112820244Y-59220161D01*
X112820244Y-59220155D01*
X112820299Y-59216200D01*
X112801331Y-59047092D01*
X112745368Y-58886389D01*
X112739383Y-58876810D01*
X112685948Y-58791299D01*
X112655192Y-58742079D01*
X112648869Y-58735711D01*
X112555795Y-58641985D01*
X112535286Y-58621332D01*
X112519039Y-58611021D01*
X112451061Y-58567881D01*
X112391608Y-58530151D01*
X112231300Y-58473068D01*
X112062329Y-58452920D01*
X112055326Y-58453656D01*
X112055325Y-58453656D01*
X111900101Y-58469970D01*
X111900097Y-58469971D01*
X111893093Y-58470707D01*
X111886422Y-58472978D01*
X111738673Y-58523275D01*
X111738670Y-58523276D01*
X111732003Y-58525546D01*
X111726005Y-58529236D01*
X111726003Y-58529237D01*
X111593065Y-58611021D01*
X111593063Y-58611023D01*
X111587066Y-58614712D01*
X111465486Y-58733773D01*
X111461675Y-58739687D01*
X111461673Y-58739689D01*
X111401824Y-58832556D01*
X111373304Y-58876810D01*
X111340572Y-58966740D01*
X111319514Y-59024598D01*
X111315103Y-59036716D01*
X111293775Y-59205543D01*
X111310381Y-59374899D01*
X111364094Y-59536367D01*
X111367743Y-59542392D01*
X111403276Y-59601064D01*
X111421500Y-59666336D01*
X111421500Y-59790551D01*
X111401498Y-59858672D01*
X111347842Y-59905165D01*
X111308671Y-59915861D01*
X111283493Y-59918507D01*
X111276822Y-59920778D01*
X111129073Y-59971075D01*
X111129070Y-59971076D01*
X111122403Y-59973346D01*
X111063121Y-60009817D01*
X110997098Y-60028500D01*
X99004220Y-60028500D01*
X98992986Y-60027970D01*
X98985481Y-60026292D01*
X98917771Y-60028420D01*
X98917188Y-60028438D01*
X98913231Y-60028500D01*
X98885217Y-60028500D01*
X98881292Y-60028996D01*
X98881291Y-60028996D01*
X98881196Y-60029008D01*
X98869351Y-60029941D01*
X98839530Y-60030878D01*
X98832918Y-60031086D01*
X98832917Y-60031086D01*
X98824995Y-60031335D01*
X98805452Y-60037013D01*
X98786088Y-60041023D01*
X98773760Y-60042580D01*
X98773758Y-60042580D01*
X98765901Y-60043573D01*
X98758537Y-60046489D01*
X98758532Y-60046490D01*
X98724644Y-60059907D01*
X98713415Y-60063752D01*
X98696735Y-60068598D01*
X98670807Y-60076131D01*
X98663980Y-60080169D01*
X98663977Y-60080170D01*
X98653294Y-60086488D01*
X98635536Y-60095188D01*
X98623985Y-60099761D01*
X98623979Y-60099765D01*
X98616612Y-60102681D01*
X98610201Y-60107339D01*
X98610199Y-60107340D01*
X98580712Y-60128764D01*
X98570790Y-60135281D01*
X98539432Y-60153826D01*
X98539428Y-60153829D01*
X98532602Y-60157866D01*
X98518218Y-60172250D01*
X98503184Y-60185091D01*
X98486713Y-60197058D01*
X98481660Y-60203166D01*
X98458423Y-60231255D01*
X98450433Y-60240035D01*
X88384200Y-70306267D01*
X88335710Y-70336450D01*
X88192873Y-70385075D01*
X88192870Y-70385076D01*
X88186203Y-70387346D01*
X88180205Y-70391036D01*
X88180203Y-70391037D01*
X88047265Y-70472821D01*
X88047263Y-70472823D01*
X88041266Y-70476512D01*
X87970710Y-70545607D01*
X87948863Y-70567001D01*
X87919686Y-70595573D01*
X87915875Y-70601487D01*
X87915873Y-70601489D01*
X87843131Y-70714362D01*
X87827504Y-70738610D01*
X87769303Y-70898516D01*
X87747975Y-71067343D01*
X84518390Y-71067343D01*
X85932883Y-69652850D01*
X85941209Y-69645274D01*
X85947703Y-69641153D01*
X85994486Y-69591334D01*
X85997240Y-69588493D01*
X86017039Y-69568694D01*
X86019463Y-69565569D01*
X86019471Y-69565560D01*
X86019537Y-69565474D01*
X86027245Y-69556449D01*
X86052190Y-69529885D01*
X86057617Y-69524106D01*
X86067423Y-69506269D01*
X86078273Y-69489753D01*
X86090750Y-69473667D01*
X86108376Y-69432934D01*
X86113593Y-69422286D01*
X86126344Y-69399091D01*
X86134969Y-69383403D01*
X86136940Y-69375728D01*
X86136942Y-69375722D01*
X86140031Y-69363689D01*
X86146434Y-69344987D01*
X86154517Y-69326308D01*
X86161460Y-69282473D01*
X86163867Y-69270851D01*
X86174900Y-69227882D01*
X86174900Y-69207535D01*
X86176451Y-69187824D01*
X86178395Y-69175550D01*
X86179635Y-69167721D01*
X86176032Y-69129610D01*
X86175459Y-69123544D01*
X86174900Y-69111686D01*
X86174900Y-68355252D01*
X86195952Y-68285525D01*
X86214390Y-68257773D01*
X86218291Y-68251902D01*
X86278719Y-68092825D01*
X86302401Y-67924313D01*
X86302699Y-67903000D01*
X86283731Y-67733892D01*
X86275939Y-67711515D01*
X86234217Y-67591708D01*
X86227768Y-67573189D01*
X86221783Y-67563610D01*
X86193560Y-67518446D01*
X86137592Y-67428879D01*
X86017686Y-67308132D01*
X86011683Y-67304322D01*
X85939622Y-67258591D01*
X85874008Y-67216951D01*
X85854056Y-67209846D01*
X85796594Y-67168154D01*
X85770793Y-67102011D01*
X85784848Y-67032420D01*
X85834295Y-66981474D01*
X85844274Y-66976402D01*
X85848029Y-66974699D01*
X85854722Y-66972524D01*
X86000890Y-66885390D01*
X86005984Y-66880539D01*
X86005988Y-66880536D01*
X86100858Y-66790192D01*
X86124121Y-66768039D01*
X86218291Y-66626302D01*
X86278719Y-66467225D01*
X86302401Y-66298713D01*
X86302699Y-66277400D01*
X86283731Y-66108292D01*
X86280298Y-66098432D01*
X86252254Y-66017902D01*
X86227768Y-65947589D01*
X86137592Y-65803279D01*
X86116947Y-65782489D01*
X86095332Y-65760722D01*
X86061525Y-65698291D01*
X86066838Y-65627493D01*
X86079791Y-65602212D01*
X86087390Y-65590775D01*
X86087394Y-65590768D01*
X86091291Y-65584902D01*
X86102207Y-65556167D01*
X86149216Y-65432414D01*
X86151719Y-65425825D01*
X86175401Y-65257313D01*
X86175699Y-65236000D01*
X86172273Y-65205454D01*
X86184558Y-65135529D01*
X86232697Y-65083345D01*
X86301406Y-65065471D01*
X86368872Y-65087582D01*
X86386583Y-65102315D01*
X87689436Y-66405168D01*
X87719899Y-66454491D01*
X87767494Y-66597567D01*
X87771141Y-66603589D01*
X87771142Y-66603591D01*
X87850016Y-66733826D01*
X87855646Y-66743123D01*
X87973855Y-66865532D01*
X88116246Y-66958710D01*
X88122850Y-66961166D01*
X88122852Y-66961167D01*
X88159244Y-66974701D01*
X88275741Y-67018026D01*
X88444415Y-67040532D01*
X88451426Y-67039894D01*
X88451430Y-67039894D01*
X88606862Y-67025748D01*
X88613883Y-67025109D01*
X88620585Y-67022931D01*
X88620587Y-67022931D01*
X88769023Y-66974701D01*
X88769026Y-66974700D01*
X88775722Y-66972524D01*
X88921890Y-66885390D01*
X88926984Y-66880539D01*
X88926988Y-66880536D01*
X89021858Y-66790192D01*
X89045121Y-66768039D01*
X89139291Y-66626302D01*
X89199719Y-66467225D01*
X89223401Y-66298713D01*
X89223699Y-66277400D01*
X89204731Y-66108292D01*
X89202206Y-66101042D01*
X89173254Y-66017902D01*
X89169740Y-65946992D01*
X89187295Y-65906740D01*
X89215491Y-65864302D01*
X89275919Y-65705225D01*
X89299601Y-65536713D01*
X89299899Y-65515400D01*
X89280931Y-65346292D01*
X89224968Y-65185589D01*
X89221235Y-65179615D01*
X89221233Y-65179611D01*
X89191246Y-65131622D01*
X89172100Y-65064852D01*
X89172100Y-63689432D01*
X89172630Y-63678193D01*
X89174309Y-63670681D01*
X89172162Y-63602369D01*
X89172100Y-63598412D01*
X89172100Y-63570417D01*
X89171592Y-63566394D01*
X89170659Y-63554552D01*
X89169514Y-63518118D01*
X89169265Y-63510196D01*
X89163588Y-63490657D01*
X89159579Y-63471296D01*
X89158022Y-63458968D01*
X89158019Y-63458958D01*
X89157027Y-63451101D01*
X89154109Y-63443730D01*
X89140694Y-63409846D01*
X89136849Y-63398619D01*
X89124469Y-63356007D01*
X89115656Y-63341105D01*
X89114110Y-63338491D01*
X89105413Y-63320741D01*
X89097919Y-63301812D01*
X89071838Y-63265914D01*
X89065322Y-63255994D01*
X89046773Y-63224629D01*
X89046771Y-63224626D01*
X89042735Y-63217802D01*
X89028347Y-63203414D01*
X89015506Y-63188380D01*
X89008202Y-63178327D01*
X89003542Y-63171913D01*
X88969350Y-63143627D01*
X88960571Y-63135638D01*
X84791673Y-58966740D01*
X84757647Y-58904428D01*
X84762712Y-58833613D01*
X84805259Y-58776777D01*
X84854571Y-58754398D01*
X84884419Y-58748054D01*
X84926230Y-58739167D01*
X84926233Y-58739166D01*
X84932688Y-58737794D01*
X84938719Y-58735109D01*
X85101122Y-58662803D01*
X85101124Y-58662802D01*
X85107152Y-58660118D01*
X85261653Y-58547866D01*
X85283795Y-58523275D01*
X85385021Y-58410852D01*
X85385022Y-58410851D01*
X85389440Y-58405944D01*
X85473739Y-58259934D01*
X85481623Y-58246279D01*
X85481624Y-58246278D01*
X85484927Y-58240556D01*
X85543942Y-58058928D01*
X85563904Y-57869000D01*
X85561424Y-57845404D01*
X85544632Y-57685635D01*
X85544632Y-57685633D01*
X85543942Y-57679072D01*
X85484927Y-57497444D01*
X85480086Y-57489058D01*
X85406787Y-57362102D01*
X85389440Y-57332056D01*
X85318264Y-57253007D01*
X85287546Y-57189000D01*
X85285900Y-57168697D01*
X85285900Y-57161632D01*
X85286430Y-57150393D01*
X85288109Y-57142881D01*
X85286727Y-57098895D01*
X133564851Y-57098895D01*
X133565148Y-57104048D01*
X133565148Y-57104051D01*
X133570602Y-57198637D01*
X133577710Y-57321915D01*
X133578847Y-57326961D01*
X133578848Y-57326967D01*
X133598719Y-57415139D01*
X133626822Y-57539839D01*
X133710866Y-57746816D01*
X133713565Y-57751220D01*
X133767331Y-57838958D01*
X133827587Y-57937288D01*
X133973850Y-58106138D01*
X134145726Y-58248832D01*
X134338600Y-58361538D01*
X134547292Y-58441230D01*
X134552360Y-58442261D01*
X134552363Y-58442262D01*
X134657204Y-58463592D01*
X134766197Y-58485767D01*
X134771372Y-58485957D01*
X134771374Y-58485957D01*
X134984273Y-58493764D01*
X134984277Y-58493764D01*
X134989437Y-58493953D01*
X134994557Y-58493297D01*
X134994559Y-58493297D01*
X135205888Y-58466225D01*
X135205889Y-58466225D01*
X135211016Y-58465568D01*
X135215966Y-58464083D01*
X135420029Y-58402861D01*
X135420034Y-58402859D01*
X135424984Y-58401374D01*
X135625594Y-58303096D01*
X135690144Y-58257053D01*
X138667577Y-58257053D01*
X138672858Y-58264107D01*
X138834356Y-58358479D01*
X138843642Y-58362929D01*
X139042601Y-58438903D01*
X139052499Y-58441779D01*
X139261195Y-58484238D01*
X139271423Y-58485457D01*
X139484250Y-58493262D01*
X139494536Y-58492795D01*
X139705785Y-58465734D01*
X139715862Y-58463592D01*
X139919855Y-58402391D01*
X139929442Y-58398633D01*
X140120698Y-58304938D01*
X140129544Y-58299665D01*
X140176847Y-58265923D01*
X140185248Y-58255223D01*
X140178260Y-58242070D01*
X139440412Y-57504222D01*
X139426468Y-57496608D01*
X139424635Y-57496739D01*
X139418020Y-57500990D01*
X138674337Y-58244673D01*
X138667577Y-58257053D01*
X135690144Y-58257053D01*
X135807460Y-58173373D01*
X135965696Y-58015689D01*
X136025194Y-57932889D01*
X136093035Y-57838477D01*
X136096053Y-57834277D01*
X136132462Y-57760610D01*
X136192736Y-57638653D01*
X136192737Y-57638651D01*
X136195030Y-57634011D01*
X136259970Y-57420269D01*
X136289129Y-57198790D01*
X136290756Y-57132200D01*
X136288443Y-57104063D01*
X138065650Y-57104063D01*
X138077909Y-57316677D01*
X138079345Y-57326897D01*
X138126165Y-57534646D01*
X138129245Y-57544475D01*
X138209370Y-57741803D01*
X138214013Y-57750994D01*
X138294060Y-57881620D01*
X138304516Y-57891080D01*
X138313294Y-57887296D01*
X139055578Y-57145012D01*
X139063192Y-57131068D01*
X139063061Y-57129235D01*
X139058810Y-57122620D01*
X138317449Y-56381259D01*
X138305913Y-56374959D01*
X138293631Y-56384582D01*
X138245689Y-56454862D01*
X138240604Y-56463813D01*
X138150938Y-56656983D01*
X138147375Y-56666670D01*
X138090464Y-56871881D01*
X138088533Y-56882000D01*
X138065902Y-57093774D01*
X138065650Y-57104063D01*
X136288443Y-57104063D01*
X136272452Y-56909561D01*
X136218031Y-56692902D01*
X136128954Y-56488040D01*
X136007614Y-56300477D01*
X135857270Y-56135251D01*
X135853219Y-56132052D01*
X135853215Y-56132048D01*
X135696938Y-56008627D01*
X138668823Y-56008627D01*
X138675568Y-56020958D01*
X139414788Y-56760178D01*
X139428732Y-56767792D01*
X139430565Y-56767661D01*
X139437180Y-56763410D01*
X140180989Y-56019601D01*
X140188010Y-56006744D01*
X140181211Y-55997413D01*
X140177154Y-55994718D01*
X139990717Y-55891799D01*
X139981305Y-55887569D01*
X139780559Y-55816480D01*
X139770589Y-55813846D01*
X139560927Y-55776501D01*
X139550673Y-55775531D01*
X139337716Y-55772928D01*
X139327432Y-55773648D01*
X139116921Y-55805861D01*
X139106893Y-55808250D01*
X138904468Y-55874412D01*
X138894959Y-55878409D01*
X138706066Y-55976740D01*
X138697334Y-55982239D01*
X138677277Y-55997299D01*
X138668823Y-56008627D01*
X135696938Y-56008627D01*
X135686014Y-56000000D01*
X135686010Y-55999998D01*
X135681959Y-55996798D01*
X135486389Y-55888838D01*
X135481520Y-55887114D01*
X135481516Y-55887112D01*
X135280687Y-55815995D01*
X135280683Y-55815994D01*
X135275812Y-55814269D01*
X135270719Y-55813362D01*
X135270716Y-55813361D01*
X135060973Y-55776000D01*
X135060967Y-55775999D01*
X135055884Y-55775094D01*
X134982052Y-55774192D01*
X134837681Y-55772428D01*
X134837679Y-55772428D01*
X134832511Y-55772365D01*
X134611691Y-55806155D01*
X134399356Y-55875557D01*
X134201207Y-55978707D01*
X134197074Y-55981810D01*
X134197071Y-55981812D01*
X134055037Y-56088454D01*
X134022565Y-56112835D01*
X133868229Y-56274338D01*
X133865315Y-56278610D01*
X133865314Y-56278611D01*
X133853004Y-56296657D01*
X133742343Y-56458880D01*
X133727125Y-56491664D01*
X133653384Y-56650527D01*
X133648288Y-56661505D01*
X133588589Y-56876770D01*
X133564851Y-57098895D01*
X85286727Y-57098895D01*
X85285962Y-57074569D01*
X85285900Y-57070612D01*
X85285900Y-57042617D01*
X85285392Y-57038594D01*
X85284459Y-57026752D01*
X85283314Y-56990320D01*
X85283065Y-56982395D01*
X85277387Y-56962851D01*
X85273377Y-56943488D01*
X85271820Y-56931160D01*
X85271820Y-56931158D01*
X85270827Y-56923301D01*
X85267911Y-56915937D01*
X85267910Y-56915932D01*
X85254493Y-56882044D01*
X85250648Y-56870815D01*
X85240480Y-56835819D01*
X85238269Y-56828207D01*
X85227910Y-56810691D01*
X85219213Y-56792941D01*
X85211719Y-56774012D01*
X85185638Y-56738114D01*
X85179122Y-56728194D01*
X85160573Y-56696829D01*
X85160571Y-56696826D01*
X85156535Y-56690002D01*
X85142147Y-56675614D01*
X85129306Y-56660580D01*
X85122002Y-56650527D01*
X85117342Y-56644113D01*
X85083150Y-56615827D01*
X85074371Y-56607838D01*
X82833192Y-54366659D01*
X82799166Y-54304347D01*
X82804231Y-54233532D01*
X82846778Y-54176696D01*
X82913298Y-54151885D01*
X82972022Y-54161796D01*
X83045112Y-54193197D01*
X83050742Y-54194471D01*
X83114314Y-54208856D01*
X83257260Y-54241202D01*
X83263031Y-54241429D01*
X83263033Y-54241429D01*
X83336020Y-54244296D01*
X83474605Y-54249741D01*
X83484754Y-54248270D01*
X83515363Y-54243832D01*
X83585649Y-54253853D01*
X83622537Y-54279433D01*
X84571620Y-55228516D01*
X84577473Y-55234781D01*
X84615682Y-55278581D01*
X84621900Y-55282951D01*
X84668193Y-55315486D01*
X84673489Y-55319419D01*
X84718031Y-55354344D01*
X84718035Y-55354346D01*
X84724012Y-55359033D01*
X84730934Y-55362158D01*
X84732963Y-55363387D01*
X84748310Y-55372140D01*
X84750398Y-55373259D01*
X84756616Y-55377630D01*
X84763695Y-55380390D01*
X84763697Y-55380391D01*
X84792345Y-55391560D01*
X84816419Y-55400946D01*
X84822495Y-55403500D01*
X84874081Y-55426792D01*
X84881009Y-55429920D01*
X84888479Y-55431304D01*
X84890734Y-55432011D01*
X84907718Y-55436849D01*
X84910027Y-55437442D01*
X84917108Y-55440203D01*
X84924637Y-55441194D01*
X84924640Y-55441195D01*
X84980756Y-55448583D01*
X84987270Y-55449615D01*
X85042915Y-55459928D01*
X85042916Y-55459928D01*
X85050383Y-55461312D01*
X85057963Y-55460875D01*
X85057964Y-55460875D01*
X85112869Y-55457709D01*
X85120122Y-55457500D01*
X85770599Y-55457500D01*
X85838720Y-55477502D01*
X85844660Y-55481564D01*
X85920848Y-55536918D01*
X85926876Y-55539602D01*
X85926878Y-55539603D01*
X86069745Y-55603211D01*
X86095312Y-55614594D01*
X86188713Y-55634447D01*
X86275656Y-55652928D01*
X86275661Y-55652928D01*
X86282113Y-55654300D01*
X86473087Y-55654300D01*
X86479539Y-55652928D01*
X86479544Y-55652928D01*
X86566487Y-55634447D01*
X86659888Y-55614594D01*
X86685455Y-55603211D01*
X86828322Y-55539603D01*
X86828324Y-55539602D01*
X86834352Y-55536918D01*
X86910540Y-55481564D01*
X86977408Y-55457706D01*
X86984601Y-55457500D01*
X100273999Y-55457500D01*
X100342120Y-55477502D01*
X100348060Y-55481564D01*
X100424248Y-55536918D01*
X100430276Y-55539602D01*
X100430278Y-55539603D01*
X100573145Y-55603211D01*
X100598712Y-55614594D01*
X100692113Y-55634447D01*
X100779056Y-55652928D01*
X100779061Y-55652928D01*
X100785513Y-55654300D01*
X100976487Y-55654300D01*
X100982939Y-55652928D01*
X100982944Y-55652928D01*
X101069887Y-55634447D01*
X101163288Y-55614594D01*
X101188855Y-55603211D01*
X101331722Y-55539603D01*
X101331724Y-55539602D01*
X101337752Y-55536918D01*
X101492253Y-55424666D01*
X101620040Y-55282744D01*
X101702000Y-55140785D01*
X101712223Y-55123079D01*
X101712224Y-55123078D01*
X101715527Y-55117356D01*
X101774542Y-54935728D01*
X101781104Y-54873300D01*
X101793814Y-54752365D01*
X101794504Y-54745800D01*
X101786544Y-54670065D01*
X101775232Y-54562435D01*
X101775232Y-54562433D01*
X101774542Y-54555872D01*
X101715527Y-54374244D01*
X101620040Y-54208856D01*
X101603891Y-54190920D01*
X101496675Y-54071845D01*
X101496674Y-54071844D01*
X101492253Y-54066934D01*
X101393157Y-53994936D01*
X101343094Y-53958563D01*
X101343093Y-53958562D01*
X101337752Y-53954682D01*
X101331724Y-53951998D01*
X101331722Y-53951997D01*
X101169319Y-53879691D01*
X101169318Y-53879691D01*
X101163288Y-53877006D01*
X101069887Y-53857153D01*
X100982944Y-53838672D01*
X100982939Y-53838672D01*
X100976487Y-53837300D01*
X100785513Y-53837300D01*
X100779061Y-53838672D01*
X100779056Y-53838672D01*
X100692113Y-53857153D01*
X100598712Y-53877006D01*
X100592682Y-53879691D01*
X100592681Y-53879691D01*
X100430278Y-53951997D01*
X100430276Y-53951998D01*
X100424248Y-53954682D01*
X100418907Y-53958562D01*
X100418906Y-53958563D01*
X100348060Y-54010036D01*
X100281192Y-54033894D01*
X100273999Y-54034100D01*
X88412041Y-54034100D01*
X88343920Y-54014098D01*
X88297427Y-53960442D01*
X88287323Y-53890168D01*
X88315167Y-53827531D01*
X88387820Y-53740175D01*
X88394344Y-53730682D01*
X88494931Y-53551072D01*
X88499610Y-53540563D01*
X88565786Y-53345617D01*
X88568417Y-53334657D01*
X88566440Y-53320792D01*
X88552874Y-53316800D01*
X87284400Y-53316800D01*
X87216279Y-53296798D01*
X87169786Y-53243142D01*
X87158400Y-53190800D01*
X87158400Y-52934800D01*
X87178402Y-52866679D01*
X87232058Y-52820186D01*
X87284400Y-52808800D01*
X88551885Y-52808800D01*
X88565416Y-52804827D01*
X88566585Y-52796692D01*
X88523125Y-52642594D01*
X88519003Y-52631855D01*
X88427949Y-52447217D01*
X88421938Y-52437408D01*
X88298760Y-52272451D01*
X88291071Y-52263911D01*
X88173091Y-52154852D01*
X88136646Y-52093923D01*
X88138927Y-52022963D01*
X88178050Y-51965453D01*
X88207175Y-51941230D01*
X88252846Y-51903246D01*
X88268434Y-51884503D01*
X128429543Y-51884503D01*
X128430102Y-51888747D01*
X128430102Y-51888751D01*
X128437147Y-51942262D01*
X128467068Y-52169534D01*
X128542929Y-52446836D01*
X128544613Y-52450784D01*
X128623980Y-52636855D01*
X128655723Y-52711276D01*
X128803361Y-52957961D01*
X128983113Y-53182328D01*
X129191651Y-53380223D01*
X129425117Y-53547986D01*
X129428912Y-53549995D01*
X129428913Y-53549996D01*
X129450669Y-53561515D01*
X129679192Y-53682512D01*
X129780493Y-53719583D01*
X129923451Y-53771898D01*
X129949173Y-53781311D01*
X130230064Y-53842555D01*
X130252453Y-53844317D01*
X130453082Y-53860107D01*
X130453091Y-53860107D01*
X130455539Y-53860300D01*
X130611071Y-53860300D01*
X130613207Y-53860154D01*
X130613218Y-53860154D01*
X130821348Y-53845965D01*
X130821354Y-53845964D01*
X130825625Y-53845673D01*
X130829820Y-53844804D01*
X130829822Y-53844804D01*
X130995861Y-53810419D01*
X131107142Y-53787374D01*
X131378143Y-53691407D01*
X131595760Y-53579087D01*
X131629805Y-53561515D01*
X131629806Y-53561515D01*
X131633612Y-53559550D01*
X131637113Y-53557089D01*
X131637117Y-53557087D01*
X131785724Y-53452644D01*
X131868823Y-53394241D01*
X132052604Y-53223461D01*
X132076279Y-53201461D01*
X132076281Y-53201458D01*
X132079422Y-53198540D01*
X132261513Y-52976068D01*
X132411727Y-52730942D01*
X132527283Y-52467698D01*
X132606044Y-52191206D01*
X132638133Y-51965734D01*
X132645946Y-51910836D01*
X132645946Y-51910834D01*
X132646551Y-51906584D01*
X132646579Y-51901374D01*
X132648035Y-51623383D01*
X132648035Y-51623376D01*
X132648057Y-51619097D01*
X132644362Y-51591026D01*
X132617035Y-51383464D01*
X132610532Y-51334066D01*
X132534671Y-51056764D01*
X132490156Y-50952400D01*
X132423563Y-50796276D01*
X132423561Y-50796272D01*
X132421877Y-50792324D01*
X132324270Y-50629235D01*
X132306112Y-50598895D01*
X133564851Y-50598895D01*
X133565148Y-50604048D01*
X133565148Y-50604051D01*
X133576004Y-50792324D01*
X133577710Y-50821915D01*
X133578847Y-50826961D01*
X133578848Y-50826967D01*
X133581929Y-50840636D01*
X133626822Y-51039839D01*
X133665061Y-51134011D01*
X133702392Y-51225946D01*
X133710866Y-51246816D01*
X133751052Y-51312394D01*
X133786427Y-51370120D01*
X133827587Y-51437288D01*
X133973850Y-51606138D01*
X134054835Y-51673373D01*
X134137378Y-51741901D01*
X134145726Y-51748832D01*
X134338600Y-51861538D01*
X134547292Y-51941230D01*
X134552360Y-51942261D01*
X134552363Y-51942262D01*
X134657204Y-51963592D01*
X134766197Y-51985767D01*
X134771372Y-51985957D01*
X134771374Y-51985957D01*
X134984273Y-51993764D01*
X134984277Y-51993764D01*
X134989437Y-51993953D01*
X134994557Y-51993297D01*
X134994559Y-51993297D01*
X135205888Y-51966225D01*
X135205889Y-51966225D01*
X135211016Y-51965568D01*
X135215966Y-51964083D01*
X135420029Y-51902861D01*
X135420034Y-51902859D01*
X135424984Y-51901374D01*
X135625594Y-51803096D01*
X135690144Y-51757053D01*
X138667577Y-51757053D01*
X138672858Y-51764107D01*
X138834356Y-51858479D01*
X138843642Y-51862929D01*
X139042601Y-51938903D01*
X139052499Y-51941779D01*
X139261195Y-51984238D01*
X139271423Y-51985457D01*
X139484250Y-51993262D01*
X139494536Y-51992795D01*
X139705785Y-51965734D01*
X139715862Y-51963592D01*
X139919855Y-51902391D01*
X139929442Y-51898633D01*
X140120698Y-51804938D01*
X140129544Y-51799665D01*
X140176847Y-51765923D01*
X140185248Y-51755223D01*
X140178260Y-51742070D01*
X139440412Y-51004222D01*
X139426468Y-50996608D01*
X139424635Y-50996739D01*
X139418020Y-51000990D01*
X138674337Y-51744673D01*
X138667577Y-51757053D01*
X135690144Y-51757053D01*
X135807460Y-51673373D01*
X135965696Y-51515689D01*
X136025194Y-51432889D01*
X136093035Y-51338477D01*
X136096053Y-51334277D01*
X136108909Y-51308266D01*
X136192736Y-51138653D01*
X136192737Y-51138651D01*
X136195030Y-51134011D01*
X136259970Y-50920269D01*
X136289129Y-50698790D01*
X136290443Y-50645012D01*
X136290674Y-50635565D01*
X136290674Y-50635561D01*
X136290756Y-50632200D01*
X136288443Y-50604063D01*
X138065650Y-50604063D01*
X138077909Y-50816677D01*
X138079345Y-50826897D01*
X138126165Y-51034646D01*
X138129245Y-51044475D01*
X138209370Y-51241803D01*
X138214013Y-51250994D01*
X138294060Y-51381620D01*
X138304516Y-51391080D01*
X138313294Y-51387296D01*
X139055578Y-50645012D01*
X139063192Y-50631068D01*
X139063061Y-50629235D01*
X139058810Y-50622620D01*
X138317449Y-49881259D01*
X138305913Y-49874959D01*
X138293631Y-49884582D01*
X138245689Y-49954862D01*
X138240604Y-49963813D01*
X138150938Y-50156983D01*
X138147375Y-50166670D01*
X138090464Y-50371881D01*
X138088533Y-50382000D01*
X138065902Y-50593774D01*
X138065650Y-50604063D01*
X136288443Y-50604063D01*
X136272452Y-50409561D01*
X136218031Y-50192902D01*
X136128954Y-49988040D01*
X136086992Y-49923176D01*
X136010422Y-49804817D01*
X136010420Y-49804814D01*
X136007614Y-49800477D01*
X135857270Y-49635251D01*
X135853219Y-49632052D01*
X135853215Y-49632048D01*
X135696938Y-49508627D01*
X138668823Y-49508627D01*
X138675568Y-49520958D01*
X139414788Y-50260178D01*
X139428732Y-50267792D01*
X139430565Y-50267661D01*
X139437180Y-50263410D01*
X140180989Y-49519601D01*
X140188010Y-49506744D01*
X140181211Y-49497413D01*
X140177154Y-49494718D01*
X139990717Y-49391799D01*
X139981305Y-49387569D01*
X139780559Y-49316480D01*
X139770589Y-49313846D01*
X139560927Y-49276501D01*
X139550673Y-49275531D01*
X139337716Y-49272928D01*
X139327432Y-49273648D01*
X139116921Y-49305861D01*
X139106893Y-49308250D01*
X138904468Y-49374412D01*
X138894959Y-49378409D01*
X138706066Y-49476740D01*
X138697334Y-49482239D01*
X138677277Y-49497299D01*
X138668823Y-49508627D01*
X135696938Y-49508627D01*
X135686014Y-49500000D01*
X135686010Y-49499998D01*
X135681959Y-49496798D01*
X135486389Y-49388838D01*
X135481520Y-49387114D01*
X135481516Y-49387112D01*
X135280687Y-49315995D01*
X135280683Y-49315994D01*
X135275812Y-49314269D01*
X135270719Y-49313362D01*
X135270716Y-49313361D01*
X135060973Y-49276000D01*
X135060967Y-49275999D01*
X135055884Y-49275094D01*
X134982052Y-49274192D01*
X134837681Y-49272428D01*
X134837679Y-49272428D01*
X134832511Y-49272365D01*
X134611691Y-49306155D01*
X134399356Y-49375557D01*
X134321055Y-49416318D01*
X134268192Y-49443837D01*
X134201207Y-49478707D01*
X134197074Y-49481810D01*
X134197071Y-49481812D01*
X134029183Y-49607866D01*
X134022565Y-49612835D01*
X133976494Y-49661045D01*
X133896945Y-49744289D01*
X133868229Y-49774338D01*
X133865315Y-49778610D01*
X133865314Y-49778611D01*
X133800111Y-49874195D01*
X133742343Y-49958880D01*
X133701375Y-50047139D01*
X133651370Y-50154866D01*
X133648288Y-50161505D01*
X133588589Y-50376770D01*
X133564851Y-50598895D01*
X132306112Y-50598895D01*
X132276443Y-50549321D01*
X132276440Y-50549317D01*
X132274239Y-50545639D01*
X132094487Y-50321272D01*
X131954210Y-50188154D01*
X131889058Y-50126327D01*
X131889055Y-50126325D01*
X131885949Y-50123377D01*
X131652483Y-49955614D01*
X131630643Y-49944050D01*
X131589090Y-49922049D01*
X131398408Y-49821088D01*
X131260446Y-49770601D01*
X131132458Y-49723764D01*
X131132456Y-49723763D01*
X131128427Y-49722289D01*
X130847536Y-49661045D01*
X130816485Y-49658601D01*
X130624518Y-49643493D01*
X130624509Y-49643493D01*
X130622061Y-49643300D01*
X130466529Y-49643300D01*
X130464393Y-49643446D01*
X130464382Y-49643446D01*
X130256252Y-49657635D01*
X130256246Y-49657636D01*
X130251975Y-49657927D01*
X130247780Y-49658796D01*
X130247778Y-49658796D01*
X130147150Y-49679635D01*
X129970458Y-49716226D01*
X129699457Y-49812193D01*
X129443988Y-49944050D01*
X129440487Y-49946511D01*
X129440483Y-49946513D01*
X129378588Y-49990014D01*
X129208777Y-50109359D01*
X129159806Y-50154866D01*
X129002045Y-50301467D01*
X128998178Y-50305060D01*
X128816087Y-50527532D01*
X128665873Y-50772658D01*
X128664147Y-50776591D01*
X128664146Y-50776592D01*
X128588405Y-50949134D01*
X128550317Y-51035902D01*
X128549142Y-51040029D01*
X128549141Y-51040030D01*
X128524935Y-51125005D01*
X128471556Y-51312394D01*
X128431049Y-51597016D01*
X128431027Y-51601305D01*
X128431026Y-51601312D01*
X128429565Y-51880217D01*
X128429543Y-51884503D01*
X88268434Y-51884503D01*
X88391932Y-51736013D01*
X88471399Y-51594115D01*
X88495389Y-51551278D01*
X88495390Y-51551276D01*
X88498213Y-51546235D01*
X88500069Y-51540768D01*
X88500071Y-51540763D01*
X88566274Y-51345735D01*
X88566275Y-51345730D01*
X88568130Y-51340266D01*
X88599341Y-51125005D01*
X88600970Y-51062800D01*
X88581067Y-50846200D01*
X88572761Y-50816747D01*
X88539493Y-50698790D01*
X88522026Y-50636855D01*
X88425823Y-50441774D01*
X88401769Y-50409561D01*
X88299133Y-50272115D01*
X88299132Y-50272114D01*
X88295680Y-50267491D01*
X88291444Y-50263575D01*
X88140196Y-50123763D01*
X88140193Y-50123761D01*
X88135956Y-50119844D01*
X87951999Y-50003776D01*
X87749972Y-49923176D01*
X87536639Y-49880741D01*
X87530864Y-49880665D01*
X87530860Y-49880665D01*
X87421819Y-49879238D01*
X87319146Y-49877894D01*
X87313449Y-49878873D01*
X87313448Y-49878873D01*
X87110465Y-49913752D01*
X87110462Y-49913753D01*
X87104775Y-49914730D01*
X86900707Y-49990014D01*
X86713776Y-50101227D01*
X86550242Y-50244642D01*
X86546670Y-50249172D01*
X86546669Y-50249174D01*
X86512407Y-50292634D01*
X86454525Y-50333747D01*
X86383605Y-50337039D01*
X86322163Y-50301467D01*
X86312500Y-50290015D01*
X86299137Y-50272119D01*
X86299130Y-50272112D01*
X86295680Y-50267491D01*
X86291444Y-50263575D01*
X86140196Y-50123763D01*
X86140193Y-50123761D01*
X86135956Y-50119844D01*
X85951999Y-50003776D01*
X85749972Y-49923176D01*
X85536639Y-49880741D01*
X85530864Y-49880665D01*
X85530860Y-49880665D01*
X85421819Y-49879238D01*
X85319146Y-49877894D01*
X85313449Y-49878873D01*
X85313448Y-49878873D01*
X85110465Y-49913752D01*
X85110462Y-49913753D01*
X85104775Y-49914730D01*
X84900707Y-49990014D01*
X84713776Y-50101227D01*
X84701175Y-50112278D01*
X84691992Y-50120331D01*
X84627588Y-50150208D01*
X84557255Y-50140522D01*
X84508089Y-50101165D01*
X84472724Y-50053978D01*
X84450661Y-50024539D01*
X84334105Y-49937185D01*
X84197716Y-49886055D01*
X84135534Y-49879300D01*
X82689266Y-49879300D01*
X82627084Y-49886055D01*
X82490695Y-49937185D01*
X82374139Y-50024539D01*
X82286785Y-50141095D01*
X82235655Y-50277484D01*
X82228900Y-50339666D01*
X82228900Y-50882377D01*
X82208898Y-50950498D01*
X82191995Y-50971473D01*
X81589912Y-51573555D01*
X81581593Y-51581125D01*
X81575097Y-51585247D01*
X81569671Y-51591025D01*
X81569670Y-51591026D01*
X81528315Y-51635065D01*
X81525560Y-51637907D01*
X81505761Y-51657706D01*
X81503337Y-51660831D01*
X81503329Y-51660840D01*
X81503263Y-51660926D01*
X81495555Y-51669951D01*
X81465183Y-51702294D01*
X81461365Y-51709238D01*
X81461364Y-51709240D01*
X81455378Y-51720129D01*
X81444527Y-51736647D01*
X81432050Y-51752733D01*
X81414424Y-51793466D01*
X81409207Y-51804114D01*
X81387831Y-51842997D01*
X81385860Y-51850672D01*
X81385858Y-51850678D01*
X81382769Y-51862711D01*
X81376366Y-51881413D01*
X81368283Y-51900092D01*
X81364451Y-51924288D01*
X81361340Y-51943927D01*
X81358935Y-51955540D01*
X81347900Y-51998518D01*
X81347900Y-52018865D01*
X81346349Y-52038576D01*
X81343165Y-52058679D01*
X81343911Y-52066571D01*
X81347341Y-52102856D01*
X81347900Y-52114714D01*
X81347900Y-54336580D01*
X81347370Y-54347814D01*
X81345692Y-54355319D01*
X81345941Y-54363238D01*
X81347838Y-54423612D01*
X81347900Y-54427569D01*
X81347900Y-54455583D01*
X81348396Y-54459508D01*
X81348396Y-54459509D01*
X81348408Y-54459604D01*
X81349341Y-54471449D01*
X81350735Y-54515805D01*
X81352947Y-54523417D01*
X81356413Y-54535348D01*
X81360423Y-54554712D01*
X81361399Y-54562435D01*
X81362973Y-54574899D01*
X81365889Y-54582263D01*
X81365890Y-54582268D01*
X81379307Y-54616156D01*
X81383152Y-54627385D01*
X81395531Y-54669993D01*
X81399569Y-54676820D01*
X81399570Y-54676823D01*
X81405888Y-54687506D01*
X81414588Y-54705264D01*
X81419161Y-54716815D01*
X81419165Y-54716821D01*
X81422081Y-54724188D01*
X81426739Y-54730599D01*
X81426740Y-54730601D01*
X81448164Y-54760088D01*
X81454681Y-54770009D01*
X81461038Y-54780758D01*
X81478498Y-54849575D01*
X81455982Y-54916906D01*
X81400637Y-54961375D01*
X81393190Y-54964176D01*
X81309473Y-54992675D01*
X81309470Y-54992676D01*
X81302803Y-54994946D01*
X81296805Y-54998636D01*
X81296803Y-54998637D01*
X81163865Y-55080421D01*
X81163863Y-55080423D01*
X81157866Y-55084112D01*
X81152832Y-55089042D01*
X81134069Y-55107415D01*
X81071403Y-55140785D01*
X81000645Y-55134977D01*
X80956818Y-55106485D01*
X79694650Y-53844317D01*
X79687074Y-53835991D01*
X79682953Y-53829497D01*
X79677181Y-53824077D01*
X79677178Y-53824073D01*
X79657662Y-53805747D01*
X79621696Y-53744534D01*
X79624535Y-53673594D01*
X79665275Y-53615450D01*
X79686125Y-53601932D01*
X79721794Y-53583522D01*
X79721809Y-53583513D01*
X79725612Y-53581550D01*
X79729113Y-53579089D01*
X79729117Y-53579087D01*
X79885733Y-53469015D01*
X79960823Y-53416241D01*
X80089359Y-53296798D01*
X80168279Y-53223461D01*
X80168281Y-53223458D01*
X80171422Y-53220540D01*
X80353513Y-52998068D01*
X80503727Y-52752942D01*
X80556881Y-52631855D01*
X80617557Y-52493630D01*
X80619283Y-52489698D01*
X80698044Y-52213206D01*
X80733264Y-51965734D01*
X80737946Y-51932836D01*
X80737946Y-51932834D01*
X80738551Y-51928584D01*
X80738645Y-51910751D01*
X80740035Y-51645383D01*
X80740035Y-51645376D01*
X80740057Y-51641097D01*
X80736871Y-51616893D01*
X80720972Y-51496134D01*
X80702532Y-51356066D01*
X80696647Y-51334552D01*
X80666935Y-51225946D01*
X80626671Y-51078764D01*
X80529929Y-50851957D01*
X80515563Y-50818276D01*
X80515561Y-50818272D01*
X80513877Y-50814324D01*
X80410994Y-50642419D01*
X80368443Y-50571321D01*
X80368440Y-50571317D01*
X80366239Y-50567639D01*
X80186487Y-50343272D01*
X80000205Y-50166497D01*
X79981058Y-50148327D01*
X79981055Y-50148325D01*
X79977949Y-50145377D01*
X79758992Y-49988040D01*
X79747972Y-49980121D01*
X79747971Y-49980120D01*
X79744483Y-49977614D01*
X79722643Y-49966050D01*
X79699136Y-49953604D01*
X79490408Y-49843088D01*
X79220427Y-49744289D01*
X78939536Y-49683045D01*
X78908485Y-49680601D01*
X78716518Y-49665493D01*
X78716509Y-49665493D01*
X78714061Y-49665300D01*
X78558529Y-49665300D01*
X78556393Y-49665446D01*
X78556382Y-49665446D01*
X78348252Y-49679635D01*
X78348246Y-49679636D01*
X78343975Y-49679927D01*
X78339780Y-49680796D01*
X78339778Y-49680796D01*
X78203216Y-49709077D01*
X78062458Y-49738226D01*
X77791457Y-49834193D01*
X77787648Y-49836159D01*
X77677759Y-49892877D01*
X77535988Y-49966050D01*
X77532487Y-49968511D01*
X77532483Y-49968513D01*
X77442553Y-50031717D01*
X77300777Y-50131359D01*
X77273389Y-50156810D01*
X77096407Y-50321272D01*
X77090178Y-50327060D01*
X76908087Y-50549532D01*
X76757873Y-50794658D01*
X76756147Y-50798591D01*
X76756146Y-50798592D01*
X76655037Y-51028926D01*
X76642317Y-51057902D01*
X76563556Y-51334394D01*
X76539255Y-51505146D01*
X76525569Y-51601312D01*
X76523049Y-51619016D01*
X76523027Y-51623305D01*
X76523026Y-51623312D01*
X76521565Y-51902217D01*
X76521543Y-51906503D01*
X76522102Y-51910747D01*
X76522102Y-51910751D01*
X76532965Y-51993262D01*
X76559068Y-52191534D01*
X76560201Y-52195674D01*
X76560201Y-52195676D01*
X76606379Y-52364474D01*
X76605061Y-52435458D01*
X76565576Y-52494462D01*
X76500458Y-52522751D01*
X76430384Y-52511344D01*
X76395750Y-52486817D01*
X74980213Y-51071280D01*
X74946187Y-51008968D01*
X74943964Y-50969341D01*
X74945700Y-50952400D01*
X74945700Y-50151600D01*
X74945363Y-50148350D01*
X74935438Y-50052692D01*
X74935437Y-50052688D01*
X74934726Y-50045834D01*
X74927622Y-50024539D01*
X74881068Y-49885002D01*
X74878750Y-49878054D01*
X74785678Y-49727652D01*
X74660503Y-49602695D01*
X74527902Y-49520958D01*
X74516168Y-49513725D01*
X74516166Y-49513724D01*
X74509938Y-49509885D01*
X74415939Y-49478707D01*
X74348589Y-49456368D01*
X74348587Y-49456368D01*
X74342061Y-49454203D01*
X74335225Y-49453503D01*
X74335222Y-49453502D01*
X74292169Y-49449091D01*
X74237600Y-49443500D01*
X72886800Y-49443500D01*
X72883554Y-49443837D01*
X72883550Y-49443837D01*
X72787892Y-49453762D01*
X72787888Y-49453763D01*
X72781034Y-49454474D01*
X72774498Y-49456655D01*
X72774496Y-49456655D01*
X72644576Y-49500000D01*
X72613254Y-49510450D01*
X72462852Y-49603522D01*
X72337895Y-49728697D01*
X72334055Y-49734927D01*
X72334054Y-49734928D01*
X72250408Y-49870627D01*
X72245085Y-49879262D01*
X72223596Y-49944050D01*
X72194518Y-50031719D01*
X72189403Y-50047139D01*
X72178700Y-50151600D01*
X72178700Y-50952400D01*
X72179037Y-50955646D01*
X72179037Y-50955650D01*
X72187234Y-51034646D01*
X72189674Y-51058166D01*
X72245650Y-51225946D01*
X72338722Y-51376348D01*
X72463897Y-51501305D01*
X72470127Y-51505145D01*
X72470128Y-51505146D01*
X72515436Y-51533074D01*
X72562929Y-51585846D01*
X72574353Y-51655918D01*
X72546079Y-51721042D01*
X72527155Y-51739418D01*
X72519280Y-51745604D01*
X72515348Y-51750135D01*
X72515345Y-51750138D01*
X72417470Y-51862929D01*
X72380648Y-51905363D01*
X72377648Y-51910549D01*
X72377645Y-51910553D01*
X72291952Y-52058679D01*
X72274727Y-52088454D01*
X72205339Y-52288271D01*
X72204478Y-52294206D01*
X72204478Y-52294208D01*
X72179922Y-52463570D01*
X72174987Y-52497604D01*
X72184767Y-52708899D01*
X72186171Y-52714724D01*
X72186171Y-52714725D01*
X72195832Y-52754812D01*
X72192347Y-52825723D01*
X72162434Y-52873428D01*
X65261274Y-59774588D01*
X65246861Y-59786975D01*
X65229238Y-59799944D01*
X65224494Y-59805527D01*
X65224495Y-59805527D01*
X65194823Y-59840453D01*
X65187893Y-59847969D01*
X65182147Y-59853715D01*
X65179877Y-59856584D01*
X65179871Y-59856591D01*
X65164814Y-59875623D01*
X65106861Y-59916635D01*
X65035936Y-59919806D01*
X64974555Y-59884127D01*
X64942208Y-59820928D01*
X64940000Y-59797445D01*
X64940000Y-47302600D01*
X64960002Y-47234479D01*
X65013658Y-47187986D01*
X65066000Y-47176600D01*
X140658400Y-47176600D01*
X140726521Y-47196602D01*
G37*
%TD.AperFunction*%
%TA.AperFunction,Conductor*%
G36*
X76887425Y-54764775D02*
G01*
X76889355Y-54765836D01*
X76905853Y-54776676D01*
X76915670Y-54784291D01*
X76921933Y-54789149D01*
X76929210Y-54792298D01*
X76962650Y-54806769D01*
X76973311Y-54811992D01*
X77005247Y-54829549D01*
X77005252Y-54829551D01*
X77012197Y-54833369D01*
X77019871Y-54835339D01*
X77019878Y-54835342D01*
X77031913Y-54838432D01*
X77050618Y-54844836D01*
X77061569Y-54849575D01*
X77069292Y-54852917D01*
X77096342Y-54857201D01*
X77113127Y-54859860D01*
X77124740Y-54862265D01*
X77167718Y-54873300D01*
X77188065Y-54873300D01*
X77207777Y-54874851D01*
X77227879Y-54878035D01*
X77235771Y-54877289D01*
X77272056Y-54873859D01*
X77283914Y-54873300D01*
X78873978Y-54873300D01*
X78942099Y-54893302D01*
X78963069Y-54910201D01*
X79841074Y-55788207D01*
X79875098Y-55850517D01*
X79870033Y-55921333D01*
X79827486Y-55978168D01*
X79760966Y-56002979D01*
X79751977Y-56003300D01*
X78140666Y-56003300D01*
X78078484Y-56010055D01*
X77942095Y-56061185D01*
X77825539Y-56148539D01*
X77738185Y-56265095D01*
X77687055Y-56401484D01*
X77680300Y-56463666D01*
X77680300Y-58259934D01*
X77687055Y-58322116D01*
X77738185Y-58458505D01*
X77825539Y-58575061D01*
X77942095Y-58662415D01*
X78078484Y-58713545D01*
X78140666Y-58720300D01*
X78173640Y-58720300D01*
X78241761Y-58740302D01*
X78284184Y-58785835D01*
X78286767Y-58790557D01*
X79025988Y-59529778D01*
X79039932Y-59537392D01*
X79041765Y-59537261D01*
X79048380Y-59533010D01*
X79792190Y-58789200D01*
X79793986Y-58785911D01*
X79844190Y-58735711D01*
X79904572Y-58720300D01*
X79936934Y-58720300D01*
X79999116Y-58713545D01*
X80028757Y-58702433D01*
X80099564Y-58697250D01*
X80161933Y-58731171D01*
X80194084Y-58787426D01*
X80194573Y-58791299D01*
X80197489Y-58798665D01*
X80197491Y-58798671D01*
X80210907Y-58832556D01*
X80214752Y-58843785D01*
X80227131Y-58886393D01*
X80231169Y-58893220D01*
X80231170Y-58893223D01*
X80237488Y-58903906D01*
X80246188Y-58921664D01*
X80250762Y-58933217D01*
X80250765Y-58933222D01*
X80253681Y-58940588D01*
X80258338Y-58946997D01*
X80261924Y-58953521D01*
X80277213Y-59022852D01*
X80252592Y-59089443D01*
X80195877Y-59132151D01*
X80183503Y-59133518D01*
X80151612Y-59148198D01*
X79410822Y-59888988D01*
X79403208Y-59902932D01*
X79403339Y-59904765D01*
X79407590Y-59911380D01*
X80149274Y-60653064D01*
X80161284Y-60659623D01*
X80173023Y-60650655D01*
X80203804Y-60607819D01*
X80209115Y-60598980D01*
X80303470Y-60408067D01*
X80307269Y-60398472D01*
X80369176Y-60194715D01*
X80371355Y-60184634D01*
X80399390Y-59971687D01*
X80399909Y-59965012D01*
X80401372Y-59905164D01*
X80401178Y-59898446D01*
X80383581Y-59684404D01*
X80381896Y-59674224D01*
X80330014Y-59467675D01*
X80326694Y-59457924D01*
X80271676Y-59331390D01*
X80262856Y-59260944D01*
X80293523Y-59196912D01*
X80353940Y-59159624D01*
X80424924Y-59160920D01*
X80476321Y-59192053D01*
X84025932Y-62741664D01*
X84059958Y-62803976D01*
X84054893Y-62874791D01*
X84042750Y-62899011D01*
X84019672Y-62934821D01*
X83973800Y-63006000D01*
X83966704Y-63017010D01*
X83908503Y-63176916D01*
X83887175Y-63345743D01*
X83903781Y-63515099D01*
X83957494Y-63676567D01*
X83961141Y-63682589D01*
X83961142Y-63682591D01*
X83974714Y-63705000D01*
X84045646Y-63822123D01*
X84163855Y-63944532D01*
X84169751Y-63948390D01*
X84285471Y-64024115D01*
X84306246Y-64037710D01*
X84312850Y-64040166D01*
X84312852Y-64040167D01*
X84459131Y-64094568D01*
X84459133Y-64094569D01*
X84465741Y-64097026D01*
X84467898Y-64097314D01*
X84524743Y-64129475D01*
X84739996Y-64344729D01*
X84774021Y-64407041D01*
X84776900Y-64433824D01*
X84776900Y-64784741D01*
X84756811Y-64852997D01*
X84728704Y-64896610D01*
X84670503Y-65056516D01*
X84649175Y-65225343D01*
X84665781Y-65394699D01*
X84668005Y-65401384D01*
X84668005Y-65401385D01*
X84692869Y-65476128D01*
X84695392Y-65547080D01*
X84659155Y-65608132D01*
X84595663Y-65639902D01*
X84573311Y-65641900D01*
X83189823Y-65641900D01*
X83121702Y-65621898D01*
X83100728Y-65604995D01*
X80390677Y-62894944D01*
X80356651Y-62832632D01*
X80359214Y-62769220D01*
X80362444Y-62758591D01*
X80371170Y-62729869D01*
X80400329Y-62508390D01*
X80401065Y-62478286D01*
X80401874Y-62445165D01*
X80401874Y-62445161D01*
X80401956Y-62441800D01*
X80383652Y-62219161D01*
X80329231Y-62002502D01*
X80240154Y-61797640D01*
X80182607Y-61708686D01*
X80121622Y-61614417D01*
X80121620Y-61614414D01*
X80118814Y-61610077D01*
X79968470Y-61444851D01*
X79964419Y-61441652D01*
X79964415Y-61441648D01*
X79797214Y-61309600D01*
X79797210Y-61309598D01*
X79793159Y-61306398D01*
X79751369Y-61283329D01*
X79701398Y-61232897D01*
X79686626Y-61163454D01*
X79711742Y-61097048D01*
X79739093Y-61070442D01*
X79788047Y-61035523D01*
X79796448Y-61024823D01*
X79789460Y-61011670D01*
X79051612Y-60273822D01*
X79037668Y-60266208D01*
X79035835Y-60266339D01*
X79029220Y-60270590D01*
X78285537Y-61014273D01*
X78278777Y-61026653D01*
X78284058Y-61033707D01*
X78330769Y-61061003D01*
X78379493Y-61112641D01*
X78392564Y-61182424D01*
X78365833Y-61248196D01*
X78325384Y-61281552D01*
X78312407Y-61288307D01*
X78308274Y-61291410D01*
X78308271Y-61291412D01*
X78165947Y-61398272D01*
X78133765Y-61422435D01*
X78086179Y-61472231D01*
X77988396Y-61574555D01*
X77979429Y-61583938D01*
X77853543Y-61768480D01*
X77829168Y-61820992D01*
X77763569Y-61962314D01*
X77759488Y-61971105D01*
X77699789Y-62186370D01*
X77676051Y-62408495D01*
X77676348Y-62413653D01*
X77676222Y-62418824D01*
X77673850Y-62418766D01*
X77660036Y-62478286D01*
X77609142Y-62527787D01*
X77539566Y-62541915D01*
X77473396Y-62516185D01*
X77461201Y-62505468D01*
X76737605Y-61781872D01*
X76703579Y-61719560D01*
X76700700Y-61692777D01*
X76700700Y-59873663D01*
X77676850Y-59873663D01*
X77689109Y-60086277D01*
X77690545Y-60096497D01*
X77737365Y-60304246D01*
X77740445Y-60314075D01*
X77820570Y-60511403D01*
X77825213Y-60520594D01*
X77905260Y-60651220D01*
X77915716Y-60660680D01*
X77924494Y-60656896D01*
X78666778Y-59914612D01*
X78674392Y-59900668D01*
X78674261Y-59898835D01*
X78670010Y-59892220D01*
X77928649Y-59150859D01*
X77917113Y-59144559D01*
X77904831Y-59154182D01*
X77856889Y-59224462D01*
X77851804Y-59233413D01*
X77762138Y-59426583D01*
X77758575Y-59436270D01*
X77701664Y-59641481D01*
X77699733Y-59651600D01*
X77677102Y-59863374D01*
X77676850Y-59873663D01*
X76700700Y-59873663D01*
X76700700Y-54875176D01*
X76720702Y-54807055D01*
X76774358Y-54760562D01*
X76844632Y-54750458D01*
X76887425Y-54764775D01*
G37*
%TD.AperFunction*%
M02*
