%FSLAX45Y45*%
G04 Gerber Fmt 4.5, Leading zero omitted, Abs format (unit mm)*
G04 Created by KiCad (PCBNEW (6.0.0)) date 2022-10-17 15:32:17*
%MOMM*%
%LPD*%
G01*
G04 APERTURE LIST*
%TA.AperFunction,Profile*%
%ADD10C,0.100000*%
%TD*%
%ADD11C,0.200000*%
%ADD12C,0.020000*%
%ADD13C,0.030000*%
%ADD14C,0.040000*%
%ADD15C,0.050000*%
%ADD16C,0.055000*%
%ADD17C,0.075000*%
%ADD18C,0.080000*%
%ADD19C,0.090000*%
%ADD20C,0.099000*%
%ADD21C,0.100000*%
%ADD22C,0.130000*%
G04 APERTURE END LIST*
D10*
X6443200Y-8550520D02*
X14129240Y-8550520D01*
X14129240Y-8550520D02*
X14129240Y-4666860D01*
X14129240Y-4666860D02*
X6443200Y-4666860D01*
X6443200Y-4666860D02*
X6443200Y-8550520D01*
D11*
D12*
X7596520Y-5431560D02*
X7616520Y-5451560D01*
X7616520Y-5431560D02*
X7596520Y-5451560D01*
X8152780Y-5558560D02*
X8172780Y-5578560D01*
X8172780Y-5558560D02*
X8152780Y-5578560D01*
X8449960Y-6859040D02*
X8469960Y-6879040D01*
X8469960Y-6859040D02*
X8449960Y-6879040D01*
X8455040Y-6325640D02*
X8475040Y-6345640D01*
X8475040Y-6325640D02*
X8455040Y-6345640D01*
X8531240Y-6513600D02*
X8551240Y-6533600D01*
X8551240Y-6513600D02*
X8531240Y-6533600D01*
X8543940Y-6617740D02*
X8563940Y-6637740D01*
X8563940Y-6617740D02*
X8543940Y-6637740D01*
X8543940Y-6780300D02*
X8563940Y-6800300D01*
X8563940Y-6780300D02*
X8543940Y-6800300D01*
X8782700Y-7697240D02*
X8802700Y-7717240D01*
X8802700Y-7697240D02*
X8782700Y-7717240D01*
X8836040Y-6617740D02*
X8856040Y-6637740D01*
X8856040Y-6617740D02*
X8836040Y-6637740D01*
X8841120Y-7097800D02*
X8861120Y-7117800D01*
X8861120Y-7097800D02*
X8841120Y-7117800D01*
X8843660Y-6541540D02*
X8863660Y-6561540D01*
X8863660Y-6541540D02*
X8843660Y-6561540D01*
X9388000Y-6936900D02*
X9408000Y-6956900D01*
X9408000Y-6936900D02*
X9388000Y-6956900D01*
X9388000Y-7020720D02*
X9408000Y-7040720D01*
X9408000Y-7020720D02*
X9388000Y-7040720D01*
X9976500Y-7445780D02*
X9996500Y-7465780D01*
X9996500Y-7445780D02*
X9976500Y-7465780D01*
X10068720Y-5959000D02*
X10088720Y-5979000D01*
X10088720Y-5959000D02*
X10068720Y-5979000D01*
X10263520Y-7801380D02*
X10283520Y-7821380D01*
X10283520Y-7801380D02*
X10263520Y-7821380D01*
X10533540Y-5959000D02*
X10553540Y-5979000D01*
X10553540Y-5959000D02*
X10533540Y-5979000D01*
X10608960Y-7130820D02*
X10628960Y-7150820D01*
X10628960Y-7130820D02*
X10608960Y-7150820D01*
X10799460Y-7669300D02*
X10819460Y-7689300D01*
X10819460Y-7669300D02*
X10799460Y-7689300D01*
X11078860Y-6257060D02*
X11098860Y-6277060D01*
X11098860Y-6257060D02*
X11078860Y-6277060D01*
X11134740Y-6056400D02*
X11154740Y-6076400D01*
X11154740Y-6056400D02*
X11134740Y-6076400D01*
X11195700Y-5911620D02*
X11215700Y-5931620D01*
X11215700Y-5911620D02*
X11195700Y-5931620D01*
X11779900Y-7979180D02*
X11799900Y-7999180D01*
X11799900Y-7979180D02*
X11779900Y-7999180D01*
X12006740Y-6218080D02*
X12026740Y-6238080D01*
X12026740Y-6218080D02*
X12006740Y-6238080D01*
X12006740Y-6563520D02*
X12026740Y-6583520D01*
X12026740Y-6563520D02*
X12006740Y-6583520D01*
X12163440Y-8377960D02*
X12183440Y-8397960D01*
X12183440Y-8377960D02*
X12163440Y-8397960D01*
X12327990Y-6389275D02*
X12347990Y-6409275D01*
X12347990Y-6389275D02*
X12327990Y-6409275D01*
D13*
X10628880Y-7951080D02*
G75*
G03*
X10628880Y-7951080I-15000J0D01*
G01*
X10910820Y-8073000D02*
G75*
G03*
X10910820Y-8073000I-15000J0D01*
G01*
D14*
X6575280Y-7356160D02*
X6575280Y-7396160D01*
X6555280Y-7376160D02*
X6595280Y-7376160D01*
X8465040Y-5766900D02*
X8465040Y-5806900D01*
X8445040Y-5786900D02*
X8485040Y-5786900D01*
X8637760Y-5454580D02*
X8637760Y-5494580D01*
X8617760Y-5474580D02*
X8657760Y-5474580D01*
X9166080Y-7049700D02*
X9166080Y-7089700D01*
X9146080Y-7069700D02*
X9186080Y-7069700D01*
X9167980Y-7413560D02*
X9167980Y-7453560D01*
X9147980Y-7433560D02*
X9187980Y-7433560D01*
X9168620Y-6206420D02*
X9168620Y-6246420D01*
X9148620Y-6226420D02*
X9188620Y-6226420D01*
X9168620Y-6577260D02*
X9168620Y-6617260D01*
X9148620Y-6597260D02*
X9188620Y-6597260D01*
X9872200Y-5772080D02*
X9872200Y-5812080D01*
X9852200Y-5792080D02*
X9892200Y-5792080D01*
X10088100Y-5454580D02*
X10088100Y-5494580D01*
X10068100Y-5474580D02*
X10108100Y-5474580D01*
X10100800Y-7006520D02*
X10100800Y-7046520D01*
X10080800Y-7026520D02*
X10120800Y-7026520D01*
X11226020Y-8218100D02*
X11226020Y-8258100D01*
X11206020Y-8238100D02*
X11246020Y-8238100D01*
X11228560Y-7661840D02*
X11228560Y-7701840D01*
X11208560Y-7681840D02*
X11248560Y-7681840D01*
X11472400Y-7661840D02*
X11472400Y-7701840D01*
X11452400Y-7681840D02*
X11492400Y-7681840D01*
X11472400Y-8218100D02*
X11472400Y-8258100D01*
X11452400Y-8238100D02*
X11492400Y-8238100D01*
X12069300Y-6379139D02*
X12069300Y-6419139D01*
X12049300Y-6399139D02*
X12089300Y-6399139D01*
X12339320Y-6596700D02*
X12339320Y-6636700D01*
X12319320Y-6616700D02*
X12359320Y-6616700D01*
X12750020Y-7743120D02*
X12750020Y-7783120D01*
X12730020Y-7763120D02*
X12770020Y-7763120D01*
X13044660Y-7743120D02*
X13044660Y-7783120D01*
X13024660Y-7763120D02*
X13064660Y-7763120D01*
D15*
X14001558Y-6292878D02*
X14001558Y-6257522D01*
X13966202Y-6257522D01*
X13966202Y-6292878D01*
X14001558Y-6292878D01*
D11*
X14016380Y-6260200D02*
X13951380Y-6260200D01*
X14016380Y-6290200D02*
X13951380Y-6290200D01*
X13951380Y-6260200D02*
G75*
G03*
X13951380Y-6290200I0J-15000D01*
G01*
X14016380Y-6290200D02*
G75*
G03*
X14016380Y-6260200I0J15000D01*
G01*
D15*
X14001558Y-6992878D02*
X14001558Y-6957522D01*
X13966202Y-6957522D01*
X13966202Y-6992878D01*
X14001558Y-6992878D01*
D11*
X14016380Y-6960200D02*
X13951380Y-6960200D01*
X14016380Y-6990200D02*
X13951380Y-6990200D01*
X13951380Y-6960200D02*
G75*
G03*
X13951380Y-6990200I0J-15000D01*
G01*
X14016380Y-6990200D02*
G75*
G03*
X14016380Y-6960200I0J15000D01*
G01*
D16*
X13713880Y-6402700D02*
X13741380Y-6375200D01*
X13713880Y-6347700D01*
X13686380Y-6375200D01*
X13713880Y-6402700D01*
D11*
X13696380Y-6360200D02*
X13696380Y-6390200D01*
X13731380Y-6360200D02*
X13731380Y-6390200D01*
X13696380Y-6390200D02*
G75*
G03*
X13731380Y-6390200I17500J0D01*
G01*
X13731380Y-6360200D02*
G75*
G03*
X13696380Y-6360200I-17500J0D01*
G01*
D16*
X13713880Y-6902700D02*
X13741380Y-6875200D01*
X13713880Y-6847700D01*
X13686380Y-6875200D01*
X13713880Y-6902700D01*
D11*
X13696380Y-6860200D02*
X13696380Y-6890200D01*
X13731380Y-6860200D02*
X13731380Y-6890200D01*
X13696380Y-6890200D02*
G75*
G03*
X13731380Y-6890200I17500J0D01*
G01*
X13731380Y-6860200D02*
G75*
G03*
X13696380Y-6860200I-17500J0D01*
G01*
D17*
X7318720Y-5017700D02*
X7393720Y-5092700D01*
X7393720Y-5017700D02*
X7318720Y-5092700D01*
X7393720Y-5055200D02*
G75*
G03*
X7393720Y-5055200I-37500J0D01*
G01*
X7318720Y-5217700D02*
X7393720Y-5292700D01*
X7393720Y-5217700D02*
X7318720Y-5292700D01*
X7393720Y-5255200D02*
G75*
G03*
X7393720Y-5255200I-37500J0D01*
G01*
X7318720Y-5417700D02*
X7393720Y-5492700D01*
X7393720Y-5417700D02*
X7318720Y-5492700D01*
X7393720Y-5455200D02*
G75*
G03*
X7393720Y-5455200I-37500J0D01*
G01*
X7318720Y-5617700D02*
X7393720Y-5692700D01*
X7393720Y-5617700D02*
X7318720Y-5692700D01*
X7393720Y-5655200D02*
G75*
G03*
X7393720Y-5655200I-37500J0D01*
G01*
D18*
X8301240Y-5066280D02*
X8381240Y-5146280D01*
X8381240Y-5066280D02*
X8301240Y-5146280D01*
X8341240Y-5066280D02*
X8341240Y-5146280D01*
X8301240Y-5106280D02*
X8381240Y-5106280D01*
X8301240Y-5266280D02*
X8381240Y-5346280D01*
X8381240Y-5266280D02*
X8301240Y-5346280D01*
X8341240Y-5266280D02*
X8341240Y-5346280D01*
X8301240Y-5306280D02*
X8381240Y-5306280D01*
X8501240Y-5066280D02*
X8581240Y-5146280D01*
X8581240Y-5066280D02*
X8501240Y-5146280D01*
X8541240Y-5066280D02*
X8541240Y-5146280D01*
X8501240Y-5106280D02*
X8581240Y-5106280D01*
X8501240Y-5266280D02*
X8581240Y-5346280D01*
X8581240Y-5266280D02*
X8501240Y-5346280D01*
X8541240Y-5266280D02*
X8541240Y-5346280D01*
X8501240Y-5306280D02*
X8581240Y-5306280D01*
X8701240Y-5066280D02*
X8781240Y-5146280D01*
X8781240Y-5066280D02*
X8701240Y-5146280D01*
X8741240Y-5066280D02*
X8741240Y-5146280D01*
X8701240Y-5106280D02*
X8781240Y-5106280D01*
X8701240Y-5266280D02*
X8781240Y-5346280D01*
X8781240Y-5266280D02*
X8701240Y-5346280D01*
X8741240Y-5266280D02*
X8741240Y-5346280D01*
X8701240Y-5306280D02*
X8781240Y-5306280D01*
D19*
X13413180Y-7400620D02*
X13503180Y-7490620D01*
X13503180Y-7400620D02*
X13413180Y-7490620D01*
X13490000Y-7477440D02*
X13490000Y-7413800D01*
X13426360Y-7413800D01*
X13426360Y-7477440D01*
X13490000Y-7477440D01*
X13413680Y-8162620D02*
X13503680Y-8252620D01*
X13503680Y-8162620D02*
X13413680Y-8252620D01*
X13490500Y-8239440D02*
X13490500Y-8175800D01*
X13426860Y-8175800D01*
X13426860Y-8239440D01*
X13490500Y-8239440D01*
X13667180Y-7400620D02*
X13757180Y-7490620D01*
X13757180Y-7400620D02*
X13667180Y-7490620D01*
X13744000Y-7477440D02*
X13744000Y-7413800D01*
X13680360Y-7413800D01*
X13680360Y-7477440D01*
X13744000Y-7477440D01*
X13667680Y-8162620D02*
X13757680Y-8252620D01*
X13757680Y-8162620D02*
X13667680Y-8252620D01*
X13744500Y-8239440D02*
X13744500Y-8175800D01*
X13680860Y-8175800D01*
X13680860Y-8239440D01*
X13744500Y-8239440D01*
D20*
X6744220Y-6347100D02*
X6843220Y-6446100D01*
X6843220Y-6347100D02*
X6744220Y-6446100D01*
X6793720Y-6446100D02*
X6843220Y-6396600D01*
X6793720Y-6347100D01*
X6744220Y-6396600D01*
X6793720Y-6446100D01*
X6744220Y-6797100D02*
X6843220Y-6896100D01*
X6843220Y-6797100D02*
X6744220Y-6896100D01*
X6793720Y-6896100D02*
X6843220Y-6846600D01*
X6793720Y-6797100D01*
X6744220Y-6846600D01*
X6793720Y-6896100D01*
D21*
X7903880Y-5686180D02*
X7903880Y-5786180D01*
X7853880Y-5736180D02*
X7953880Y-5736180D01*
X7953880Y-5736180D02*
G75*
G03*
X7953880Y-5736180I-50000J0D01*
G01*
X7903880Y-5940180D02*
X7903880Y-6040180D01*
X7853880Y-5990180D02*
X7953880Y-5990180D01*
X7953880Y-5990180D02*
G75*
G03*
X7953880Y-5990180I-50000J0D01*
G01*
X7903880Y-6194180D02*
X7903880Y-6294180D01*
X7853880Y-6244180D02*
X7953880Y-6244180D01*
X7953880Y-6244180D02*
G75*
G03*
X7953880Y-6244180I-50000J0D01*
G01*
X7903880Y-6448180D02*
X7903880Y-6548180D01*
X7853880Y-6498180D02*
X7953880Y-6498180D01*
X7953880Y-6498180D02*
G75*
G03*
X7953880Y-6498180I-50000J0D01*
G01*
X7903880Y-6702180D02*
X7903880Y-6802180D01*
X7853880Y-6752180D02*
X7953880Y-6752180D01*
X7953880Y-6752180D02*
G75*
G03*
X7953880Y-6752180I-50000J0D01*
G01*
X7903880Y-6956180D02*
X7903880Y-7056180D01*
X7853880Y-7006180D02*
X7953880Y-7006180D01*
X7953880Y-7006180D02*
G75*
G03*
X7953880Y-7006180I-50000J0D01*
G01*
X7903880Y-7210180D02*
X7903880Y-7310180D01*
X7853880Y-7260180D02*
X7953880Y-7260180D01*
X7953880Y-7260180D02*
G75*
G03*
X7953880Y-7260180I-50000J0D01*
G01*
X7903880Y-7464180D02*
X7903880Y-7564180D01*
X7853880Y-7514180D02*
X7953880Y-7514180D01*
X7953880Y-7514180D02*
G75*
G03*
X7953880Y-7514180I-50000J0D01*
G01*
X13492760Y-5013220D02*
X13492760Y-5113220D01*
X13442760Y-5063220D02*
X13542760Y-5063220D01*
X13542760Y-5063220D02*
G75*
G03*
X13542760Y-5063220I-50000J0D01*
G01*
X13492760Y-5663220D02*
X13492760Y-5763220D01*
X13442760Y-5713220D02*
X13542760Y-5713220D01*
X13542760Y-5713220D02*
G75*
G03*
X13542760Y-5713220I-50000J0D01*
G01*
X13942760Y-5013220D02*
X13942760Y-5113220D01*
X13892760Y-5063220D02*
X13992760Y-5063220D01*
X13992760Y-5063220D02*
G75*
G03*
X13992760Y-5063220I-50000J0D01*
G01*
X13942760Y-5663220D02*
X13942760Y-5763220D01*
X13892760Y-5713220D02*
X13992760Y-5713220D01*
X13992760Y-5713220D02*
G75*
G03*
X13992760Y-5713220I-50000J0D01*
G01*
D22*
X7088682Y-6317062D02*
X7088682Y-6225138D01*
X6996758Y-6225138D01*
X6996758Y-6317062D01*
X7088682Y-6317062D01*
X7107720Y-6271100D02*
G75*
G03*
X7107720Y-6271100I-65000J0D01*
G01*
X7088682Y-7018062D02*
X7088682Y-6926138D01*
X6996758Y-6926138D01*
X6996758Y-7018062D01*
X7088682Y-7018062D01*
X7107720Y-6972100D02*
G75*
G03*
X7107720Y-6972100I-65000J0D01*
G01*
D11*
X6695819Y-8865996D02*
X6695819Y-8665996D01*
X6743438Y-8665996D01*
X6772009Y-8675520D01*
X6791057Y-8694568D01*
X6800581Y-8713615D01*
X6810105Y-8751710D01*
X6810105Y-8780282D01*
X6800581Y-8818377D01*
X6791057Y-8837425D01*
X6772009Y-8856472D01*
X6743438Y-8865996D01*
X6695819Y-8865996D01*
X6895819Y-8865996D02*
X6895819Y-8732663D01*
X6895819Y-8770758D02*
X6905343Y-8751710D01*
X6914867Y-8742187D01*
X6933914Y-8732663D01*
X6952962Y-8732663D01*
X7019628Y-8865996D02*
X7019628Y-8732663D01*
X7019628Y-8665996D02*
X7010105Y-8675520D01*
X7019628Y-8685044D01*
X7029152Y-8675520D01*
X7019628Y-8665996D01*
X7019628Y-8685044D01*
X7143438Y-8865996D02*
X7124390Y-8856472D01*
X7114867Y-8837425D01*
X7114867Y-8665996D01*
X7248200Y-8865996D02*
X7229152Y-8856472D01*
X7219628Y-8837425D01*
X7219628Y-8665996D01*
X7476771Y-8865996D02*
X7476771Y-8665996D01*
X7543438Y-8808853D01*
X7610105Y-8665996D01*
X7610105Y-8865996D01*
X7791057Y-8865996D02*
X7791057Y-8761234D01*
X7781533Y-8742187D01*
X7762486Y-8732663D01*
X7724390Y-8732663D01*
X7705343Y-8742187D01*
X7791057Y-8856472D02*
X7772009Y-8865996D01*
X7724390Y-8865996D01*
X7705343Y-8856472D01*
X7695819Y-8837425D01*
X7695819Y-8818377D01*
X7705343Y-8799330D01*
X7724390Y-8789806D01*
X7772009Y-8789806D01*
X7791057Y-8780282D01*
X7886295Y-8732663D02*
X7886295Y-8932663D01*
X7886295Y-8742187D02*
X7905343Y-8732663D01*
X7943438Y-8732663D01*
X7962486Y-8742187D01*
X7972009Y-8751710D01*
X7981533Y-8770758D01*
X7981533Y-8827901D01*
X7972009Y-8846949D01*
X7962486Y-8856472D01*
X7943438Y-8865996D01*
X7905343Y-8865996D01*
X7886295Y-8856472D01*
X8067248Y-8846949D02*
X8076771Y-8856472D01*
X8067248Y-8865996D01*
X8057724Y-8856472D01*
X8067248Y-8846949D01*
X8067248Y-8865996D01*
X8067248Y-8742187D02*
X8076771Y-8751710D01*
X8067248Y-8761234D01*
X8057724Y-8751710D01*
X8067248Y-8742187D01*
X8067248Y-8761234D01*
D12*
X6418200Y-9185520D02*
X6438200Y-9205520D01*
X6438200Y-9185520D02*
X6418200Y-9205520D01*
D11*
X6733914Y-9085996D02*
X6752962Y-9085996D01*
X6772009Y-9095520D01*
X6781533Y-9105044D01*
X6791057Y-9124091D01*
X6800581Y-9162187D01*
X6800581Y-9209806D01*
X6791057Y-9247901D01*
X6781533Y-9266949D01*
X6772009Y-9276472D01*
X6752962Y-9285996D01*
X6733914Y-9285996D01*
X6714867Y-9276472D01*
X6705343Y-9266949D01*
X6695819Y-9247901D01*
X6686295Y-9209806D01*
X6686295Y-9162187D01*
X6695819Y-9124091D01*
X6705343Y-9105044D01*
X6714867Y-9095520D01*
X6733914Y-9085996D01*
X6886295Y-9266949D02*
X6895819Y-9276472D01*
X6886295Y-9285996D01*
X6876771Y-9276472D01*
X6886295Y-9266949D01*
X6886295Y-9285996D01*
X6972009Y-9105044D02*
X6981533Y-9095520D01*
X7000581Y-9085996D01*
X7048200Y-9085996D01*
X7067248Y-9095520D01*
X7076771Y-9105044D01*
X7086295Y-9124091D01*
X7086295Y-9143139D01*
X7076771Y-9171710D01*
X6962486Y-9285996D01*
X7086295Y-9285996D01*
X7210105Y-9085996D02*
X7229152Y-9085996D01*
X7248200Y-9095520D01*
X7257724Y-9105044D01*
X7267248Y-9124091D01*
X7276771Y-9162187D01*
X7276771Y-9209806D01*
X7267248Y-9247901D01*
X7257724Y-9266949D01*
X7248200Y-9276472D01*
X7229152Y-9285996D01*
X7210105Y-9285996D01*
X7191057Y-9276472D01*
X7181533Y-9266949D01*
X7172009Y-9247901D01*
X7162486Y-9209806D01*
X7162486Y-9162187D01*
X7172009Y-9124091D01*
X7181533Y-9105044D01*
X7191057Y-9095520D01*
X7210105Y-9085996D01*
X7400581Y-9085996D02*
X7419628Y-9085996D01*
X7438676Y-9095520D01*
X7448200Y-9105044D01*
X7457724Y-9124091D01*
X7467248Y-9162187D01*
X7467248Y-9209806D01*
X7457724Y-9247901D01*
X7448200Y-9266949D01*
X7438676Y-9276472D01*
X7419628Y-9285996D01*
X7400581Y-9285996D01*
X7381533Y-9276472D01*
X7372009Y-9266949D01*
X7362486Y-9247901D01*
X7352962Y-9209806D01*
X7352962Y-9162187D01*
X7362486Y-9124091D01*
X7372009Y-9105044D01*
X7381533Y-9095520D01*
X7400581Y-9085996D01*
X7552962Y-9285996D02*
X7552962Y-9152663D01*
X7552962Y-9171710D02*
X7562486Y-9162187D01*
X7581533Y-9152663D01*
X7610105Y-9152663D01*
X7629152Y-9162187D01*
X7638676Y-9181234D01*
X7638676Y-9285996D01*
X7638676Y-9181234D02*
X7648200Y-9162187D01*
X7667248Y-9152663D01*
X7695819Y-9152663D01*
X7714867Y-9162187D01*
X7724390Y-9181234D01*
X7724390Y-9285996D01*
X7819628Y-9285996D02*
X7819628Y-9152663D01*
X7819628Y-9171710D02*
X7829152Y-9162187D01*
X7848200Y-9152663D01*
X7876771Y-9152663D01*
X7895819Y-9162187D01*
X7905343Y-9181234D01*
X7905343Y-9285996D01*
X7905343Y-9181234D02*
X7914867Y-9162187D01*
X7933914Y-9152663D01*
X7962486Y-9152663D01*
X7981533Y-9162187D01*
X7991057Y-9181234D01*
X7991057Y-9285996D01*
X8381533Y-9076472D02*
X8210105Y-9333615D01*
X8638676Y-9085996D02*
X8657724Y-9085996D01*
X8676771Y-9095520D01*
X8686295Y-9105044D01*
X8695819Y-9124091D01*
X8705343Y-9162187D01*
X8705343Y-9209806D01*
X8695819Y-9247901D01*
X8686295Y-9266949D01*
X8676771Y-9276472D01*
X8657724Y-9285996D01*
X8638676Y-9285996D01*
X8619629Y-9276472D01*
X8610105Y-9266949D01*
X8600581Y-9247901D01*
X8591057Y-9209806D01*
X8591057Y-9162187D01*
X8600581Y-9124091D01*
X8610105Y-9105044D01*
X8619629Y-9095520D01*
X8638676Y-9085996D01*
X8791057Y-9266949D02*
X8800581Y-9276472D01*
X8791057Y-9285996D01*
X8781533Y-9276472D01*
X8791057Y-9266949D01*
X8791057Y-9285996D01*
X8924390Y-9085996D02*
X8943438Y-9085996D01*
X8962486Y-9095520D01*
X8972010Y-9105044D01*
X8981533Y-9124091D01*
X8991057Y-9162187D01*
X8991057Y-9209806D01*
X8981533Y-9247901D01*
X8972010Y-9266949D01*
X8962486Y-9276472D01*
X8943438Y-9285996D01*
X8924390Y-9285996D01*
X8905343Y-9276472D01*
X8895819Y-9266949D01*
X8886295Y-9247901D01*
X8876771Y-9209806D01*
X8876771Y-9162187D01*
X8886295Y-9124091D01*
X8895819Y-9105044D01*
X8905343Y-9095520D01*
X8924390Y-9085996D01*
X9114867Y-9085996D02*
X9133914Y-9085996D01*
X9152962Y-9095520D01*
X9162486Y-9105044D01*
X9172010Y-9124091D01*
X9181533Y-9162187D01*
X9181533Y-9209806D01*
X9172010Y-9247901D01*
X9162486Y-9266949D01*
X9152962Y-9276472D01*
X9133914Y-9285996D01*
X9114867Y-9285996D01*
X9095819Y-9276472D01*
X9086295Y-9266949D01*
X9076771Y-9247901D01*
X9067248Y-9209806D01*
X9067248Y-9162187D01*
X9076771Y-9124091D01*
X9086295Y-9105044D01*
X9095819Y-9095520D01*
X9114867Y-9085996D01*
X9248200Y-9085996D02*
X9381533Y-9085996D01*
X9295819Y-9285996D01*
X9467248Y-9285996D02*
X9505343Y-9285996D01*
X9524390Y-9276472D01*
X9533914Y-9266949D01*
X9552962Y-9238377D01*
X9562486Y-9200282D01*
X9562486Y-9124091D01*
X9552962Y-9105044D01*
X9543438Y-9095520D01*
X9524390Y-9085996D01*
X9486295Y-9085996D01*
X9467248Y-9095520D01*
X9457724Y-9105044D01*
X9448200Y-9124091D01*
X9448200Y-9171710D01*
X9457724Y-9190758D01*
X9467248Y-9200282D01*
X9486295Y-9209806D01*
X9524390Y-9209806D01*
X9543438Y-9200282D01*
X9552962Y-9190758D01*
X9562486Y-9171710D01*
X9638676Y-9085996D02*
X9638676Y-9124091D01*
X9714867Y-9085996D02*
X9714867Y-9124091D01*
X10010105Y-9362187D02*
X10000581Y-9352663D01*
X9981533Y-9324091D01*
X9972010Y-9305044D01*
X9962486Y-9276472D01*
X9952962Y-9228853D01*
X9952962Y-9190758D01*
X9962486Y-9143139D01*
X9972010Y-9114568D01*
X9981533Y-9095520D01*
X10000581Y-9066949D01*
X10010105Y-9057425D01*
X10076771Y-9105044D02*
X10086295Y-9095520D01*
X10105343Y-9085996D01*
X10152962Y-9085996D01*
X10172010Y-9095520D01*
X10181533Y-9105044D01*
X10191057Y-9124091D01*
X10191057Y-9143139D01*
X10181533Y-9171710D01*
X10067248Y-9285996D01*
X10191057Y-9285996D01*
X10257724Y-9085996D02*
X10391057Y-9085996D01*
X10305343Y-9285996D01*
X10619629Y-9285996D02*
X10619629Y-9085996D01*
X10705343Y-9285996D02*
X10705343Y-9181234D01*
X10695819Y-9162187D01*
X10676771Y-9152663D01*
X10648200Y-9152663D01*
X10629152Y-9162187D01*
X10619629Y-9171710D01*
X10829152Y-9285996D02*
X10810105Y-9276472D01*
X10800581Y-9266949D01*
X10791057Y-9247901D01*
X10791057Y-9190758D01*
X10800581Y-9171710D01*
X10810105Y-9162187D01*
X10829152Y-9152663D01*
X10857724Y-9152663D01*
X10876771Y-9162187D01*
X10886295Y-9171710D01*
X10895819Y-9190758D01*
X10895819Y-9247901D01*
X10886295Y-9266949D01*
X10876771Y-9276472D01*
X10857724Y-9285996D01*
X10829152Y-9285996D01*
X11010105Y-9285996D02*
X10991057Y-9276472D01*
X10981533Y-9257425D01*
X10981533Y-9085996D01*
X11162486Y-9276472D02*
X11143438Y-9285996D01*
X11105343Y-9285996D01*
X11086295Y-9276472D01*
X11076771Y-9257425D01*
X11076771Y-9181234D01*
X11086295Y-9162187D01*
X11105343Y-9152663D01*
X11143438Y-9152663D01*
X11162486Y-9162187D01*
X11172010Y-9181234D01*
X11172010Y-9200282D01*
X11076771Y-9219330D01*
X11248200Y-9276472D02*
X11267248Y-9285996D01*
X11305343Y-9285996D01*
X11324390Y-9276472D01*
X11333914Y-9257425D01*
X11333914Y-9247901D01*
X11324390Y-9228853D01*
X11305343Y-9219330D01*
X11276771Y-9219330D01*
X11257724Y-9209806D01*
X11248200Y-9190758D01*
X11248200Y-9181234D01*
X11257724Y-9162187D01*
X11276771Y-9152663D01*
X11305343Y-9152663D01*
X11324390Y-9162187D01*
X11400581Y-9362187D02*
X11410105Y-9352663D01*
X11429152Y-9324091D01*
X11438676Y-9305044D01*
X11448200Y-9276472D01*
X11457724Y-9228853D01*
X11457724Y-9190758D01*
X11448200Y-9143139D01*
X11438676Y-9114568D01*
X11429152Y-9095520D01*
X11410105Y-9066949D01*
X11400581Y-9057425D01*
D13*
X6438200Y-9459520D02*
G75*
G03*
X6438200Y-9459520I-15000J0D01*
G01*
D11*
X6733914Y-9349996D02*
X6752962Y-9349996D01*
X6772009Y-9359520D01*
X6781533Y-9369044D01*
X6791057Y-9388091D01*
X6800581Y-9426187D01*
X6800581Y-9473806D01*
X6791057Y-9511901D01*
X6781533Y-9530949D01*
X6772009Y-9540472D01*
X6752962Y-9549996D01*
X6733914Y-9549996D01*
X6714867Y-9540472D01*
X6705343Y-9530949D01*
X6695819Y-9511901D01*
X6686295Y-9473806D01*
X6686295Y-9426187D01*
X6695819Y-9388091D01*
X6705343Y-9369044D01*
X6714867Y-9359520D01*
X6733914Y-9349996D01*
X6886295Y-9530949D02*
X6895819Y-9540472D01*
X6886295Y-9549996D01*
X6876771Y-9540472D01*
X6886295Y-9530949D01*
X6886295Y-9549996D01*
X6962486Y-9349996D02*
X7086295Y-9349996D01*
X7019628Y-9426187D01*
X7048200Y-9426187D01*
X7067248Y-9435710D01*
X7076771Y-9445234D01*
X7086295Y-9464282D01*
X7086295Y-9511901D01*
X7076771Y-9530949D01*
X7067248Y-9540472D01*
X7048200Y-9549996D01*
X6991057Y-9549996D01*
X6972009Y-9540472D01*
X6962486Y-9530949D01*
X7210105Y-9349996D02*
X7229152Y-9349996D01*
X7248200Y-9359520D01*
X7257724Y-9369044D01*
X7267248Y-9388091D01*
X7276771Y-9426187D01*
X7276771Y-9473806D01*
X7267248Y-9511901D01*
X7257724Y-9530949D01*
X7248200Y-9540472D01*
X7229152Y-9549996D01*
X7210105Y-9549996D01*
X7191057Y-9540472D01*
X7181533Y-9530949D01*
X7172009Y-9511901D01*
X7162486Y-9473806D01*
X7162486Y-9426187D01*
X7172009Y-9388091D01*
X7181533Y-9369044D01*
X7191057Y-9359520D01*
X7210105Y-9349996D01*
X7400581Y-9349996D02*
X7419628Y-9349996D01*
X7438676Y-9359520D01*
X7448200Y-9369044D01*
X7457724Y-9388091D01*
X7467248Y-9426187D01*
X7467248Y-9473806D01*
X7457724Y-9511901D01*
X7448200Y-9530949D01*
X7438676Y-9540472D01*
X7419628Y-9549996D01*
X7400581Y-9549996D01*
X7381533Y-9540472D01*
X7372009Y-9530949D01*
X7362486Y-9511901D01*
X7352962Y-9473806D01*
X7352962Y-9426187D01*
X7362486Y-9388091D01*
X7372009Y-9369044D01*
X7381533Y-9359520D01*
X7400581Y-9349996D01*
X7552962Y-9549996D02*
X7552962Y-9416663D01*
X7552962Y-9435710D02*
X7562486Y-9426187D01*
X7581533Y-9416663D01*
X7610105Y-9416663D01*
X7629152Y-9426187D01*
X7638676Y-9445234D01*
X7638676Y-9549996D01*
X7638676Y-9445234D02*
X7648200Y-9426187D01*
X7667248Y-9416663D01*
X7695819Y-9416663D01*
X7714867Y-9426187D01*
X7724390Y-9445234D01*
X7724390Y-9549996D01*
X7819628Y-9549996D02*
X7819628Y-9416663D01*
X7819628Y-9435710D02*
X7829152Y-9426187D01*
X7848200Y-9416663D01*
X7876771Y-9416663D01*
X7895819Y-9426187D01*
X7905343Y-9445234D01*
X7905343Y-9549996D01*
X7905343Y-9445234D02*
X7914867Y-9426187D01*
X7933914Y-9416663D01*
X7962486Y-9416663D01*
X7981533Y-9426187D01*
X7991057Y-9445234D01*
X7991057Y-9549996D01*
X8381533Y-9340472D02*
X8210105Y-9597615D01*
X8638676Y-9349996D02*
X8657724Y-9349996D01*
X8676771Y-9359520D01*
X8686295Y-9369044D01*
X8695819Y-9388091D01*
X8705343Y-9426187D01*
X8705343Y-9473806D01*
X8695819Y-9511901D01*
X8686295Y-9530949D01*
X8676771Y-9540472D01*
X8657724Y-9549996D01*
X8638676Y-9549996D01*
X8619629Y-9540472D01*
X8610105Y-9530949D01*
X8600581Y-9511901D01*
X8591057Y-9473806D01*
X8591057Y-9426187D01*
X8600581Y-9388091D01*
X8610105Y-9369044D01*
X8619629Y-9359520D01*
X8638676Y-9349996D01*
X8791057Y-9530949D02*
X8800581Y-9540472D01*
X8791057Y-9549996D01*
X8781533Y-9540472D01*
X8791057Y-9530949D01*
X8791057Y-9549996D01*
X8924390Y-9349996D02*
X8943438Y-9349996D01*
X8962486Y-9359520D01*
X8972010Y-9369044D01*
X8981533Y-9388091D01*
X8991057Y-9426187D01*
X8991057Y-9473806D01*
X8981533Y-9511901D01*
X8972010Y-9530949D01*
X8962486Y-9540472D01*
X8943438Y-9549996D01*
X8924390Y-9549996D01*
X8905343Y-9540472D01*
X8895819Y-9530949D01*
X8886295Y-9511901D01*
X8876771Y-9473806D01*
X8876771Y-9426187D01*
X8886295Y-9388091D01*
X8895819Y-9369044D01*
X8905343Y-9359520D01*
X8924390Y-9349996D01*
X9181533Y-9549996D02*
X9067248Y-9549996D01*
X9124390Y-9549996D02*
X9124390Y-9349996D01*
X9105343Y-9378568D01*
X9086295Y-9397615D01*
X9067248Y-9407139D01*
X9372010Y-9549996D02*
X9257724Y-9549996D01*
X9314867Y-9549996D02*
X9314867Y-9349996D01*
X9295819Y-9378568D01*
X9276771Y-9397615D01*
X9257724Y-9407139D01*
X9486295Y-9435710D02*
X9467248Y-9426187D01*
X9457724Y-9416663D01*
X9448200Y-9397615D01*
X9448200Y-9388091D01*
X9457724Y-9369044D01*
X9467248Y-9359520D01*
X9486295Y-9349996D01*
X9524390Y-9349996D01*
X9543438Y-9359520D01*
X9552962Y-9369044D01*
X9562486Y-9388091D01*
X9562486Y-9397615D01*
X9552962Y-9416663D01*
X9543438Y-9426187D01*
X9524390Y-9435710D01*
X9486295Y-9435710D01*
X9467248Y-9445234D01*
X9457724Y-9454758D01*
X9448200Y-9473806D01*
X9448200Y-9511901D01*
X9457724Y-9530949D01*
X9467248Y-9540472D01*
X9486295Y-9549996D01*
X9524390Y-9549996D01*
X9543438Y-9540472D01*
X9552962Y-9530949D01*
X9562486Y-9511901D01*
X9562486Y-9473806D01*
X9552962Y-9454758D01*
X9543438Y-9445234D01*
X9524390Y-9435710D01*
X9638676Y-9349996D02*
X9638676Y-9388091D01*
X9714867Y-9349996D02*
X9714867Y-9388091D01*
X10010105Y-9626187D02*
X10000581Y-9616663D01*
X9981533Y-9588091D01*
X9972010Y-9569044D01*
X9962486Y-9540472D01*
X9952962Y-9492853D01*
X9952962Y-9454758D01*
X9962486Y-9407139D01*
X9972010Y-9378568D01*
X9981533Y-9359520D01*
X10000581Y-9330949D01*
X10010105Y-9321425D01*
X10076771Y-9369044D02*
X10086295Y-9359520D01*
X10105343Y-9349996D01*
X10152962Y-9349996D01*
X10172010Y-9359520D01*
X10181533Y-9369044D01*
X10191057Y-9388091D01*
X10191057Y-9407139D01*
X10181533Y-9435710D01*
X10067248Y-9549996D01*
X10191057Y-9549996D01*
X10429152Y-9549996D02*
X10429152Y-9349996D01*
X10514867Y-9549996D02*
X10514867Y-9445234D01*
X10505343Y-9426187D01*
X10486295Y-9416663D01*
X10457724Y-9416663D01*
X10438676Y-9426187D01*
X10429152Y-9435710D01*
X10638676Y-9549996D02*
X10619629Y-9540472D01*
X10610105Y-9530949D01*
X10600581Y-9511901D01*
X10600581Y-9454758D01*
X10610105Y-9435710D01*
X10619629Y-9426187D01*
X10638676Y-9416663D01*
X10667248Y-9416663D01*
X10686295Y-9426187D01*
X10695819Y-9435710D01*
X10705343Y-9454758D01*
X10705343Y-9511901D01*
X10695819Y-9530949D01*
X10686295Y-9540472D01*
X10667248Y-9549996D01*
X10638676Y-9549996D01*
X10819629Y-9549996D02*
X10800581Y-9540472D01*
X10791057Y-9521425D01*
X10791057Y-9349996D01*
X10972010Y-9540472D02*
X10952962Y-9549996D01*
X10914867Y-9549996D01*
X10895819Y-9540472D01*
X10886295Y-9521425D01*
X10886295Y-9445234D01*
X10895819Y-9426187D01*
X10914867Y-9416663D01*
X10952962Y-9416663D01*
X10972010Y-9426187D01*
X10981533Y-9445234D01*
X10981533Y-9464282D01*
X10886295Y-9483330D01*
X11057724Y-9540472D02*
X11076771Y-9549996D01*
X11114867Y-9549996D01*
X11133914Y-9540472D01*
X11143438Y-9521425D01*
X11143438Y-9511901D01*
X11133914Y-9492853D01*
X11114867Y-9483330D01*
X11086295Y-9483330D01*
X11067248Y-9473806D01*
X11057724Y-9454758D01*
X11057724Y-9445234D01*
X11067248Y-9426187D01*
X11086295Y-9416663D01*
X11114867Y-9416663D01*
X11133914Y-9426187D01*
X11210105Y-9626187D02*
X11219628Y-9616663D01*
X11238676Y-9588091D01*
X11248200Y-9569044D01*
X11257724Y-9540472D01*
X11267248Y-9492853D01*
X11267248Y-9454758D01*
X11257724Y-9407139D01*
X11248200Y-9378568D01*
X11238676Y-9359520D01*
X11219628Y-9330949D01*
X11210105Y-9321425D01*
D14*
X6418200Y-9703520D02*
X6418200Y-9743520D01*
X6398200Y-9723520D02*
X6438200Y-9723520D01*
D11*
X6733914Y-9613996D02*
X6752962Y-9613996D01*
X6772009Y-9623520D01*
X6781533Y-9633044D01*
X6791057Y-9652091D01*
X6800581Y-9690187D01*
X6800581Y-9737806D01*
X6791057Y-9775901D01*
X6781533Y-9794949D01*
X6772009Y-9804472D01*
X6752962Y-9813996D01*
X6733914Y-9813996D01*
X6714867Y-9804472D01*
X6705343Y-9794949D01*
X6695819Y-9775901D01*
X6686295Y-9737806D01*
X6686295Y-9690187D01*
X6695819Y-9652091D01*
X6705343Y-9633044D01*
X6714867Y-9623520D01*
X6733914Y-9613996D01*
X6886295Y-9794949D02*
X6895819Y-9804472D01*
X6886295Y-9813996D01*
X6876771Y-9804472D01*
X6886295Y-9794949D01*
X6886295Y-9813996D01*
X7067248Y-9680663D02*
X7067248Y-9813996D01*
X7019628Y-9604472D02*
X6972009Y-9747330D01*
X7095819Y-9747330D01*
X7210105Y-9613996D02*
X7229152Y-9613996D01*
X7248200Y-9623520D01*
X7257724Y-9633044D01*
X7267248Y-9652091D01*
X7276771Y-9690187D01*
X7276771Y-9737806D01*
X7267248Y-9775901D01*
X7257724Y-9794949D01*
X7248200Y-9804472D01*
X7229152Y-9813996D01*
X7210105Y-9813996D01*
X7191057Y-9804472D01*
X7181533Y-9794949D01*
X7172009Y-9775901D01*
X7162486Y-9737806D01*
X7162486Y-9690187D01*
X7172009Y-9652091D01*
X7181533Y-9633044D01*
X7191057Y-9623520D01*
X7210105Y-9613996D01*
X7400581Y-9613996D02*
X7419628Y-9613996D01*
X7438676Y-9623520D01*
X7448200Y-9633044D01*
X7457724Y-9652091D01*
X7467248Y-9690187D01*
X7467248Y-9737806D01*
X7457724Y-9775901D01*
X7448200Y-9794949D01*
X7438676Y-9804472D01*
X7419628Y-9813996D01*
X7400581Y-9813996D01*
X7381533Y-9804472D01*
X7372009Y-9794949D01*
X7362486Y-9775901D01*
X7352962Y-9737806D01*
X7352962Y-9690187D01*
X7362486Y-9652091D01*
X7372009Y-9633044D01*
X7381533Y-9623520D01*
X7400581Y-9613996D01*
X7552962Y-9813996D02*
X7552962Y-9680663D01*
X7552962Y-9699710D02*
X7562486Y-9690187D01*
X7581533Y-9680663D01*
X7610105Y-9680663D01*
X7629152Y-9690187D01*
X7638676Y-9709234D01*
X7638676Y-9813996D01*
X7638676Y-9709234D02*
X7648200Y-9690187D01*
X7667248Y-9680663D01*
X7695819Y-9680663D01*
X7714867Y-9690187D01*
X7724390Y-9709234D01*
X7724390Y-9813996D01*
X7819628Y-9813996D02*
X7819628Y-9680663D01*
X7819628Y-9699710D02*
X7829152Y-9690187D01*
X7848200Y-9680663D01*
X7876771Y-9680663D01*
X7895819Y-9690187D01*
X7905343Y-9709234D01*
X7905343Y-9813996D01*
X7905343Y-9709234D02*
X7914867Y-9690187D01*
X7933914Y-9680663D01*
X7962486Y-9680663D01*
X7981533Y-9690187D01*
X7991057Y-9709234D01*
X7991057Y-9813996D01*
X8381533Y-9604472D02*
X8210105Y-9861615D01*
X8638676Y-9613996D02*
X8657724Y-9613996D01*
X8676771Y-9623520D01*
X8686295Y-9633044D01*
X8695819Y-9652091D01*
X8705343Y-9690187D01*
X8705343Y-9737806D01*
X8695819Y-9775901D01*
X8686295Y-9794949D01*
X8676771Y-9804472D01*
X8657724Y-9813996D01*
X8638676Y-9813996D01*
X8619629Y-9804472D01*
X8610105Y-9794949D01*
X8600581Y-9775901D01*
X8591057Y-9737806D01*
X8591057Y-9690187D01*
X8600581Y-9652091D01*
X8610105Y-9633044D01*
X8619629Y-9623520D01*
X8638676Y-9613996D01*
X8791057Y-9794949D02*
X8800581Y-9804472D01*
X8791057Y-9813996D01*
X8781533Y-9804472D01*
X8791057Y-9794949D01*
X8791057Y-9813996D01*
X8924390Y-9613996D02*
X8943438Y-9613996D01*
X8962486Y-9623520D01*
X8972010Y-9633044D01*
X8981533Y-9652091D01*
X8991057Y-9690187D01*
X8991057Y-9737806D01*
X8981533Y-9775901D01*
X8972010Y-9794949D01*
X8962486Y-9804472D01*
X8943438Y-9813996D01*
X8924390Y-9813996D01*
X8905343Y-9804472D01*
X8895819Y-9794949D01*
X8886295Y-9775901D01*
X8876771Y-9737806D01*
X8876771Y-9690187D01*
X8886295Y-9652091D01*
X8895819Y-9633044D01*
X8905343Y-9623520D01*
X8924390Y-9613996D01*
X9181533Y-9813996D02*
X9067248Y-9813996D01*
X9124390Y-9813996D02*
X9124390Y-9613996D01*
X9105343Y-9642568D01*
X9086295Y-9661615D01*
X9067248Y-9671139D01*
X9362486Y-9613996D02*
X9267248Y-9613996D01*
X9257724Y-9709234D01*
X9267248Y-9699710D01*
X9286295Y-9690187D01*
X9333914Y-9690187D01*
X9352962Y-9699710D01*
X9362486Y-9709234D01*
X9372010Y-9728282D01*
X9372010Y-9775901D01*
X9362486Y-9794949D01*
X9352962Y-9804472D01*
X9333914Y-9813996D01*
X9286295Y-9813996D01*
X9267248Y-9804472D01*
X9257724Y-9794949D01*
X9438676Y-9613996D02*
X9572010Y-9613996D01*
X9486295Y-9813996D01*
X9638676Y-9613996D02*
X9638676Y-9652091D01*
X9714867Y-9613996D02*
X9714867Y-9652091D01*
X10010105Y-9890187D02*
X10000581Y-9880663D01*
X9981533Y-9852091D01*
X9972010Y-9833044D01*
X9962486Y-9804472D01*
X9952962Y-9756853D01*
X9952962Y-9718758D01*
X9962486Y-9671139D01*
X9972010Y-9642568D01*
X9981533Y-9623520D01*
X10000581Y-9594949D01*
X10010105Y-9585425D01*
X10191057Y-9813996D02*
X10076771Y-9813996D01*
X10133914Y-9813996D02*
X10133914Y-9613996D01*
X10114867Y-9642568D01*
X10095819Y-9661615D01*
X10076771Y-9671139D01*
X10305343Y-9699710D02*
X10286295Y-9690187D01*
X10276771Y-9680663D01*
X10267248Y-9661615D01*
X10267248Y-9652091D01*
X10276771Y-9633044D01*
X10286295Y-9623520D01*
X10305343Y-9613996D01*
X10343438Y-9613996D01*
X10362486Y-9623520D01*
X10372010Y-9633044D01*
X10381533Y-9652091D01*
X10381533Y-9661615D01*
X10372010Y-9680663D01*
X10362486Y-9690187D01*
X10343438Y-9699710D01*
X10305343Y-9699710D01*
X10286295Y-9709234D01*
X10276771Y-9718758D01*
X10267248Y-9737806D01*
X10267248Y-9775901D01*
X10276771Y-9794949D01*
X10286295Y-9804472D01*
X10305343Y-9813996D01*
X10343438Y-9813996D01*
X10362486Y-9804472D01*
X10372010Y-9794949D01*
X10381533Y-9775901D01*
X10381533Y-9737806D01*
X10372010Y-9718758D01*
X10362486Y-9709234D01*
X10343438Y-9699710D01*
X10619629Y-9813996D02*
X10619629Y-9613996D01*
X10705343Y-9813996D02*
X10705343Y-9709234D01*
X10695819Y-9690187D01*
X10676771Y-9680663D01*
X10648200Y-9680663D01*
X10629152Y-9690187D01*
X10619629Y-9699710D01*
X10829152Y-9813996D02*
X10810105Y-9804472D01*
X10800581Y-9794949D01*
X10791057Y-9775901D01*
X10791057Y-9718758D01*
X10800581Y-9699710D01*
X10810105Y-9690187D01*
X10829152Y-9680663D01*
X10857724Y-9680663D01*
X10876771Y-9690187D01*
X10886295Y-9699710D01*
X10895819Y-9718758D01*
X10895819Y-9775901D01*
X10886295Y-9794949D01*
X10876771Y-9804472D01*
X10857724Y-9813996D01*
X10829152Y-9813996D01*
X11010105Y-9813996D02*
X10991057Y-9804472D01*
X10981533Y-9785425D01*
X10981533Y-9613996D01*
X11162486Y-9804472D02*
X11143438Y-9813996D01*
X11105343Y-9813996D01*
X11086295Y-9804472D01*
X11076771Y-9785425D01*
X11076771Y-9709234D01*
X11086295Y-9690187D01*
X11105343Y-9680663D01*
X11143438Y-9680663D01*
X11162486Y-9690187D01*
X11172010Y-9709234D01*
X11172010Y-9728282D01*
X11076771Y-9747330D01*
X11248200Y-9804472D02*
X11267248Y-9813996D01*
X11305343Y-9813996D01*
X11324390Y-9804472D01*
X11333914Y-9785425D01*
X11333914Y-9775901D01*
X11324390Y-9756853D01*
X11305343Y-9747330D01*
X11276771Y-9747330D01*
X11257724Y-9737806D01*
X11248200Y-9718758D01*
X11248200Y-9709234D01*
X11257724Y-9690187D01*
X11276771Y-9680663D01*
X11305343Y-9680663D01*
X11324390Y-9690187D01*
X11400581Y-9890187D02*
X11410105Y-9880663D01*
X11429152Y-9852091D01*
X11438676Y-9833044D01*
X11448200Y-9804472D01*
X11457724Y-9756853D01*
X11457724Y-9718758D01*
X11448200Y-9671139D01*
X11438676Y-9642568D01*
X11429152Y-9623520D01*
X11410105Y-9594949D01*
X11400581Y-9585425D01*
D15*
X6430878Y-10005198D02*
X6430878Y-9969842D01*
X6395522Y-9969842D01*
X6395522Y-10005198D01*
X6430878Y-10005198D01*
D11*
X6733914Y-9877996D02*
X6752962Y-9877996D01*
X6772009Y-9887520D01*
X6781533Y-9897044D01*
X6791057Y-9916091D01*
X6800581Y-9954187D01*
X6800581Y-10001806D01*
X6791057Y-10039901D01*
X6781533Y-10058949D01*
X6772009Y-10068472D01*
X6752962Y-10077996D01*
X6733914Y-10077996D01*
X6714867Y-10068472D01*
X6705343Y-10058949D01*
X6695819Y-10039901D01*
X6686295Y-10001806D01*
X6686295Y-9954187D01*
X6695819Y-9916091D01*
X6705343Y-9897044D01*
X6714867Y-9887520D01*
X6733914Y-9877996D01*
X6886295Y-10058949D02*
X6895819Y-10068472D01*
X6886295Y-10077996D01*
X6876771Y-10068472D01*
X6886295Y-10058949D01*
X6886295Y-10077996D01*
X7076771Y-9877996D02*
X6981533Y-9877996D01*
X6972009Y-9973234D01*
X6981533Y-9963710D01*
X7000581Y-9954187D01*
X7048200Y-9954187D01*
X7067248Y-9963710D01*
X7076771Y-9973234D01*
X7086295Y-9992282D01*
X7086295Y-10039901D01*
X7076771Y-10058949D01*
X7067248Y-10068472D01*
X7048200Y-10077996D01*
X7000581Y-10077996D01*
X6981533Y-10068472D01*
X6972009Y-10058949D01*
X7210105Y-9877996D02*
X7229152Y-9877996D01*
X7248200Y-9887520D01*
X7257724Y-9897044D01*
X7267248Y-9916091D01*
X7276771Y-9954187D01*
X7276771Y-10001806D01*
X7267248Y-10039901D01*
X7257724Y-10058949D01*
X7248200Y-10068472D01*
X7229152Y-10077996D01*
X7210105Y-10077996D01*
X7191057Y-10068472D01*
X7181533Y-10058949D01*
X7172009Y-10039901D01*
X7162486Y-10001806D01*
X7162486Y-9954187D01*
X7172009Y-9916091D01*
X7181533Y-9897044D01*
X7191057Y-9887520D01*
X7210105Y-9877996D01*
X7400581Y-9877996D02*
X7419628Y-9877996D01*
X7438676Y-9887520D01*
X7448200Y-9897044D01*
X7457724Y-9916091D01*
X7467248Y-9954187D01*
X7467248Y-10001806D01*
X7457724Y-10039901D01*
X7448200Y-10058949D01*
X7438676Y-10068472D01*
X7419628Y-10077996D01*
X7400581Y-10077996D01*
X7381533Y-10068472D01*
X7372009Y-10058949D01*
X7362486Y-10039901D01*
X7352962Y-10001806D01*
X7352962Y-9954187D01*
X7362486Y-9916091D01*
X7372009Y-9897044D01*
X7381533Y-9887520D01*
X7400581Y-9877996D01*
X7552962Y-10077996D02*
X7552962Y-9944663D01*
X7552962Y-9963710D02*
X7562486Y-9954187D01*
X7581533Y-9944663D01*
X7610105Y-9944663D01*
X7629152Y-9954187D01*
X7638676Y-9973234D01*
X7638676Y-10077996D01*
X7638676Y-9973234D02*
X7648200Y-9954187D01*
X7667248Y-9944663D01*
X7695819Y-9944663D01*
X7714867Y-9954187D01*
X7724390Y-9973234D01*
X7724390Y-10077996D01*
X7819628Y-10077996D02*
X7819628Y-9944663D01*
X7819628Y-9963710D02*
X7829152Y-9954187D01*
X7848200Y-9944663D01*
X7876771Y-9944663D01*
X7895819Y-9954187D01*
X7905343Y-9973234D01*
X7905343Y-10077996D01*
X7905343Y-9973234D02*
X7914867Y-9954187D01*
X7933914Y-9944663D01*
X7962486Y-9944663D01*
X7981533Y-9954187D01*
X7991057Y-9973234D01*
X7991057Y-10077996D01*
X8381533Y-9868472D02*
X8210105Y-10125615D01*
X8638676Y-9877996D02*
X8657724Y-9877996D01*
X8676771Y-9887520D01*
X8686295Y-9897044D01*
X8695819Y-9916091D01*
X8705343Y-9954187D01*
X8705343Y-10001806D01*
X8695819Y-10039901D01*
X8686295Y-10058949D01*
X8676771Y-10068472D01*
X8657724Y-10077996D01*
X8638676Y-10077996D01*
X8619629Y-10068472D01*
X8610105Y-10058949D01*
X8600581Y-10039901D01*
X8591057Y-10001806D01*
X8591057Y-9954187D01*
X8600581Y-9916091D01*
X8610105Y-9897044D01*
X8619629Y-9887520D01*
X8638676Y-9877996D01*
X8791057Y-10058949D02*
X8800581Y-10068472D01*
X8791057Y-10077996D01*
X8781533Y-10068472D01*
X8791057Y-10058949D01*
X8791057Y-10077996D01*
X8924390Y-9877996D02*
X8943438Y-9877996D01*
X8962486Y-9887520D01*
X8972010Y-9897044D01*
X8981533Y-9916091D01*
X8991057Y-9954187D01*
X8991057Y-10001806D01*
X8981533Y-10039901D01*
X8972010Y-10058949D01*
X8962486Y-10068472D01*
X8943438Y-10077996D01*
X8924390Y-10077996D01*
X8905343Y-10068472D01*
X8895819Y-10058949D01*
X8886295Y-10039901D01*
X8876771Y-10001806D01*
X8876771Y-9954187D01*
X8886295Y-9916091D01*
X8895819Y-9897044D01*
X8905343Y-9887520D01*
X8924390Y-9877996D01*
X9181533Y-10077996D02*
X9067248Y-10077996D01*
X9124390Y-10077996D02*
X9124390Y-9877996D01*
X9105343Y-9906568D01*
X9086295Y-9925615D01*
X9067248Y-9935139D01*
X9276771Y-10077996D02*
X9314867Y-10077996D01*
X9333914Y-10068472D01*
X9343438Y-10058949D01*
X9362486Y-10030377D01*
X9372010Y-9992282D01*
X9372010Y-9916091D01*
X9362486Y-9897044D01*
X9352962Y-9887520D01*
X9333914Y-9877996D01*
X9295819Y-9877996D01*
X9276771Y-9887520D01*
X9267248Y-9897044D01*
X9257724Y-9916091D01*
X9257724Y-9963710D01*
X9267248Y-9982758D01*
X9276771Y-9992282D01*
X9295819Y-10001806D01*
X9333914Y-10001806D01*
X9352962Y-9992282D01*
X9362486Y-9982758D01*
X9372010Y-9963710D01*
X9438676Y-9877996D02*
X9572010Y-9877996D01*
X9486295Y-10077996D01*
X9638676Y-9877996D02*
X9638676Y-9916091D01*
X9714867Y-9877996D02*
X9714867Y-9916091D01*
X10010105Y-10154187D02*
X10000581Y-10144663D01*
X9981533Y-10116091D01*
X9972010Y-10097044D01*
X9962486Y-10068472D01*
X9952962Y-10020853D01*
X9952962Y-9982758D01*
X9962486Y-9935139D01*
X9972010Y-9906568D01*
X9981533Y-9887520D01*
X10000581Y-9858949D01*
X10010105Y-9849425D01*
X10124390Y-9877996D02*
X10143438Y-9877996D01*
X10162486Y-9887520D01*
X10172010Y-9897044D01*
X10181533Y-9916091D01*
X10191057Y-9954187D01*
X10191057Y-10001806D01*
X10181533Y-10039901D01*
X10172010Y-10058949D01*
X10162486Y-10068472D01*
X10143438Y-10077996D01*
X10124390Y-10077996D01*
X10105343Y-10068472D01*
X10095819Y-10058949D01*
X10086295Y-10039901D01*
X10076771Y-10001806D01*
X10076771Y-9954187D01*
X10086295Y-9916091D01*
X10095819Y-9897044D01*
X10105343Y-9887520D01*
X10124390Y-9877996D01*
X10429152Y-10077996D02*
X10429152Y-9877996D01*
X10514867Y-10077996D02*
X10514867Y-9973234D01*
X10505343Y-9954187D01*
X10486295Y-9944663D01*
X10457724Y-9944663D01*
X10438676Y-9954187D01*
X10429152Y-9963710D01*
X10638676Y-10077996D02*
X10619629Y-10068472D01*
X10610105Y-10058949D01*
X10600581Y-10039901D01*
X10600581Y-9982758D01*
X10610105Y-9963710D01*
X10619629Y-9954187D01*
X10638676Y-9944663D01*
X10667248Y-9944663D01*
X10686295Y-9954187D01*
X10695819Y-9963710D01*
X10705343Y-9982758D01*
X10705343Y-10039901D01*
X10695819Y-10058949D01*
X10686295Y-10068472D01*
X10667248Y-10077996D01*
X10638676Y-10077996D01*
X10819629Y-10077996D02*
X10800581Y-10068472D01*
X10791057Y-10049425D01*
X10791057Y-9877996D01*
X10972010Y-10068472D02*
X10952962Y-10077996D01*
X10914867Y-10077996D01*
X10895819Y-10068472D01*
X10886295Y-10049425D01*
X10886295Y-9973234D01*
X10895819Y-9954187D01*
X10914867Y-9944663D01*
X10952962Y-9944663D01*
X10972010Y-9954187D01*
X10981533Y-9973234D01*
X10981533Y-9992282D01*
X10886295Y-10011330D01*
X11057724Y-10068472D02*
X11076771Y-10077996D01*
X11114867Y-10077996D01*
X11133914Y-10068472D01*
X11143438Y-10049425D01*
X11143438Y-10039901D01*
X11133914Y-10020853D01*
X11114867Y-10011330D01*
X11086295Y-10011330D01*
X11067248Y-10001806D01*
X11057724Y-9982758D01*
X11057724Y-9973234D01*
X11067248Y-9954187D01*
X11086295Y-9944663D01*
X11114867Y-9944663D01*
X11133914Y-9954187D01*
X11381533Y-10001806D02*
X11533914Y-10001806D01*
X11457724Y-10077996D02*
X11457724Y-9925615D01*
X11772009Y-9897044D02*
X11781533Y-9887520D01*
X11800581Y-9877996D01*
X11848200Y-9877996D01*
X11867248Y-9887520D01*
X11876771Y-9897044D01*
X11886295Y-9916091D01*
X11886295Y-9935139D01*
X11876771Y-9963710D01*
X11762486Y-10077996D01*
X11886295Y-10077996D01*
X12114867Y-10068472D02*
X12133914Y-10077996D01*
X12172009Y-10077996D01*
X12191057Y-10068472D01*
X12200581Y-10049425D01*
X12200581Y-10039901D01*
X12191057Y-10020853D01*
X12172009Y-10011330D01*
X12143438Y-10011330D01*
X12124390Y-10001806D01*
X12114867Y-9982758D01*
X12114867Y-9973234D01*
X12124390Y-9954187D01*
X12143438Y-9944663D01*
X12172009Y-9944663D01*
X12191057Y-9954187D01*
X12314867Y-10077996D02*
X12295819Y-10068472D01*
X12286295Y-10049425D01*
X12286295Y-9877996D01*
X12419628Y-10077996D02*
X12400581Y-10068472D01*
X12391057Y-10058949D01*
X12381533Y-10039901D01*
X12381533Y-9982758D01*
X12391057Y-9963710D01*
X12400581Y-9954187D01*
X12419628Y-9944663D01*
X12448200Y-9944663D01*
X12467248Y-9954187D01*
X12476771Y-9963710D01*
X12486295Y-9982758D01*
X12486295Y-10039901D01*
X12476771Y-10058949D01*
X12467248Y-10068472D01*
X12448200Y-10077996D01*
X12419628Y-10077996D01*
X12543438Y-9944663D02*
X12619628Y-9944663D01*
X12572009Y-9877996D02*
X12572009Y-10049425D01*
X12581533Y-10068472D01*
X12600581Y-10077996D01*
X12619628Y-10077996D01*
X12676771Y-10068472D02*
X12695819Y-10077996D01*
X12733914Y-10077996D01*
X12752962Y-10068472D01*
X12762486Y-10049425D01*
X12762486Y-10039901D01*
X12752962Y-10020853D01*
X12733914Y-10011330D01*
X12705343Y-10011330D01*
X12686295Y-10001806D01*
X12676771Y-9982758D01*
X12676771Y-9973234D01*
X12686295Y-9954187D01*
X12705343Y-9944663D01*
X12733914Y-9944663D01*
X12752962Y-9954187D01*
X12829152Y-10154187D02*
X12838676Y-10144663D01*
X12857724Y-10116091D01*
X12867248Y-10097044D01*
X12876771Y-10068472D01*
X12886295Y-10020853D01*
X12886295Y-9982758D01*
X12876771Y-9935139D01*
X12867248Y-9906568D01*
X12857724Y-9887520D01*
X12838676Y-9858949D01*
X12829152Y-9849425D01*
D16*
X6410700Y-10279020D02*
X6438200Y-10251520D01*
X6410700Y-10224020D01*
X6383200Y-10251520D01*
X6410700Y-10279020D01*
D11*
X6733914Y-10141996D02*
X6752962Y-10141996D01*
X6772009Y-10151520D01*
X6781533Y-10161044D01*
X6791057Y-10180091D01*
X6800581Y-10218187D01*
X6800581Y-10265806D01*
X6791057Y-10303901D01*
X6781533Y-10322949D01*
X6772009Y-10332472D01*
X6752962Y-10341996D01*
X6733914Y-10341996D01*
X6714867Y-10332472D01*
X6705343Y-10322949D01*
X6695819Y-10303901D01*
X6686295Y-10265806D01*
X6686295Y-10218187D01*
X6695819Y-10180091D01*
X6705343Y-10161044D01*
X6714867Y-10151520D01*
X6733914Y-10141996D01*
X6886295Y-10322949D02*
X6895819Y-10332472D01*
X6886295Y-10341996D01*
X6876771Y-10332472D01*
X6886295Y-10322949D01*
X6886295Y-10341996D01*
X7076771Y-10141996D02*
X6981533Y-10141996D01*
X6972009Y-10237234D01*
X6981533Y-10227710D01*
X7000581Y-10218187D01*
X7048200Y-10218187D01*
X7067248Y-10227710D01*
X7076771Y-10237234D01*
X7086295Y-10256282D01*
X7086295Y-10303901D01*
X7076771Y-10322949D01*
X7067248Y-10332472D01*
X7048200Y-10341996D01*
X7000581Y-10341996D01*
X6981533Y-10332472D01*
X6972009Y-10322949D01*
X7267248Y-10141996D02*
X7172009Y-10141996D01*
X7162486Y-10237234D01*
X7172009Y-10227710D01*
X7191057Y-10218187D01*
X7238676Y-10218187D01*
X7257724Y-10227710D01*
X7267248Y-10237234D01*
X7276771Y-10256282D01*
X7276771Y-10303901D01*
X7267248Y-10322949D01*
X7257724Y-10332472D01*
X7238676Y-10341996D01*
X7191057Y-10341996D01*
X7172009Y-10332472D01*
X7162486Y-10322949D01*
X7400581Y-10141996D02*
X7419628Y-10141996D01*
X7438676Y-10151520D01*
X7448200Y-10161044D01*
X7457724Y-10180091D01*
X7467248Y-10218187D01*
X7467248Y-10265806D01*
X7457724Y-10303901D01*
X7448200Y-10322949D01*
X7438676Y-10332472D01*
X7419628Y-10341996D01*
X7400581Y-10341996D01*
X7381533Y-10332472D01*
X7372009Y-10322949D01*
X7362486Y-10303901D01*
X7352962Y-10265806D01*
X7352962Y-10218187D01*
X7362486Y-10180091D01*
X7372009Y-10161044D01*
X7381533Y-10151520D01*
X7400581Y-10141996D01*
X7552962Y-10341996D02*
X7552962Y-10208663D01*
X7552962Y-10227710D02*
X7562486Y-10218187D01*
X7581533Y-10208663D01*
X7610105Y-10208663D01*
X7629152Y-10218187D01*
X7638676Y-10237234D01*
X7638676Y-10341996D01*
X7638676Y-10237234D02*
X7648200Y-10218187D01*
X7667248Y-10208663D01*
X7695819Y-10208663D01*
X7714867Y-10218187D01*
X7724390Y-10237234D01*
X7724390Y-10341996D01*
X7819628Y-10341996D02*
X7819628Y-10208663D01*
X7819628Y-10227710D02*
X7829152Y-10218187D01*
X7848200Y-10208663D01*
X7876771Y-10208663D01*
X7895819Y-10218187D01*
X7905343Y-10237234D01*
X7905343Y-10341996D01*
X7905343Y-10237234D02*
X7914867Y-10218187D01*
X7933914Y-10208663D01*
X7962486Y-10208663D01*
X7981533Y-10218187D01*
X7991057Y-10237234D01*
X7991057Y-10341996D01*
X8381533Y-10132472D02*
X8210105Y-10389615D01*
X8638676Y-10141996D02*
X8657724Y-10141996D01*
X8676771Y-10151520D01*
X8686295Y-10161044D01*
X8695819Y-10180091D01*
X8705343Y-10218187D01*
X8705343Y-10265806D01*
X8695819Y-10303901D01*
X8686295Y-10322949D01*
X8676771Y-10332472D01*
X8657724Y-10341996D01*
X8638676Y-10341996D01*
X8619629Y-10332472D01*
X8610105Y-10322949D01*
X8600581Y-10303901D01*
X8591057Y-10265806D01*
X8591057Y-10218187D01*
X8600581Y-10180091D01*
X8610105Y-10161044D01*
X8619629Y-10151520D01*
X8638676Y-10141996D01*
X8791057Y-10322949D02*
X8800581Y-10332472D01*
X8791057Y-10341996D01*
X8781533Y-10332472D01*
X8791057Y-10322949D01*
X8791057Y-10341996D01*
X8924390Y-10141996D02*
X8943438Y-10141996D01*
X8962486Y-10151520D01*
X8972010Y-10161044D01*
X8981533Y-10180091D01*
X8991057Y-10218187D01*
X8991057Y-10265806D01*
X8981533Y-10303901D01*
X8972010Y-10322949D01*
X8962486Y-10332472D01*
X8943438Y-10341996D01*
X8924390Y-10341996D01*
X8905343Y-10332472D01*
X8895819Y-10322949D01*
X8886295Y-10303901D01*
X8876771Y-10265806D01*
X8876771Y-10218187D01*
X8886295Y-10180091D01*
X8895819Y-10161044D01*
X8905343Y-10151520D01*
X8924390Y-10141996D01*
X9067248Y-10161044D02*
X9076771Y-10151520D01*
X9095819Y-10141996D01*
X9143438Y-10141996D01*
X9162486Y-10151520D01*
X9172010Y-10161044D01*
X9181533Y-10180091D01*
X9181533Y-10199139D01*
X9172010Y-10227710D01*
X9057724Y-10341996D01*
X9181533Y-10341996D01*
X9372010Y-10341996D02*
X9257724Y-10341996D01*
X9314867Y-10341996D02*
X9314867Y-10141996D01*
X9295819Y-10170568D01*
X9276771Y-10189615D01*
X9257724Y-10199139D01*
X9438676Y-10141996D02*
X9572010Y-10141996D01*
X9486295Y-10341996D01*
X9638676Y-10141996D02*
X9638676Y-10180091D01*
X9714867Y-10141996D02*
X9714867Y-10180091D01*
X10010105Y-10418187D02*
X10000581Y-10408663D01*
X9981533Y-10380091D01*
X9972010Y-10361044D01*
X9962486Y-10332472D01*
X9952962Y-10284853D01*
X9952962Y-10246758D01*
X9962486Y-10199139D01*
X9972010Y-10170568D01*
X9981533Y-10151520D01*
X10000581Y-10122949D01*
X10010105Y-10113425D01*
X10124390Y-10141996D02*
X10143438Y-10141996D01*
X10162486Y-10151520D01*
X10172010Y-10161044D01*
X10181533Y-10180091D01*
X10191057Y-10218187D01*
X10191057Y-10265806D01*
X10181533Y-10303901D01*
X10172010Y-10322949D01*
X10162486Y-10332472D01*
X10143438Y-10341996D01*
X10124390Y-10341996D01*
X10105343Y-10332472D01*
X10095819Y-10322949D01*
X10086295Y-10303901D01*
X10076771Y-10265806D01*
X10076771Y-10218187D01*
X10086295Y-10180091D01*
X10095819Y-10161044D01*
X10105343Y-10151520D01*
X10124390Y-10141996D01*
X10429152Y-10341996D02*
X10429152Y-10141996D01*
X10514867Y-10341996D02*
X10514867Y-10237234D01*
X10505343Y-10218187D01*
X10486295Y-10208663D01*
X10457724Y-10208663D01*
X10438676Y-10218187D01*
X10429152Y-10227710D01*
X10638676Y-10341996D02*
X10619629Y-10332472D01*
X10610105Y-10322949D01*
X10600581Y-10303901D01*
X10600581Y-10246758D01*
X10610105Y-10227710D01*
X10619629Y-10218187D01*
X10638676Y-10208663D01*
X10667248Y-10208663D01*
X10686295Y-10218187D01*
X10695819Y-10227710D01*
X10705343Y-10246758D01*
X10705343Y-10303901D01*
X10695819Y-10322949D01*
X10686295Y-10332472D01*
X10667248Y-10341996D01*
X10638676Y-10341996D01*
X10819629Y-10341996D02*
X10800581Y-10332472D01*
X10791057Y-10313425D01*
X10791057Y-10141996D01*
X10972010Y-10332472D02*
X10952962Y-10341996D01*
X10914867Y-10341996D01*
X10895819Y-10332472D01*
X10886295Y-10313425D01*
X10886295Y-10237234D01*
X10895819Y-10218187D01*
X10914867Y-10208663D01*
X10952962Y-10208663D01*
X10972010Y-10218187D01*
X10981533Y-10237234D01*
X10981533Y-10256282D01*
X10886295Y-10275330D01*
X11057724Y-10332472D02*
X11076771Y-10341996D01*
X11114867Y-10341996D01*
X11133914Y-10332472D01*
X11143438Y-10313425D01*
X11143438Y-10303901D01*
X11133914Y-10284853D01*
X11114867Y-10275330D01*
X11086295Y-10275330D01*
X11067248Y-10265806D01*
X11057724Y-10246758D01*
X11057724Y-10237234D01*
X11067248Y-10218187D01*
X11086295Y-10208663D01*
X11114867Y-10208663D01*
X11133914Y-10218187D01*
X11381533Y-10265806D02*
X11533914Y-10265806D01*
X11457724Y-10341996D02*
X11457724Y-10189615D01*
X11772009Y-10161044D02*
X11781533Y-10151520D01*
X11800581Y-10141996D01*
X11848200Y-10141996D01*
X11867248Y-10151520D01*
X11876771Y-10161044D01*
X11886295Y-10180091D01*
X11886295Y-10199139D01*
X11876771Y-10227710D01*
X11762486Y-10341996D01*
X11886295Y-10341996D01*
X12114867Y-10332472D02*
X12133914Y-10341996D01*
X12172009Y-10341996D01*
X12191057Y-10332472D01*
X12200581Y-10313425D01*
X12200581Y-10303901D01*
X12191057Y-10284853D01*
X12172009Y-10275330D01*
X12143438Y-10275330D01*
X12124390Y-10265806D01*
X12114867Y-10246758D01*
X12114867Y-10237234D01*
X12124390Y-10218187D01*
X12143438Y-10208663D01*
X12172009Y-10208663D01*
X12191057Y-10218187D01*
X12314867Y-10341996D02*
X12295819Y-10332472D01*
X12286295Y-10313425D01*
X12286295Y-10141996D01*
X12419628Y-10341996D02*
X12400581Y-10332472D01*
X12391057Y-10322949D01*
X12381533Y-10303901D01*
X12381533Y-10246758D01*
X12391057Y-10227710D01*
X12400581Y-10218187D01*
X12419628Y-10208663D01*
X12448200Y-10208663D01*
X12467248Y-10218187D01*
X12476771Y-10227710D01*
X12486295Y-10246758D01*
X12486295Y-10303901D01*
X12476771Y-10322949D01*
X12467248Y-10332472D01*
X12448200Y-10341996D01*
X12419628Y-10341996D01*
X12543438Y-10208663D02*
X12619628Y-10208663D01*
X12572009Y-10141996D02*
X12572009Y-10313425D01*
X12581533Y-10332472D01*
X12600581Y-10341996D01*
X12619628Y-10341996D01*
X12676771Y-10332472D02*
X12695819Y-10341996D01*
X12733914Y-10341996D01*
X12752962Y-10332472D01*
X12762486Y-10313425D01*
X12762486Y-10303901D01*
X12752962Y-10284853D01*
X12733914Y-10275330D01*
X12705343Y-10275330D01*
X12686295Y-10265806D01*
X12676771Y-10246758D01*
X12676771Y-10237234D01*
X12686295Y-10218187D01*
X12705343Y-10208663D01*
X12733914Y-10208663D01*
X12752962Y-10218187D01*
X12829152Y-10418187D02*
X12838676Y-10408663D01*
X12857724Y-10380091D01*
X12867248Y-10361044D01*
X12876771Y-10332472D01*
X12886295Y-10284853D01*
X12886295Y-10246758D01*
X12876771Y-10199139D01*
X12867248Y-10170568D01*
X12857724Y-10151520D01*
X12838676Y-10122949D01*
X12829152Y-10113425D01*
D17*
X6363200Y-10478020D02*
X6438200Y-10553020D01*
X6438200Y-10478020D02*
X6363200Y-10553020D01*
X6438200Y-10515520D02*
G75*
G03*
X6438200Y-10515520I-37500J0D01*
G01*
D11*
X6733914Y-10405996D02*
X6752962Y-10405996D01*
X6772009Y-10415520D01*
X6781533Y-10425044D01*
X6791057Y-10444091D01*
X6800581Y-10482187D01*
X6800581Y-10529806D01*
X6791057Y-10567901D01*
X6781533Y-10586949D01*
X6772009Y-10596472D01*
X6752962Y-10605996D01*
X6733914Y-10605996D01*
X6714867Y-10596472D01*
X6705343Y-10586949D01*
X6695819Y-10567901D01*
X6686295Y-10529806D01*
X6686295Y-10482187D01*
X6695819Y-10444091D01*
X6705343Y-10425044D01*
X6714867Y-10415520D01*
X6733914Y-10405996D01*
X6886295Y-10586949D02*
X6895819Y-10596472D01*
X6886295Y-10605996D01*
X6876771Y-10596472D01*
X6886295Y-10586949D01*
X6886295Y-10605996D01*
X6962486Y-10405996D02*
X7095819Y-10405996D01*
X7010105Y-10605996D01*
X7267248Y-10405996D02*
X7172009Y-10405996D01*
X7162486Y-10501234D01*
X7172009Y-10491710D01*
X7191057Y-10482187D01*
X7238676Y-10482187D01*
X7257724Y-10491710D01*
X7267248Y-10501234D01*
X7276771Y-10520282D01*
X7276771Y-10567901D01*
X7267248Y-10586949D01*
X7257724Y-10596472D01*
X7238676Y-10605996D01*
X7191057Y-10605996D01*
X7172009Y-10596472D01*
X7162486Y-10586949D01*
X7400581Y-10405996D02*
X7419628Y-10405996D01*
X7438676Y-10415520D01*
X7448200Y-10425044D01*
X7457724Y-10444091D01*
X7467248Y-10482187D01*
X7467248Y-10529806D01*
X7457724Y-10567901D01*
X7448200Y-10586949D01*
X7438676Y-10596472D01*
X7419628Y-10605996D01*
X7400581Y-10605996D01*
X7381533Y-10596472D01*
X7372009Y-10586949D01*
X7362486Y-10567901D01*
X7352962Y-10529806D01*
X7352962Y-10482187D01*
X7362486Y-10444091D01*
X7372009Y-10425044D01*
X7381533Y-10415520D01*
X7400581Y-10405996D01*
X7552962Y-10605996D02*
X7552962Y-10472663D01*
X7552962Y-10491710D02*
X7562486Y-10482187D01*
X7581533Y-10472663D01*
X7610105Y-10472663D01*
X7629152Y-10482187D01*
X7638676Y-10501234D01*
X7638676Y-10605996D01*
X7638676Y-10501234D02*
X7648200Y-10482187D01*
X7667248Y-10472663D01*
X7695819Y-10472663D01*
X7714867Y-10482187D01*
X7724390Y-10501234D01*
X7724390Y-10605996D01*
X7819628Y-10605996D02*
X7819628Y-10472663D01*
X7819628Y-10491710D02*
X7829152Y-10482187D01*
X7848200Y-10472663D01*
X7876771Y-10472663D01*
X7895819Y-10482187D01*
X7905343Y-10501234D01*
X7905343Y-10605996D01*
X7905343Y-10501234D02*
X7914867Y-10482187D01*
X7933914Y-10472663D01*
X7962486Y-10472663D01*
X7981533Y-10482187D01*
X7991057Y-10501234D01*
X7991057Y-10605996D01*
X8381533Y-10396472D02*
X8210105Y-10653615D01*
X8638676Y-10405996D02*
X8657724Y-10405996D01*
X8676771Y-10415520D01*
X8686295Y-10425044D01*
X8695819Y-10444091D01*
X8705343Y-10482187D01*
X8705343Y-10529806D01*
X8695819Y-10567901D01*
X8686295Y-10586949D01*
X8676771Y-10596472D01*
X8657724Y-10605996D01*
X8638676Y-10605996D01*
X8619629Y-10596472D01*
X8610105Y-10586949D01*
X8600581Y-10567901D01*
X8591057Y-10529806D01*
X8591057Y-10482187D01*
X8600581Y-10444091D01*
X8610105Y-10425044D01*
X8619629Y-10415520D01*
X8638676Y-10405996D01*
X8791057Y-10586949D02*
X8800581Y-10596472D01*
X8791057Y-10605996D01*
X8781533Y-10596472D01*
X8791057Y-10586949D01*
X8791057Y-10605996D01*
X8924390Y-10405996D02*
X8943438Y-10405996D01*
X8962486Y-10415520D01*
X8972010Y-10425044D01*
X8981533Y-10444091D01*
X8991057Y-10482187D01*
X8991057Y-10529806D01*
X8981533Y-10567901D01*
X8972010Y-10586949D01*
X8962486Y-10596472D01*
X8943438Y-10605996D01*
X8924390Y-10605996D01*
X8905343Y-10596472D01*
X8895819Y-10586949D01*
X8886295Y-10567901D01*
X8876771Y-10529806D01*
X8876771Y-10482187D01*
X8886295Y-10444091D01*
X8895819Y-10425044D01*
X8905343Y-10415520D01*
X8924390Y-10405996D01*
X9067248Y-10425044D02*
X9076771Y-10415520D01*
X9095819Y-10405996D01*
X9143438Y-10405996D01*
X9162486Y-10415520D01*
X9172010Y-10425044D01*
X9181533Y-10444091D01*
X9181533Y-10463139D01*
X9172010Y-10491710D01*
X9057724Y-10605996D01*
X9181533Y-10605996D01*
X9276771Y-10605996D02*
X9314867Y-10605996D01*
X9333914Y-10596472D01*
X9343438Y-10586949D01*
X9362486Y-10558377D01*
X9372010Y-10520282D01*
X9372010Y-10444091D01*
X9362486Y-10425044D01*
X9352962Y-10415520D01*
X9333914Y-10405996D01*
X9295819Y-10405996D01*
X9276771Y-10415520D01*
X9267248Y-10425044D01*
X9257724Y-10444091D01*
X9257724Y-10491710D01*
X9267248Y-10510758D01*
X9276771Y-10520282D01*
X9295819Y-10529806D01*
X9333914Y-10529806D01*
X9352962Y-10520282D01*
X9362486Y-10510758D01*
X9372010Y-10491710D01*
X9552962Y-10405996D02*
X9457724Y-10405996D01*
X9448200Y-10501234D01*
X9457724Y-10491710D01*
X9476771Y-10482187D01*
X9524390Y-10482187D01*
X9543438Y-10491710D01*
X9552962Y-10501234D01*
X9562486Y-10520282D01*
X9562486Y-10567901D01*
X9552962Y-10586949D01*
X9543438Y-10596472D01*
X9524390Y-10605996D01*
X9476771Y-10605996D01*
X9457724Y-10596472D01*
X9448200Y-10586949D01*
X9638676Y-10405996D02*
X9638676Y-10444091D01*
X9714867Y-10405996D02*
X9714867Y-10444091D01*
X10010105Y-10682187D02*
X10000581Y-10672663D01*
X9981533Y-10644091D01*
X9972010Y-10625044D01*
X9962486Y-10596472D01*
X9952962Y-10548853D01*
X9952962Y-10510758D01*
X9962486Y-10463139D01*
X9972010Y-10434568D01*
X9981533Y-10415520D01*
X10000581Y-10386949D01*
X10010105Y-10377425D01*
X10172010Y-10472663D02*
X10172010Y-10605996D01*
X10124390Y-10396472D02*
X10076771Y-10539330D01*
X10200581Y-10539330D01*
X10429152Y-10605996D02*
X10429152Y-10405996D01*
X10514867Y-10605996D02*
X10514867Y-10501234D01*
X10505343Y-10482187D01*
X10486295Y-10472663D01*
X10457724Y-10472663D01*
X10438676Y-10482187D01*
X10429152Y-10491710D01*
X10638676Y-10605996D02*
X10619629Y-10596472D01*
X10610105Y-10586949D01*
X10600581Y-10567901D01*
X10600581Y-10510758D01*
X10610105Y-10491710D01*
X10619629Y-10482187D01*
X10638676Y-10472663D01*
X10667248Y-10472663D01*
X10686295Y-10482187D01*
X10695819Y-10491710D01*
X10705343Y-10510758D01*
X10705343Y-10567901D01*
X10695819Y-10586949D01*
X10686295Y-10596472D01*
X10667248Y-10605996D01*
X10638676Y-10605996D01*
X10819629Y-10605996D02*
X10800581Y-10596472D01*
X10791057Y-10577425D01*
X10791057Y-10405996D01*
X10972010Y-10596472D02*
X10952962Y-10605996D01*
X10914867Y-10605996D01*
X10895819Y-10596472D01*
X10886295Y-10577425D01*
X10886295Y-10501234D01*
X10895819Y-10482187D01*
X10914867Y-10472663D01*
X10952962Y-10472663D01*
X10972010Y-10482187D01*
X10981533Y-10501234D01*
X10981533Y-10520282D01*
X10886295Y-10539330D01*
X11057724Y-10596472D02*
X11076771Y-10605996D01*
X11114867Y-10605996D01*
X11133914Y-10596472D01*
X11143438Y-10577425D01*
X11143438Y-10567901D01*
X11133914Y-10548853D01*
X11114867Y-10539330D01*
X11086295Y-10539330D01*
X11067248Y-10529806D01*
X11057724Y-10510758D01*
X11057724Y-10501234D01*
X11067248Y-10482187D01*
X11086295Y-10472663D01*
X11114867Y-10472663D01*
X11133914Y-10482187D01*
X11210105Y-10682187D02*
X11219628Y-10672663D01*
X11238676Y-10644091D01*
X11248200Y-10625044D01*
X11257724Y-10596472D01*
X11267248Y-10548853D01*
X11267248Y-10510758D01*
X11257724Y-10463139D01*
X11248200Y-10434568D01*
X11238676Y-10415520D01*
X11219628Y-10386949D01*
X11210105Y-10377425D01*
D18*
X6358200Y-10739520D02*
X6438200Y-10819520D01*
X6438200Y-10739520D02*
X6358200Y-10819520D01*
X6398200Y-10739520D02*
X6398200Y-10819520D01*
X6358200Y-10779520D02*
X6438200Y-10779520D01*
D11*
X6733914Y-10669996D02*
X6752962Y-10669996D01*
X6772009Y-10679520D01*
X6781533Y-10689044D01*
X6791057Y-10708091D01*
X6800581Y-10746187D01*
X6800581Y-10793806D01*
X6791057Y-10831901D01*
X6781533Y-10850949D01*
X6772009Y-10860472D01*
X6752962Y-10869996D01*
X6733914Y-10869996D01*
X6714867Y-10860472D01*
X6705343Y-10850949D01*
X6695819Y-10831901D01*
X6686295Y-10793806D01*
X6686295Y-10746187D01*
X6695819Y-10708091D01*
X6705343Y-10689044D01*
X6714867Y-10679520D01*
X6733914Y-10669996D01*
X6886295Y-10850949D02*
X6895819Y-10860472D01*
X6886295Y-10869996D01*
X6876771Y-10860472D01*
X6886295Y-10850949D01*
X6886295Y-10869996D01*
X7010105Y-10755710D02*
X6991057Y-10746187D01*
X6981533Y-10736663D01*
X6972009Y-10717615D01*
X6972009Y-10708091D01*
X6981533Y-10689044D01*
X6991057Y-10679520D01*
X7010105Y-10669996D01*
X7048200Y-10669996D01*
X7067248Y-10679520D01*
X7076771Y-10689044D01*
X7086295Y-10708091D01*
X7086295Y-10717615D01*
X7076771Y-10736663D01*
X7067248Y-10746187D01*
X7048200Y-10755710D01*
X7010105Y-10755710D01*
X6991057Y-10765234D01*
X6981533Y-10774758D01*
X6972009Y-10793806D01*
X6972009Y-10831901D01*
X6981533Y-10850949D01*
X6991057Y-10860472D01*
X7010105Y-10869996D01*
X7048200Y-10869996D01*
X7067248Y-10860472D01*
X7076771Y-10850949D01*
X7086295Y-10831901D01*
X7086295Y-10793806D01*
X7076771Y-10774758D01*
X7067248Y-10765234D01*
X7048200Y-10755710D01*
X7210105Y-10669996D02*
X7229152Y-10669996D01*
X7248200Y-10679520D01*
X7257724Y-10689044D01*
X7267248Y-10708091D01*
X7276771Y-10746187D01*
X7276771Y-10793806D01*
X7267248Y-10831901D01*
X7257724Y-10850949D01*
X7248200Y-10860472D01*
X7229152Y-10869996D01*
X7210105Y-10869996D01*
X7191057Y-10860472D01*
X7181533Y-10850949D01*
X7172009Y-10831901D01*
X7162486Y-10793806D01*
X7162486Y-10746187D01*
X7172009Y-10708091D01*
X7181533Y-10689044D01*
X7191057Y-10679520D01*
X7210105Y-10669996D01*
X7400581Y-10669996D02*
X7419628Y-10669996D01*
X7438676Y-10679520D01*
X7448200Y-10689044D01*
X7457724Y-10708091D01*
X7467248Y-10746187D01*
X7467248Y-10793806D01*
X7457724Y-10831901D01*
X7448200Y-10850949D01*
X7438676Y-10860472D01*
X7419628Y-10869996D01*
X7400581Y-10869996D01*
X7381533Y-10860472D01*
X7372009Y-10850949D01*
X7362486Y-10831901D01*
X7352962Y-10793806D01*
X7352962Y-10746187D01*
X7362486Y-10708091D01*
X7372009Y-10689044D01*
X7381533Y-10679520D01*
X7400581Y-10669996D01*
X7552962Y-10869996D02*
X7552962Y-10736663D01*
X7552962Y-10755710D02*
X7562486Y-10746187D01*
X7581533Y-10736663D01*
X7610105Y-10736663D01*
X7629152Y-10746187D01*
X7638676Y-10765234D01*
X7638676Y-10869996D01*
X7638676Y-10765234D02*
X7648200Y-10746187D01*
X7667248Y-10736663D01*
X7695819Y-10736663D01*
X7714867Y-10746187D01*
X7724390Y-10765234D01*
X7724390Y-10869996D01*
X7819628Y-10869996D02*
X7819628Y-10736663D01*
X7819628Y-10755710D02*
X7829152Y-10746187D01*
X7848200Y-10736663D01*
X7876771Y-10736663D01*
X7895819Y-10746187D01*
X7905343Y-10765234D01*
X7905343Y-10869996D01*
X7905343Y-10765234D02*
X7914867Y-10746187D01*
X7933914Y-10736663D01*
X7962486Y-10736663D01*
X7981533Y-10746187D01*
X7991057Y-10765234D01*
X7991057Y-10869996D01*
X8381533Y-10660472D02*
X8210105Y-10917615D01*
X8638676Y-10669996D02*
X8657724Y-10669996D01*
X8676771Y-10679520D01*
X8686295Y-10689044D01*
X8695819Y-10708091D01*
X8705343Y-10746187D01*
X8705343Y-10793806D01*
X8695819Y-10831901D01*
X8686295Y-10850949D01*
X8676771Y-10860472D01*
X8657724Y-10869996D01*
X8638676Y-10869996D01*
X8619629Y-10860472D01*
X8610105Y-10850949D01*
X8600581Y-10831901D01*
X8591057Y-10793806D01*
X8591057Y-10746187D01*
X8600581Y-10708091D01*
X8610105Y-10689044D01*
X8619629Y-10679520D01*
X8638676Y-10669996D01*
X8791057Y-10850949D02*
X8800581Y-10860472D01*
X8791057Y-10869996D01*
X8781533Y-10860472D01*
X8791057Y-10850949D01*
X8791057Y-10869996D01*
X8924390Y-10669996D02*
X8943438Y-10669996D01*
X8962486Y-10679520D01*
X8972010Y-10689044D01*
X8981533Y-10708091D01*
X8991057Y-10746187D01*
X8991057Y-10793806D01*
X8981533Y-10831901D01*
X8972010Y-10850949D01*
X8962486Y-10860472D01*
X8943438Y-10869996D01*
X8924390Y-10869996D01*
X8905343Y-10860472D01*
X8895819Y-10850949D01*
X8886295Y-10831901D01*
X8876771Y-10793806D01*
X8876771Y-10746187D01*
X8886295Y-10708091D01*
X8895819Y-10689044D01*
X8905343Y-10679520D01*
X8924390Y-10669996D01*
X9057724Y-10669996D02*
X9181533Y-10669996D01*
X9114867Y-10746187D01*
X9143438Y-10746187D01*
X9162486Y-10755710D01*
X9172010Y-10765234D01*
X9181533Y-10784282D01*
X9181533Y-10831901D01*
X9172010Y-10850949D01*
X9162486Y-10860472D01*
X9143438Y-10869996D01*
X9086295Y-10869996D01*
X9067248Y-10860472D01*
X9057724Y-10850949D01*
X9372010Y-10869996D02*
X9257724Y-10869996D01*
X9314867Y-10869996D02*
X9314867Y-10669996D01*
X9295819Y-10698568D01*
X9276771Y-10717615D01*
X9257724Y-10727139D01*
X9552962Y-10669996D02*
X9457724Y-10669996D01*
X9448200Y-10765234D01*
X9457724Y-10755710D01*
X9476771Y-10746187D01*
X9524390Y-10746187D01*
X9543438Y-10755710D01*
X9552962Y-10765234D01*
X9562486Y-10784282D01*
X9562486Y-10831901D01*
X9552962Y-10850949D01*
X9543438Y-10860472D01*
X9524390Y-10869996D01*
X9476771Y-10869996D01*
X9457724Y-10860472D01*
X9448200Y-10850949D01*
X9638676Y-10669996D02*
X9638676Y-10708091D01*
X9714867Y-10669996D02*
X9714867Y-10708091D01*
X10010105Y-10946187D02*
X10000581Y-10936663D01*
X9981533Y-10908091D01*
X9972010Y-10889044D01*
X9962486Y-10860472D01*
X9952962Y-10812853D01*
X9952962Y-10774758D01*
X9962486Y-10727139D01*
X9972010Y-10698568D01*
X9981533Y-10679520D01*
X10000581Y-10650949D01*
X10010105Y-10641425D01*
X10172010Y-10669996D02*
X10133914Y-10669996D01*
X10114867Y-10679520D01*
X10105343Y-10689044D01*
X10086295Y-10717615D01*
X10076771Y-10755710D01*
X10076771Y-10831901D01*
X10086295Y-10850949D01*
X10095819Y-10860472D01*
X10114867Y-10869996D01*
X10152962Y-10869996D01*
X10172010Y-10860472D01*
X10181533Y-10850949D01*
X10191057Y-10831901D01*
X10191057Y-10784282D01*
X10181533Y-10765234D01*
X10172010Y-10755710D01*
X10152962Y-10746187D01*
X10114867Y-10746187D01*
X10095819Y-10755710D01*
X10086295Y-10765234D01*
X10076771Y-10784282D01*
X10429152Y-10869996D02*
X10429152Y-10669996D01*
X10514867Y-10869996D02*
X10514867Y-10765234D01*
X10505343Y-10746187D01*
X10486295Y-10736663D01*
X10457724Y-10736663D01*
X10438676Y-10746187D01*
X10429152Y-10755710D01*
X10638676Y-10869996D02*
X10619629Y-10860472D01*
X10610105Y-10850949D01*
X10600581Y-10831901D01*
X10600581Y-10774758D01*
X10610105Y-10755710D01*
X10619629Y-10746187D01*
X10638676Y-10736663D01*
X10667248Y-10736663D01*
X10686295Y-10746187D01*
X10695819Y-10755710D01*
X10705343Y-10774758D01*
X10705343Y-10831901D01*
X10695819Y-10850949D01*
X10686295Y-10860472D01*
X10667248Y-10869996D01*
X10638676Y-10869996D01*
X10819629Y-10869996D02*
X10800581Y-10860472D01*
X10791057Y-10841425D01*
X10791057Y-10669996D01*
X10972010Y-10860472D02*
X10952962Y-10869996D01*
X10914867Y-10869996D01*
X10895819Y-10860472D01*
X10886295Y-10841425D01*
X10886295Y-10765234D01*
X10895819Y-10746187D01*
X10914867Y-10736663D01*
X10952962Y-10736663D01*
X10972010Y-10746187D01*
X10981533Y-10765234D01*
X10981533Y-10784282D01*
X10886295Y-10803330D01*
X11057724Y-10860472D02*
X11076771Y-10869996D01*
X11114867Y-10869996D01*
X11133914Y-10860472D01*
X11143438Y-10841425D01*
X11143438Y-10831901D01*
X11133914Y-10812853D01*
X11114867Y-10803330D01*
X11086295Y-10803330D01*
X11067248Y-10793806D01*
X11057724Y-10774758D01*
X11057724Y-10765234D01*
X11067248Y-10746187D01*
X11086295Y-10736663D01*
X11114867Y-10736663D01*
X11133914Y-10746187D01*
X11210105Y-10946187D02*
X11219628Y-10936663D01*
X11238676Y-10908091D01*
X11248200Y-10889044D01*
X11257724Y-10860472D01*
X11267248Y-10812853D01*
X11267248Y-10774758D01*
X11257724Y-10727139D01*
X11248200Y-10698568D01*
X11238676Y-10679520D01*
X11219628Y-10650949D01*
X11210105Y-10641425D01*
D19*
X6348200Y-10998520D02*
X6438200Y-11088520D01*
X6438200Y-10998520D02*
X6348200Y-11088520D01*
X6425020Y-11075340D02*
X6425020Y-11011700D01*
X6361380Y-11011700D01*
X6361380Y-11075340D01*
X6425020Y-11075340D01*
D11*
X6733914Y-10933996D02*
X6752962Y-10933996D01*
X6772009Y-10943520D01*
X6781533Y-10953044D01*
X6791057Y-10972091D01*
X6800581Y-11010187D01*
X6800581Y-11057806D01*
X6791057Y-11095901D01*
X6781533Y-11114949D01*
X6772009Y-11124472D01*
X6752962Y-11133996D01*
X6733914Y-11133996D01*
X6714867Y-11124472D01*
X6705343Y-11114949D01*
X6695819Y-11095901D01*
X6686295Y-11057806D01*
X6686295Y-11010187D01*
X6695819Y-10972091D01*
X6705343Y-10953044D01*
X6714867Y-10943520D01*
X6733914Y-10933996D01*
X6886295Y-11114949D02*
X6895819Y-11124472D01*
X6886295Y-11133996D01*
X6876771Y-11124472D01*
X6886295Y-11114949D01*
X6886295Y-11133996D01*
X6991057Y-11133996D02*
X7029152Y-11133996D01*
X7048200Y-11124472D01*
X7057724Y-11114949D01*
X7076771Y-11086377D01*
X7086295Y-11048282D01*
X7086295Y-10972091D01*
X7076771Y-10953044D01*
X7067248Y-10943520D01*
X7048200Y-10933996D01*
X7010105Y-10933996D01*
X6991057Y-10943520D01*
X6981533Y-10953044D01*
X6972009Y-10972091D01*
X6972009Y-11019710D01*
X6981533Y-11038758D01*
X6991057Y-11048282D01*
X7010105Y-11057806D01*
X7048200Y-11057806D01*
X7067248Y-11048282D01*
X7076771Y-11038758D01*
X7086295Y-11019710D01*
X7210105Y-10933996D02*
X7229152Y-10933996D01*
X7248200Y-10943520D01*
X7257724Y-10953044D01*
X7267248Y-10972091D01*
X7276771Y-11010187D01*
X7276771Y-11057806D01*
X7267248Y-11095901D01*
X7257724Y-11114949D01*
X7248200Y-11124472D01*
X7229152Y-11133996D01*
X7210105Y-11133996D01*
X7191057Y-11124472D01*
X7181533Y-11114949D01*
X7172009Y-11095901D01*
X7162486Y-11057806D01*
X7162486Y-11010187D01*
X7172009Y-10972091D01*
X7181533Y-10953044D01*
X7191057Y-10943520D01*
X7210105Y-10933996D01*
X7400581Y-10933996D02*
X7419628Y-10933996D01*
X7438676Y-10943520D01*
X7448200Y-10953044D01*
X7457724Y-10972091D01*
X7467248Y-11010187D01*
X7467248Y-11057806D01*
X7457724Y-11095901D01*
X7448200Y-11114949D01*
X7438676Y-11124472D01*
X7419628Y-11133996D01*
X7400581Y-11133996D01*
X7381533Y-11124472D01*
X7372009Y-11114949D01*
X7362486Y-11095901D01*
X7352962Y-11057806D01*
X7352962Y-11010187D01*
X7362486Y-10972091D01*
X7372009Y-10953044D01*
X7381533Y-10943520D01*
X7400581Y-10933996D01*
X7552962Y-11133996D02*
X7552962Y-11000663D01*
X7552962Y-11019710D02*
X7562486Y-11010187D01*
X7581533Y-11000663D01*
X7610105Y-11000663D01*
X7629152Y-11010187D01*
X7638676Y-11029234D01*
X7638676Y-11133996D01*
X7638676Y-11029234D02*
X7648200Y-11010187D01*
X7667248Y-11000663D01*
X7695819Y-11000663D01*
X7714867Y-11010187D01*
X7724390Y-11029234D01*
X7724390Y-11133996D01*
X7819628Y-11133996D02*
X7819628Y-11000663D01*
X7819628Y-11019710D02*
X7829152Y-11010187D01*
X7848200Y-11000663D01*
X7876771Y-11000663D01*
X7895819Y-11010187D01*
X7905343Y-11029234D01*
X7905343Y-11133996D01*
X7905343Y-11029234D02*
X7914867Y-11010187D01*
X7933914Y-11000663D01*
X7962486Y-11000663D01*
X7981533Y-11010187D01*
X7991057Y-11029234D01*
X7991057Y-11133996D01*
X8381533Y-10924472D02*
X8210105Y-11181615D01*
X8638676Y-10933996D02*
X8657724Y-10933996D01*
X8676771Y-10943520D01*
X8686295Y-10953044D01*
X8695819Y-10972091D01*
X8705343Y-11010187D01*
X8705343Y-11057806D01*
X8695819Y-11095901D01*
X8686295Y-11114949D01*
X8676771Y-11124472D01*
X8657724Y-11133996D01*
X8638676Y-11133996D01*
X8619629Y-11124472D01*
X8610105Y-11114949D01*
X8600581Y-11095901D01*
X8591057Y-11057806D01*
X8591057Y-11010187D01*
X8600581Y-10972091D01*
X8610105Y-10953044D01*
X8619629Y-10943520D01*
X8638676Y-10933996D01*
X8791057Y-11114949D02*
X8800581Y-11124472D01*
X8791057Y-11133996D01*
X8781533Y-11124472D01*
X8791057Y-11114949D01*
X8791057Y-11133996D01*
X8924390Y-10933996D02*
X8943438Y-10933996D01*
X8962486Y-10943520D01*
X8972010Y-10953044D01*
X8981533Y-10972091D01*
X8991057Y-11010187D01*
X8991057Y-11057806D01*
X8981533Y-11095901D01*
X8972010Y-11114949D01*
X8962486Y-11124472D01*
X8943438Y-11133996D01*
X8924390Y-11133996D01*
X8905343Y-11124472D01*
X8895819Y-11114949D01*
X8886295Y-11095901D01*
X8876771Y-11057806D01*
X8876771Y-11010187D01*
X8886295Y-10972091D01*
X8895819Y-10953044D01*
X8905343Y-10943520D01*
X8924390Y-10933996D01*
X9057724Y-10933996D02*
X9181533Y-10933996D01*
X9114867Y-11010187D01*
X9143438Y-11010187D01*
X9162486Y-11019710D01*
X9172010Y-11029234D01*
X9181533Y-11048282D01*
X9181533Y-11095901D01*
X9172010Y-11114949D01*
X9162486Y-11124472D01*
X9143438Y-11133996D01*
X9086295Y-11133996D01*
X9067248Y-11124472D01*
X9057724Y-11114949D01*
X9362486Y-10933996D02*
X9267248Y-10933996D01*
X9257724Y-11029234D01*
X9267248Y-11019710D01*
X9286295Y-11010187D01*
X9333914Y-11010187D01*
X9352962Y-11019710D01*
X9362486Y-11029234D01*
X9372010Y-11048282D01*
X9372010Y-11095901D01*
X9362486Y-11114949D01*
X9352962Y-11124472D01*
X9333914Y-11133996D01*
X9286295Y-11133996D01*
X9267248Y-11124472D01*
X9257724Y-11114949D01*
X9543438Y-11000663D02*
X9543438Y-11133996D01*
X9495819Y-10924472D02*
X9448200Y-11067330D01*
X9572010Y-11067330D01*
X9638676Y-10933996D02*
X9638676Y-10972091D01*
X9714867Y-10933996D02*
X9714867Y-10972091D01*
X10010105Y-11210187D02*
X10000581Y-11200663D01*
X9981533Y-11172091D01*
X9972010Y-11153044D01*
X9962486Y-11124472D01*
X9952962Y-11076853D01*
X9952962Y-11038758D01*
X9962486Y-10991139D01*
X9972010Y-10962568D01*
X9981533Y-10943520D01*
X10000581Y-10914949D01*
X10010105Y-10905425D01*
X10172010Y-11000663D02*
X10172010Y-11133996D01*
X10124390Y-10924472D02*
X10076771Y-11067330D01*
X10200581Y-11067330D01*
X10429152Y-11133996D02*
X10429152Y-10933996D01*
X10514867Y-11133996D02*
X10514867Y-11029234D01*
X10505343Y-11010187D01*
X10486295Y-11000663D01*
X10457724Y-11000663D01*
X10438676Y-11010187D01*
X10429152Y-11019710D01*
X10638676Y-11133996D02*
X10619629Y-11124472D01*
X10610105Y-11114949D01*
X10600581Y-11095901D01*
X10600581Y-11038758D01*
X10610105Y-11019710D01*
X10619629Y-11010187D01*
X10638676Y-11000663D01*
X10667248Y-11000663D01*
X10686295Y-11010187D01*
X10695819Y-11019710D01*
X10705343Y-11038758D01*
X10705343Y-11095901D01*
X10695819Y-11114949D01*
X10686295Y-11124472D01*
X10667248Y-11133996D01*
X10638676Y-11133996D01*
X10819629Y-11133996D02*
X10800581Y-11124472D01*
X10791057Y-11105425D01*
X10791057Y-10933996D01*
X10972010Y-11124472D02*
X10952962Y-11133996D01*
X10914867Y-11133996D01*
X10895819Y-11124472D01*
X10886295Y-11105425D01*
X10886295Y-11029234D01*
X10895819Y-11010187D01*
X10914867Y-11000663D01*
X10952962Y-11000663D01*
X10972010Y-11010187D01*
X10981533Y-11029234D01*
X10981533Y-11048282D01*
X10886295Y-11067330D01*
X11057724Y-11124472D02*
X11076771Y-11133996D01*
X11114867Y-11133996D01*
X11133914Y-11124472D01*
X11143438Y-11105425D01*
X11143438Y-11095901D01*
X11133914Y-11076853D01*
X11114867Y-11067330D01*
X11086295Y-11067330D01*
X11067248Y-11057806D01*
X11057724Y-11038758D01*
X11057724Y-11029234D01*
X11067248Y-11010187D01*
X11086295Y-11000663D01*
X11114867Y-11000663D01*
X11133914Y-11010187D01*
X11210105Y-11210187D02*
X11219628Y-11200663D01*
X11238676Y-11172091D01*
X11248200Y-11153044D01*
X11257724Y-11124472D01*
X11267248Y-11076853D01*
X11267248Y-11038758D01*
X11257724Y-10991139D01*
X11248200Y-10962568D01*
X11238676Y-10943520D01*
X11219628Y-10914949D01*
X11210105Y-10905425D01*
D20*
X6339200Y-11258020D02*
X6438200Y-11357020D01*
X6438200Y-11258020D02*
X6339200Y-11357020D01*
X6388700Y-11357020D02*
X6438200Y-11307520D01*
X6388700Y-11258020D01*
X6339200Y-11307520D01*
X6388700Y-11357020D01*
D11*
X6733914Y-11197996D02*
X6752962Y-11197996D01*
X6772009Y-11207520D01*
X6781533Y-11217044D01*
X6791057Y-11236091D01*
X6800581Y-11274187D01*
X6800581Y-11321806D01*
X6791057Y-11359901D01*
X6781533Y-11378948D01*
X6772009Y-11388472D01*
X6752962Y-11397996D01*
X6733914Y-11397996D01*
X6714867Y-11388472D01*
X6705343Y-11378948D01*
X6695819Y-11359901D01*
X6686295Y-11321806D01*
X6686295Y-11274187D01*
X6695819Y-11236091D01*
X6705343Y-11217044D01*
X6714867Y-11207520D01*
X6733914Y-11197996D01*
X6886295Y-11378948D02*
X6895819Y-11388472D01*
X6886295Y-11397996D01*
X6876771Y-11388472D01*
X6886295Y-11378948D01*
X6886295Y-11397996D01*
X6991057Y-11397996D02*
X7029152Y-11397996D01*
X7048200Y-11388472D01*
X7057724Y-11378948D01*
X7076771Y-11350377D01*
X7086295Y-11312282D01*
X7086295Y-11236091D01*
X7076771Y-11217044D01*
X7067248Y-11207520D01*
X7048200Y-11197996D01*
X7010105Y-11197996D01*
X6991057Y-11207520D01*
X6981533Y-11217044D01*
X6972009Y-11236091D01*
X6972009Y-11283710D01*
X6981533Y-11302758D01*
X6991057Y-11312282D01*
X7010105Y-11321806D01*
X7048200Y-11321806D01*
X7067248Y-11312282D01*
X7076771Y-11302758D01*
X7086295Y-11283710D01*
X7181533Y-11397996D02*
X7219628Y-11397996D01*
X7238676Y-11388472D01*
X7248200Y-11378948D01*
X7267248Y-11350377D01*
X7276771Y-11312282D01*
X7276771Y-11236091D01*
X7267248Y-11217044D01*
X7257724Y-11207520D01*
X7238676Y-11197996D01*
X7200581Y-11197996D01*
X7181533Y-11207520D01*
X7172009Y-11217044D01*
X7162486Y-11236091D01*
X7162486Y-11283710D01*
X7172009Y-11302758D01*
X7181533Y-11312282D01*
X7200581Y-11321806D01*
X7238676Y-11321806D01*
X7257724Y-11312282D01*
X7267248Y-11302758D01*
X7276771Y-11283710D01*
X7400581Y-11197996D02*
X7419628Y-11197996D01*
X7438676Y-11207520D01*
X7448200Y-11217044D01*
X7457724Y-11236091D01*
X7467248Y-11274187D01*
X7467248Y-11321806D01*
X7457724Y-11359901D01*
X7448200Y-11378948D01*
X7438676Y-11388472D01*
X7419628Y-11397996D01*
X7400581Y-11397996D01*
X7381533Y-11388472D01*
X7372009Y-11378948D01*
X7362486Y-11359901D01*
X7352962Y-11321806D01*
X7352962Y-11274187D01*
X7362486Y-11236091D01*
X7372009Y-11217044D01*
X7381533Y-11207520D01*
X7400581Y-11197996D01*
X7552962Y-11397996D02*
X7552962Y-11264663D01*
X7552962Y-11283710D02*
X7562486Y-11274187D01*
X7581533Y-11264663D01*
X7610105Y-11264663D01*
X7629152Y-11274187D01*
X7638676Y-11293234D01*
X7638676Y-11397996D01*
X7638676Y-11293234D02*
X7648200Y-11274187D01*
X7667248Y-11264663D01*
X7695819Y-11264663D01*
X7714867Y-11274187D01*
X7724390Y-11293234D01*
X7724390Y-11397996D01*
X7819628Y-11397996D02*
X7819628Y-11264663D01*
X7819628Y-11283710D02*
X7829152Y-11274187D01*
X7848200Y-11264663D01*
X7876771Y-11264663D01*
X7895819Y-11274187D01*
X7905343Y-11293234D01*
X7905343Y-11397996D01*
X7905343Y-11293234D02*
X7914867Y-11274187D01*
X7933914Y-11264663D01*
X7962486Y-11264663D01*
X7981533Y-11274187D01*
X7991057Y-11293234D01*
X7991057Y-11397996D01*
X8381533Y-11188472D02*
X8210105Y-11445615D01*
X8638676Y-11197996D02*
X8657724Y-11197996D01*
X8676771Y-11207520D01*
X8686295Y-11217044D01*
X8695819Y-11236091D01*
X8705343Y-11274187D01*
X8705343Y-11321806D01*
X8695819Y-11359901D01*
X8686295Y-11378948D01*
X8676771Y-11388472D01*
X8657724Y-11397996D01*
X8638676Y-11397996D01*
X8619629Y-11388472D01*
X8610105Y-11378948D01*
X8600581Y-11359901D01*
X8591057Y-11321806D01*
X8591057Y-11274187D01*
X8600581Y-11236091D01*
X8610105Y-11217044D01*
X8619629Y-11207520D01*
X8638676Y-11197996D01*
X8791057Y-11378948D02*
X8800581Y-11388472D01*
X8791057Y-11397996D01*
X8781533Y-11388472D01*
X8791057Y-11378948D01*
X8791057Y-11397996D01*
X8924390Y-11197996D02*
X8943438Y-11197996D01*
X8962486Y-11207520D01*
X8972010Y-11217044D01*
X8981533Y-11236091D01*
X8991057Y-11274187D01*
X8991057Y-11321806D01*
X8981533Y-11359901D01*
X8972010Y-11378948D01*
X8962486Y-11388472D01*
X8943438Y-11397996D01*
X8924390Y-11397996D01*
X8905343Y-11388472D01*
X8895819Y-11378948D01*
X8886295Y-11359901D01*
X8876771Y-11321806D01*
X8876771Y-11274187D01*
X8886295Y-11236091D01*
X8895819Y-11217044D01*
X8905343Y-11207520D01*
X8924390Y-11197996D01*
X9057724Y-11197996D02*
X9181533Y-11197996D01*
X9114867Y-11274187D01*
X9143438Y-11274187D01*
X9162486Y-11283710D01*
X9172010Y-11293234D01*
X9181533Y-11312282D01*
X9181533Y-11359901D01*
X9172010Y-11378948D01*
X9162486Y-11388472D01*
X9143438Y-11397996D01*
X9086295Y-11397996D01*
X9067248Y-11388472D01*
X9057724Y-11378948D01*
X9276771Y-11397996D02*
X9314867Y-11397996D01*
X9333914Y-11388472D01*
X9343438Y-11378948D01*
X9362486Y-11350377D01*
X9372010Y-11312282D01*
X9372010Y-11236091D01*
X9362486Y-11217044D01*
X9352962Y-11207520D01*
X9333914Y-11197996D01*
X9295819Y-11197996D01*
X9276771Y-11207520D01*
X9267248Y-11217044D01*
X9257724Y-11236091D01*
X9257724Y-11283710D01*
X9267248Y-11302758D01*
X9276771Y-11312282D01*
X9295819Y-11321806D01*
X9333914Y-11321806D01*
X9352962Y-11312282D01*
X9362486Y-11302758D01*
X9372010Y-11283710D01*
X9495819Y-11197996D02*
X9514867Y-11197996D01*
X9533914Y-11207520D01*
X9543438Y-11217044D01*
X9552962Y-11236091D01*
X9562486Y-11274187D01*
X9562486Y-11321806D01*
X9552962Y-11359901D01*
X9543438Y-11378948D01*
X9533914Y-11388472D01*
X9514867Y-11397996D01*
X9495819Y-11397996D01*
X9476771Y-11388472D01*
X9467248Y-11378948D01*
X9457724Y-11359901D01*
X9448200Y-11321806D01*
X9448200Y-11274187D01*
X9457724Y-11236091D01*
X9467248Y-11217044D01*
X9476771Y-11207520D01*
X9495819Y-11197996D01*
X9638676Y-11197996D02*
X9638676Y-11236091D01*
X9714867Y-11197996D02*
X9714867Y-11236091D01*
X10010105Y-11474187D02*
X10000581Y-11464663D01*
X9981533Y-11436091D01*
X9972010Y-11417044D01*
X9962486Y-11388472D01*
X9952962Y-11340853D01*
X9952962Y-11302758D01*
X9962486Y-11255139D01*
X9972010Y-11226568D01*
X9981533Y-11207520D01*
X10000581Y-11178949D01*
X10010105Y-11169425D01*
X10076771Y-11217044D02*
X10086295Y-11207520D01*
X10105343Y-11197996D01*
X10152962Y-11197996D01*
X10172010Y-11207520D01*
X10181533Y-11217044D01*
X10191057Y-11236091D01*
X10191057Y-11255139D01*
X10181533Y-11283710D01*
X10067248Y-11397996D01*
X10191057Y-11397996D01*
X10429152Y-11397996D02*
X10429152Y-11197996D01*
X10514867Y-11397996D02*
X10514867Y-11293234D01*
X10505343Y-11274187D01*
X10486295Y-11264663D01*
X10457724Y-11264663D01*
X10438676Y-11274187D01*
X10429152Y-11283710D01*
X10638676Y-11397996D02*
X10619629Y-11388472D01*
X10610105Y-11378948D01*
X10600581Y-11359901D01*
X10600581Y-11302758D01*
X10610105Y-11283710D01*
X10619629Y-11274187D01*
X10638676Y-11264663D01*
X10667248Y-11264663D01*
X10686295Y-11274187D01*
X10695819Y-11283710D01*
X10705343Y-11302758D01*
X10705343Y-11359901D01*
X10695819Y-11378948D01*
X10686295Y-11388472D01*
X10667248Y-11397996D01*
X10638676Y-11397996D01*
X10819629Y-11397996D02*
X10800581Y-11388472D01*
X10791057Y-11369425D01*
X10791057Y-11197996D01*
X10972010Y-11388472D02*
X10952962Y-11397996D01*
X10914867Y-11397996D01*
X10895819Y-11388472D01*
X10886295Y-11369425D01*
X10886295Y-11293234D01*
X10895819Y-11274187D01*
X10914867Y-11264663D01*
X10952962Y-11264663D01*
X10972010Y-11274187D01*
X10981533Y-11293234D01*
X10981533Y-11312282D01*
X10886295Y-11331329D01*
X11057724Y-11388472D02*
X11076771Y-11397996D01*
X11114867Y-11397996D01*
X11133914Y-11388472D01*
X11143438Y-11369425D01*
X11143438Y-11359901D01*
X11133914Y-11340853D01*
X11114867Y-11331329D01*
X11086295Y-11331329D01*
X11067248Y-11321806D01*
X11057724Y-11302758D01*
X11057724Y-11293234D01*
X11067248Y-11274187D01*
X11086295Y-11264663D01*
X11114867Y-11264663D01*
X11133914Y-11274187D01*
X11210105Y-11474187D02*
X11219628Y-11464663D01*
X11238676Y-11436091D01*
X11248200Y-11417044D01*
X11257724Y-11388472D01*
X11267248Y-11340853D01*
X11267248Y-11302758D01*
X11257724Y-11255139D01*
X11248200Y-11226568D01*
X11238676Y-11207520D01*
X11219628Y-11178949D01*
X11210105Y-11169425D01*
D21*
X6388200Y-11521520D02*
X6388200Y-11621520D01*
X6338200Y-11571520D02*
X6438200Y-11571520D01*
X6438200Y-11571520D02*
G75*
G03*
X6438200Y-11571520I-50000J0D01*
G01*
D11*
X6800581Y-11661996D02*
X6686295Y-11661996D01*
X6743438Y-11661996D02*
X6743438Y-11461996D01*
X6724390Y-11490568D01*
X6705343Y-11509615D01*
X6686295Y-11519139D01*
X6886295Y-11642948D02*
X6895819Y-11652472D01*
X6886295Y-11661996D01*
X6876771Y-11652472D01*
X6886295Y-11642948D01*
X6886295Y-11661996D01*
X7019628Y-11461996D02*
X7038676Y-11461996D01*
X7057724Y-11471520D01*
X7067248Y-11481044D01*
X7076771Y-11500091D01*
X7086295Y-11538187D01*
X7086295Y-11585806D01*
X7076771Y-11623901D01*
X7067248Y-11642948D01*
X7057724Y-11652472D01*
X7038676Y-11661996D01*
X7019628Y-11661996D01*
X7000581Y-11652472D01*
X6991057Y-11642948D01*
X6981533Y-11623901D01*
X6972009Y-11585806D01*
X6972009Y-11538187D01*
X6981533Y-11500091D01*
X6991057Y-11481044D01*
X7000581Y-11471520D01*
X7019628Y-11461996D01*
X7210105Y-11461996D02*
X7229152Y-11461996D01*
X7248200Y-11471520D01*
X7257724Y-11481044D01*
X7267248Y-11500091D01*
X7276771Y-11538187D01*
X7276771Y-11585806D01*
X7267248Y-11623901D01*
X7257724Y-11642948D01*
X7248200Y-11652472D01*
X7229152Y-11661996D01*
X7210105Y-11661996D01*
X7191057Y-11652472D01*
X7181533Y-11642948D01*
X7172009Y-11623901D01*
X7162486Y-11585806D01*
X7162486Y-11538187D01*
X7172009Y-11500091D01*
X7181533Y-11481044D01*
X7191057Y-11471520D01*
X7210105Y-11461996D01*
X7400581Y-11461996D02*
X7419628Y-11461996D01*
X7438676Y-11471520D01*
X7448200Y-11481044D01*
X7457724Y-11500091D01*
X7467248Y-11538187D01*
X7467248Y-11585806D01*
X7457724Y-11623901D01*
X7448200Y-11642948D01*
X7438676Y-11652472D01*
X7419628Y-11661996D01*
X7400581Y-11661996D01*
X7381533Y-11652472D01*
X7372009Y-11642948D01*
X7362486Y-11623901D01*
X7352962Y-11585806D01*
X7352962Y-11538187D01*
X7362486Y-11500091D01*
X7372009Y-11481044D01*
X7381533Y-11471520D01*
X7400581Y-11461996D01*
X7552962Y-11661996D02*
X7552962Y-11528663D01*
X7552962Y-11547710D02*
X7562486Y-11538187D01*
X7581533Y-11528663D01*
X7610105Y-11528663D01*
X7629152Y-11538187D01*
X7638676Y-11557234D01*
X7638676Y-11661996D01*
X7638676Y-11557234D02*
X7648200Y-11538187D01*
X7667248Y-11528663D01*
X7695819Y-11528663D01*
X7714867Y-11538187D01*
X7724390Y-11557234D01*
X7724390Y-11661996D01*
X7819628Y-11661996D02*
X7819628Y-11528663D01*
X7819628Y-11547710D02*
X7829152Y-11538187D01*
X7848200Y-11528663D01*
X7876771Y-11528663D01*
X7895819Y-11538187D01*
X7905343Y-11557234D01*
X7905343Y-11661996D01*
X7905343Y-11557234D02*
X7914867Y-11538187D01*
X7933914Y-11528663D01*
X7962486Y-11528663D01*
X7981533Y-11538187D01*
X7991057Y-11557234D01*
X7991057Y-11661996D01*
X8381533Y-11452472D02*
X8210105Y-11709615D01*
X8638676Y-11461996D02*
X8657724Y-11461996D01*
X8676771Y-11471520D01*
X8686295Y-11481044D01*
X8695819Y-11500091D01*
X8705343Y-11538187D01*
X8705343Y-11585806D01*
X8695819Y-11623901D01*
X8686295Y-11642948D01*
X8676771Y-11652472D01*
X8657724Y-11661996D01*
X8638676Y-11661996D01*
X8619629Y-11652472D01*
X8610105Y-11642948D01*
X8600581Y-11623901D01*
X8591057Y-11585806D01*
X8591057Y-11538187D01*
X8600581Y-11500091D01*
X8610105Y-11481044D01*
X8619629Y-11471520D01*
X8638676Y-11461996D01*
X8791057Y-11642948D02*
X8800581Y-11652472D01*
X8791057Y-11661996D01*
X8781533Y-11652472D01*
X8791057Y-11642948D01*
X8791057Y-11661996D01*
X8924390Y-11461996D02*
X8943438Y-11461996D01*
X8962486Y-11471520D01*
X8972010Y-11481044D01*
X8981533Y-11500091D01*
X8991057Y-11538187D01*
X8991057Y-11585806D01*
X8981533Y-11623901D01*
X8972010Y-11642948D01*
X8962486Y-11652472D01*
X8943438Y-11661996D01*
X8924390Y-11661996D01*
X8905343Y-11652472D01*
X8895819Y-11642948D01*
X8886295Y-11623901D01*
X8876771Y-11585806D01*
X8876771Y-11538187D01*
X8886295Y-11500091D01*
X8895819Y-11481044D01*
X8905343Y-11471520D01*
X8924390Y-11461996D01*
X9057724Y-11461996D02*
X9181533Y-11461996D01*
X9114867Y-11538187D01*
X9143438Y-11538187D01*
X9162486Y-11547710D01*
X9172010Y-11557234D01*
X9181533Y-11576282D01*
X9181533Y-11623901D01*
X9172010Y-11642948D01*
X9162486Y-11652472D01*
X9143438Y-11661996D01*
X9086295Y-11661996D01*
X9067248Y-11652472D01*
X9057724Y-11642948D01*
X9276771Y-11661996D02*
X9314867Y-11661996D01*
X9333914Y-11652472D01*
X9343438Y-11642948D01*
X9362486Y-11614377D01*
X9372010Y-11576282D01*
X9372010Y-11500091D01*
X9362486Y-11481044D01*
X9352962Y-11471520D01*
X9333914Y-11461996D01*
X9295819Y-11461996D01*
X9276771Y-11471520D01*
X9267248Y-11481044D01*
X9257724Y-11500091D01*
X9257724Y-11547710D01*
X9267248Y-11566758D01*
X9276771Y-11576282D01*
X9295819Y-11585806D01*
X9333914Y-11585806D01*
X9352962Y-11576282D01*
X9362486Y-11566758D01*
X9372010Y-11547710D01*
X9543438Y-11528663D02*
X9543438Y-11661996D01*
X9495819Y-11452472D02*
X9448200Y-11595329D01*
X9572010Y-11595329D01*
X9638676Y-11461996D02*
X9638676Y-11500091D01*
X9714867Y-11461996D02*
X9714867Y-11500091D01*
X10010105Y-11738187D02*
X10000581Y-11728663D01*
X9981533Y-11700091D01*
X9972010Y-11681044D01*
X9962486Y-11652472D01*
X9952962Y-11604853D01*
X9952962Y-11566758D01*
X9962486Y-11519139D01*
X9972010Y-11490568D01*
X9981533Y-11471520D01*
X10000581Y-11442948D01*
X10010105Y-11433425D01*
X10191057Y-11661996D02*
X10076771Y-11661996D01*
X10133914Y-11661996D02*
X10133914Y-11461996D01*
X10114867Y-11490568D01*
X10095819Y-11509615D01*
X10076771Y-11519139D01*
X10267248Y-11481044D02*
X10276771Y-11471520D01*
X10295819Y-11461996D01*
X10343438Y-11461996D01*
X10362486Y-11471520D01*
X10372010Y-11481044D01*
X10381533Y-11500091D01*
X10381533Y-11519139D01*
X10372010Y-11547710D01*
X10257724Y-11661996D01*
X10381533Y-11661996D01*
X10619629Y-11661996D02*
X10619629Y-11461996D01*
X10705343Y-11661996D02*
X10705343Y-11557234D01*
X10695819Y-11538187D01*
X10676771Y-11528663D01*
X10648200Y-11528663D01*
X10629152Y-11538187D01*
X10619629Y-11547710D01*
X10829152Y-11661996D02*
X10810105Y-11652472D01*
X10800581Y-11642948D01*
X10791057Y-11623901D01*
X10791057Y-11566758D01*
X10800581Y-11547710D01*
X10810105Y-11538187D01*
X10829152Y-11528663D01*
X10857724Y-11528663D01*
X10876771Y-11538187D01*
X10886295Y-11547710D01*
X10895819Y-11566758D01*
X10895819Y-11623901D01*
X10886295Y-11642948D01*
X10876771Y-11652472D01*
X10857724Y-11661996D01*
X10829152Y-11661996D01*
X11010105Y-11661996D02*
X10991057Y-11652472D01*
X10981533Y-11633425D01*
X10981533Y-11461996D01*
X11162486Y-11652472D02*
X11143438Y-11661996D01*
X11105343Y-11661996D01*
X11086295Y-11652472D01*
X11076771Y-11633425D01*
X11076771Y-11557234D01*
X11086295Y-11538187D01*
X11105343Y-11528663D01*
X11143438Y-11528663D01*
X11162486Y-11538187D01*
X11172010Y-11557234D01*
X11172010Y-11576282D01*
X11076771Y-11595329D01*
X11248200Y-11652472D02*
X11267248Y-11661996D01*
X11305343Y-11661996D01*
X11324390Y-11652472D01*
X11333914Y-11633425D01*
X11333914Y-11623901D01*
X11324390Y-11604853D01*
X11305343Y-11595329D01*
X11276771Y-11595329D01*
X11257724Y-11585806D01*
X11248200Y-11566758D01*
X11248200Y-11557234D01*
X11257724Y-11538187D01*
X11276771Y-11528663D01*
X11305343Y-11528663D01*
X11324390Y-11538187D01*
X11400581Y-11738187D02*
X11410105Y-11728663D01*
X11429152Y-11700091D01*
X11438676Y-11681044D01*
X11448200Y-11652472D01*
X11457724Y-11604853D01*
X11457724Y-11566758D01*
X11448200Y-11519139D01*
X11438676Y-11490568D01*
X11429152Y-11471520D01*
X11410105Y-11442948D01*
X11400581Y-11433425D01*
D22*
X6419162Y-11881482D02*
X6419162Y-11789558D01*
X6327238Y-11789558D01*
X6327238Y-11881482D01*
X6419162Y-11881482D01*
X6438200Y-11835520D02*
G75*
G03*
X6438200Y-11835520I-65000J0D01*
G01*
D11*
X6800581Y-11925996D02*
X6686295Y-11925996D01*
X6743438Y-11925996D02*
X6743438Y-11725996D01*
X6724390Y-11754568D01*
X6705343Y-11773615D01*
X6686295Y-11783139D01*
X6886295Y-11906948D02*
X6895819Y-11916472D01*
X6886295Y-11925996D01*
X6876771Y-11916472D01*
X6886295Y-11906948D01*
X6886295Y-11925996D01*
X6962486Y-11725996D02*
X7086295Y-11725996D01*
X7019628Y-11802187D01*
X7048200Y-11802187D01*
X7067248Y-11811710D01*
X7076771Y-11821234D01*
X7086295Y-11840282D01*
X7086295Y-11887901D01*
X7076771Y-11906948D01*
X7067248Y-11916472D01*
X7048200Y-11925996D01*
X6991057Y-11925996D01*
X6972009Y-11916472D01*
X6962486Y-11906948D01*
X7210105Y-11725996D02*
X7229152Y-11725996D01*
X7248200Y-11735520D01*
X7257724Y-11745044D01*
X7267248Y-11764091D01*
X7276771Y-11802187D01*
X7276771Y-11849806D01*
X7267248Y-11887901D01*
X7257724Y-11906948D01*
X7248200Y-11916472D01*
X7229152Y-11925996D01*
X7210105Y-11925996D01*
X7191057Y-11916472D01*
X7181533Y-11906948D01*
X7172009Y-11887901D01*
X7162486Y-11849806D01*
X7162486Y-11802187D01*
X7172009Y-11764091D01*
X7181533Y-11745044D01*
X7191057Y-11735520D01*
X7210105Y-11725996D01*
X7400581Y-11725996D02*
X7419628Y-11725996D01*
X7438676Y-11735520D01*
X7448200Y-11745044D01*
X7457724Y-11764091D01*
X7467248Y-11802187D01*
X7467248Y-11849806D01*
X7457724Y-11887901D01*
X7448200Y-11906948D01*
X7438676Y-11916472D01*
X7419628Y-11925996D01*
X7400581Y-11925996D01*
X7381533Y-11916472D01*
X7372009Y-11906948D01*
X7362486Y-11887901D01*
X7352962Y-11849806D01*
X7352962Y-11802187D01*
X7362486Y-11764091D01*
X7372009Y-11745044D01*
X7381533Y-11735520D01*
X7400581Y-11725996D01*
X7552962Y-11925996D02*
X7552962Y-11792663D01*
X7552962Y-11811710D02*
X7562486Y-11802187D01*
X7581533Y-11792663D01*
X7610105Y-11792663D01*
X7629152Y-11802187D01*
X7638676Y-11821234D01*
X7638676Y-11925996D01*
X7638676Y-11821234D02*
X7648200Y-11802187D01*
X7667248Y-11792663D01*
X7695819Y-11792663D01*
X7714867Y-11802187D01*
X7724390Y-11821234D01*
X7724390Y-11925996D01*
X7819628Y-11925996D02*
X7819628Y-11792663D01*
X7819628Y-11811710D02*
X7829152Y-11802187D01*
X7848200Y-11792663D01*
X7876771Y-11792663D01*
X7895819Y-11802187D01*
X7905343Y-11821234D01*
X7905343Y-11925996D01*
X7905343Y-11821234D02*
X7914867Y-11802187D01*
X7933914Y-11792663D01*
X7962486Y-11792663D01*
X7981533Y-11802187D01*
X7991057Y-11821234D01*
X7991057Y-11925996D01*
X8381533Y-11716472D02*
X8210105Y-11973615D01*
X8638676Y-11725996D02*
X8657724Y-11725996D01*
X8676771Y-11735520D01*
X8686295Y-11745044D01*
X8695819Y-11764091D01*
X8705343Y-11802187D01*
X8705343Y-11849806D01*
X8695819Y-11887901D01*
X8686295Y-11906948D01*
X8676771Y-11916472D01*
X8657724Y-11925996D01*
X8638676Y-11925996D01*
X8619629Y-11916472D01*
X8610105Y-11906948D01*
X8600581Y-11887901D01*
X8591057Y-11849806D01*
X8591057Y-11802187D01*
X8600581Y-11764091D01*
X8610105Y-11745044D01*
X8619629Y-11735520D01*
X8638676Y-11725996D01*
X8791057Y-11906948D02*
X8800581Y-11916472D01*
X8791057Y-11925996D01*
X8781533Y-11916472D01*
X8791057Y-11906948D01*
X8791057Y-11925996D01*
X8924390Y-11725996D02*
X8943438Y-11725996D01*
X8962486Y-11735520D01*
X8972010Y-11745044D01*
X8981533Y-11764091D01*
X8991057Y-11802187D01*
X8991057Y-11849806D01*
X8981533Y-11887901D01*
X8972010Y-11906948D01*
X8962486Y-11916472D01*
X8943438Y-11925996D01*
X8924390Y-11925996D01*
X8905343Y-11916472D01*
X8895819Y-11906948D01*
X8886295Y-11887901D01*
X8876771Y-11849806D01*
X8876771Y-11802187D01*
X8886295Y-11764091D01*
X8895819Y-11745044D01*
X8905343Y-11735520D01*
X8924390Y-11725996D01*
X9172010Y-11725996D02*
X9076771Y-11725996D01*
X9067248Y-11821234D01*
X9076771Y-11811710D01*
X9095819Y-11802187D01*
X9143438Y-11802187D01*
X9162486Y-11811710D01*
X9172010Y-11821234D01*
X9181533Y-11840282D01*
X9181533Y-11887901D01*
X9172010Y-11906948D01*
X9162486Y-11916472D01*
X9143438Y-11925996D01*
X9095819Y-11925996D01*
X9076771Y-11916472D01*
X9067248Y-11906948D01*
X9372010Y-11925996D02*
X9257724Y-11925996D01*
X9314867Y-11925996D02*
X9314867Y-11725996D01*
X9295819Y-11754568D01*
X9276771Y-11773615D01*
X9257724Y-11783139D01*
X9448200Y-11745044D02*
X9457724Y-11735520D01*
X9476771Y-11725996D01*
X9524390Y-11725996D01*
X9543438Y-11735520D01*
X9552962Y-11745044D01*
X9562486Y-11764091D01*
X9562486Y-11783139D01*
X9552962Y-11811710D01*
X9438676Y-11925996D01*
X9562486Y-11925996D01*
X9638676Y-11725996D02*
X9638676Y-11764091D01*
X9714867Y-11725996D02*
X9714867Y-11764091D01*
X10010105Y-12002187D02*
X10000581Y-11992663D01*
X9981533Y-11964091D01*
X9972010Y-11945044D01*
X9962486Y-11916472D01*
X9952962Y-11868853D01*
X9952962Y-11830758D01*
X9962486Y-11783139D01*
X9972010Y-11754568D01*
X9981533Y-11735520D01*
X10000581Y-11706948D01*
X10010105Y-11697425D01*
X10076771Y-11745044D02*
X10086295Y-11735520D01*
X10105343Y-11725996D01*
X10152962Y-11725996D01*
X10172010Y-11735520D01*
X10181533Y-11745044D01*
X10191057Y-11764091D01*
X10191057Y-11783139D01*
X10181533Y-11811710D01*
X10067248Y-11925996D01*
X10191057Y-11925996D01*
X10429152Y-11925996D02*
X10429152Y-11725996D01*
X10514867Y-11925996D02*
X10514867Y-11821234D01*
X10505343Y-11802187D01*
X10486295Y-11792663D01*
X10457724Y-11792663D01*
X10438676Y-11802187D01*
X10429152Y-11811710D01*
X10638676Y-11925996D02*
X10619629Y-11916472D01*
X10610105Y-11906948D01*
X10600581Y-11887901D01*
X10600581Y-11830758D01*
X10610105Y-11811710D01*
X10619629Y-11802187D01*
X10638676Y-11792663D01*
X10667248Y-11792663D01*
X10686295Y-11802187D01*
X10695819Y-11811710D01*
X10705343Y-11830758D01*
X10705343Y-11887901D01*
X10695819Y-11906948D01*
X10686295Y-11916472D01*
X10667248Y-11925996D01*
X10638676Y-11925996D01*
X10819629Y-11925996D02*
X10800581Y-11916472D01*
X10791057Y-11897425D01*
X10791057Y-11725996D01*
X10972010Y-11916472D02*
X10952962Y-11925996D01*
X10914867Y-11925996D01*
X10895819Y-11916472D01*
X10886295Y-11897425D01*
X10886295Y-11821234D01*
X10895819Y-11802187D01*
X10914867Y-11792663D01*
X10952962Y-11792663D01*
X10972010Y-11802187D01*
X10981533Y-11821234D01*
X10981533Y-11840282D01*
X10886295Y-11859329D01*
X11057724Y-11916472D02*
X11076771Y-11925996D01*
X11114867Y-11925996D01*
X11133914Y-11916472D01*
X11143438Y-11897425D01*
X11143438Y-11887901D01*
X11133914Y-11868853D01*
X11114867Y-11859329D01*
X11086295Y-11859329D01*
X11067248Y-11849806D01*
X11057724Y-11830758D01*
X11057724Y-11821234D01*
X11067248Y-11802187D01*
X11086295Y-11792663D01*
X11114867Y-11792663D01*
X11133914Y-11802187D01*
X11210105Y-12002187D02*
X11219628Y-11992663D01*
X11238676Y-11964091D01*
X11248200Y-11945044D01*
X11257724Y-11916472D01*
X11267248Y-11868853D01*
X11267248Y-11830758D01*
X11257724Y-11783139D01*
X11248200Y-11754568D01*
X11238676Y-11735520D01*
X11219628Y-11706948D01*
X11210105Y-11697425D01*
M02*
